<?xml version="1.0" encoding="UTF-8"?><svg xmlns="http://www.w3.org/2000/svg" xmlns:xlink="http://www.w3.org/1999/xlink" viewBox="0 0 1281 4276.43"><defs><style>.uuid-53d0e650-9329-43d3-bf27-fac5dc1574a5{fill:none;}.uuid-d33dee2c-5b1c-433b-9ff3-67b303694c47{fill:url(#uuid-ae78ff11-a09b-4bee-baba-943b67ef525b);}.uuid-d152c417-d611-46b7-bfaf-ddf5ce347611{fill:url(#uuid-d0e4e7ce-2449-47f9-b0b6-23b0bc5bbde2);}.uuid-50340cc4-79be-4f1d-9602-1f2b04bbc547{fill:#fff;}.uuid-a4843cd5-aefd-44fd-bb57-6c7068be747d{fill:url(#uuid-31ed6f1f-38c0-42bc-9d22-507ba027f45c);}.uuid-7b259702-105c-4906-a5a9-6f1496c95d3d{fill:#646464;}.uuid-7b259702-105c-4906-a5a9-6f1496c95d3d,.uuid-55f18b67-34e9-47aa-9a79-3ce91ccf7353{mix-blend-mode:overlay;}.uuid-42f4b45d-0caf-4063-a132-f0a5cf705662{fill:url(#uuid-b6a381ef-cabf-47f0-a5f8-4157374e39f0);}.uuid-5af0dca3-e70b-48e2-ac9b-43f9d71e4b10{fill:url(#uuid-40ef9762-853a-4864-ae81-a7b61fd8e650);}.uuid-ec70e0c6-3335-4bdb-ac0c-560d9f0e6afb{fill:url(#uuid-17e08efc-2a0b-48ac-9ae1-bbad62969e98);}.uuid-b9298c95-7ddc-4cd7-b99c-3b63c6a8e820{fill:url(#uuid-6a99ded6-4cea-4380-bef9-c149d8e47835);}.uuid-f8ebbe48-67cb-44a5-98bd-a67de8b6605e{fill:url(#uuid-edcd3f6e-cfb1-42c5-bcb3-3a59cee491dc);}.uuid-796906a1-b5bd-444c-af59-41d8f6241d5a{fill:url(#uuid-894cdd26-7f31-4ed9-bff3-c42b368b554b);}.uuid-caf28121-cb4f-469d-8548-200c5a13317f{fill:url(#uuid-5b82ee26-2142-4277-af76-41ca2fca8321);}.uuid-92b4d43b-de02-4a82-8171-ee0f4213ebda{fill:url(#uuid-fa3378eb-b457-4073-9d9b-5529529c1ce1);}.uuid-e74a53a3-f77e-444e-a65e-d21e0c4dcdb6{fill:url(#uuid-19eb8909-1836-43d2-acdd-57821bebcdef);}.uuid-70e33c6e-26c0-4dac-8524-6065f01a1ce5{isolation:isolate;}.uuid-48e7e92e-aaaf-47b9-a35c-419b91d7dafa{clip-path:url(#uuid-3d7bc025-a45e-4014-9e0d-77b644eb05eb);}.uuid-557a3659-2379-4277-aee0-cfed81116ccb{fill:url(#uuid-7b09df9a-0355-4e06-a1ec-b3db8b565643);}</style><clipPath id="uuid-3d7bc025-a45e-4014-9e0d-77b644eb05eb"><rect class="uuid-53d0e650-9329-43d3-bf27-fac5dc1574a5" width="1281" height="4276.43"/></clipPath><linearGradient id="uuid-6a99ded6-4cea-4380-bef9-c149d8e47835" x1="-567.83" y1="2973.65" x2="2090.79" y2="1135.17" gradientUnits="userSpaceOnUse"><stop offset="0" stop-color="#16223a"/><stop offset="1" stop-color="#263d66"/></linearGradient><linearGradient id="uuid-19eb8909-1836-43d2-acdd-57821bebcdef" x1="-85.98" y1="4164.82" x2="578.09" y2="4164.82" gradientUnits="userSpaceOnUse"><stop offset="0" stop-color="#792a10"/><stop offset="1" stop-color="#ed6e4f"/></linearGradient><linearGradient id="uuid-5b82ee26-2142-4277-af76-41ca2fca8321" x1="698.8" y1="115.52" x2="1381.59" y2="115.52" gradientUnits="userSpaceOnUse"><stop offset="0" stop-color="#1a636e"/><stop offset="1" stop-color="#95c4b3"/></linearGradient><linearGradient id="uuid-31ed6f1f-38c0-42bc-9d22-507ba027f45c" x1="-229.9" y1="4279.46" x2="272.86" y2="4279.46" xlink:href="#uuid-6a99ded6-4cea-4380-bef9-c149d8e47835"/><linearGradient id="uuid-b6a381ef-cabf-47f0-a5f8-4157374e39f0" x1="-198.56" y1="4279.46" x2="241.52" y2="4279.46" xlink:href="#uuid-6a99ded6-4cea-4380-bef9-c149d8e47835"/><linearGradient id="uuid-7b09df9a-0355-4e06-a1ec-b3db8b565643" x1="-167.21" y1="4279.46" x2="210.18" y2="4279.46" xlink:href="#uuid-6a99ded6-4cea-4380-bef9-c149d8e47835"/><linearGradient id="uuid-17e08efc-2a0b-48ac-9ae1-bbad62969e98" x1="-135.87" y1="4279.46" x2="178.83" y2="4279.46" xlink:href="#uuid-6a99ded6-4cea-4380-bef9-c149d8e47835"/><linearGradient id="uuid-894cdd26-7f31-4ed9-bff3-c42b368b554b" x1="-104.53" y1="4279.46" x2="147.49" y2="4279.46" xlink:href="#uuid-6a99ded6-4cea-4380-bef9-c149d8e47835"/><linearGradient id="uuid-ae78ff11-a09b-4bee-baba-943b67ef525b" x1="1075.62" y1="-46.44" x2="1578.39" y2="-46.44" xlink:href="#uuid-6a99ded6-4cea-4380-bef9-c149d8e47835"/><linearGradient id="uuid-d0e4e7ce-2449-47f9-b0b6-23b0bc5bbde2" x1="1106.97" y1="-46.44" x2="1547.04" y2="-46.44" xlink:href="#uuid-6a99ded6-4cea-4380-bef9-c149d8e47835"/><linearGradient id="uuid-40ef9762-853a-4864-ae81-a7b61fd8e650" x1="1138.31" y1="-46.44" x2="1515.7" y2="-46.44" xlink:href="#uuid-6a99ded6-4cea-4380-bef9-c149d8e47835"/><linearGradient id="uuid-edcd3f6e-cfb1-42c5-bcb3-3a59cee491dc" x1="1169.65" y1="-46.44" x2="1484.36" y2="-46.44" xlink:href="#uuid-6a99ded6-4cea-4380-bef9-c149d8e47835"/><linearGradient id="uuid-fa3378eb-b457-4073-9d9b-5529529c1ce1" x1="1200.99" y1="-46.44" x2="1453.01" y2="-46.44" xlink:href="#uuid-6a99ded6-4cea-4380-bef9-c149d8e47835"/></defs><g class="uuid-70e33c6e-26c0-4dac-8524-6065f01a1ce5"><g id="uuid-32283174-0595-4024-afd0-3537f9f3d491"><g class="uuid-48e7e92e-aaaf-47b9-a35c-419b91d7dafa"><rect class="uuid-b9298c95-7ddc-4cd7-b99c-3b63c6a8e820" x="-.22" y="-.06" width="1281.11" height="4276.5"/><path class="uuid-e74a53a3-f77e-444e-a65e-d21e0c4dcdb6" d="m309.59,3820.6c-27.56-28.46-68.86-33.45-108.88-2.31-34.5,26.84-53.67,58.06-108.87,58.49-210.92,1.62-196.7,140.43-146.2,222.23,72.49,117.42,46.41,157.63,44.28,237.15-1.49,55.6,2.41,100.84,42.58,146.3,60.15,68.07,148.87,61.51,207.68,12.44,28.87-24.09,56.79-54.93,75.02-72.47,48.95-47.11,73.52-56.13,150.89-95.37,149.39-78.96,143.12-219.42,18.14-270.25-107-43.51-114.77-45.35-133.6-131.73-7.91-36.28-9.5-71.91-41.03-104.47Z"/><path class="uuid-caf28121-cb4f-469d-8548-200c5a13317f" d="m1089.1,402c70.78,144.09,237.5,55.67,224.57-112.53-5.37-69.83-24.43-121.26,21.96-181.48,11.5-14.93,21.49-31.04,32.19-46.59,19.78-28.76,19.95-81.26-10.64-119.31-44.29-55.09-100.03-100.51-157.86-141.19-75.63-53.21-164.58-68.81-214.92,12.12-29.36,47.2-34,95.02-88.6,110.1-31.92,8.81-53.86,15.54-76.05,43.9-39.71,50.78-36.75,32-70.96,51.33-82.2,46.45-55.97,159.61,27.23,207.16,55.43,31.68,114.22,18.91,147.47,17.84,120.09-3.9,108.17,41.73,165.61,158.66Z"/><path class="uuid-7b259702-105c-4906-a5a9-6f1496c95d3d" d="m369.84-327.16c-13.27,70.09,29.04,137.79,87.54,172.91,66.16,39.73,123.18,55.82,136.97,133.48,4.46,25.11,11.81,60.55,23.34,83.48,42.41,84.3,140.88,59.25,214.8,57.47,69.4-1.66,114.62,37.72,184.55,94.47.44.36,146.65,186.43,213.8,1.9,12.45-34.2,15.43-62.25,20.76-81,20.96-73.76,88.27-71.26,190.22-114.67,129.02-54.95,170.66-205.32,32.28-255.62-53.18-19.34-99.19-22.08-150.2-47.1-104.23-51.12-93.61-156.08-184.07-201.33-32.39-20.15-81.1-24.76-114.23-19.46-127.57,20.42-177.18,70.85-269.43,43.21-31.35-9.39-70.4-27.33-117.08-34.58-120.25-18.68-248.36,56.58-269.24,166.83Z"/><path class="uuid-7b259702-105c-4906-a5a9-6f1496c95d3d" d="m-253.06,4028.78c-13.27,70.09,29.04,137.79,87.54,172.91,66.16,39.73,123.18,55.82,136.97,133.48,4.46,25.11,11.81,60.55,23.34,83.48,42.41,84.3,140.88,59.25,214.8,57.47,69.4-1.66,114.62,37.72,184.55,94.47.44.36,146.65,186.43,213.8,1.9,12.45-34.2,15.43-62.25,20.76-81,20.96-73.76,88.27-71.26,190.22-114.67,129.02-54.95,170.66-205.31,32.28-255.62-53.18-19.34-99.19-22.08-150.2-47.1-104.23-51.12-93.61-156.08-184.07-201.33-32.39-20.15-81.1-24.76-114.23-19.46-127.57,20.42-177.18,70.85-269.43,43.21-31.35-9.39-70.4-27.33-117.08-34.58-120.25-18.68-248.36,56.58-269.24,166.83Z"/><g class="uuid-55f18b67-34e9-47aa-9a79-3ce91ccf7353"><path class="uuid-50340cc4-79be-4f1d-9602-1f2b04bbc547" d="m1375.01,582.45c-.39,0-.77,0-1.16,0-31.31-.26-63.52-10.79-90.69-29.67-27.17-18.88-48.28-45.38-59.44-74.64-4.19-10.98-7.29-22.69-10.3-34.02-6.01-22.68-12.23-46.14-27.42-64.08-11.18-13.21-26.43-22.36-41.17-31.22-13.06-7.84-26.56-15.95-37.36-26.89-21.94-22.22-30.77-53.59-39.32-83.93-8.87-31.5-18.05-64.08-41.97-85.83-36.67-33.35-93.63-28.91-139.16-21.32l-5.31.89c-47.83,8.02-97.29,16.32-138.43-6.96-30.77-17.42-51.2-52.87-50.82-88.23.38-35.36,21.55-70.37,52.68-87.13l.6,1.12c-30.74,16.54-51.64,51.11-52.02,86.02-.37,34.91,19.79,69.92,50.17,87.11,40.75,23.06,89.98,14.8,137.6,6.81l5.31-.89c45.81-7.64,103.15-12.09,140.22,21.63,24.19,22,33.41,54.75,42.34,86.43,8.5,30.19,17.29,61.4,39,83.38,10.69,10.83,24.13,18.9,37.11,26.7,14.83,8.91,30.17,18.12,41.49,31.48,15.38,18.16,21.63,41.76,27.68,64.58,2.99,11.3,6.09,22.97,10.25,33.89,23.05,60.4,84.3,102.96,148.96,103.49,31.48.29,58.43-10.11,74.06-28.46l.97.82c-15.68,18.41-42.56,28.91-73.88,28.91Z"/></g><g class="uuid-55f18b67-34e9-47aa-9a79-3ce91ccf7353"><path class="uuid-50340cc4-79be-4f1d-9602-1f2b04bbc547" d="m514.6,4373.35c-27.9-10.32-34.07-45.89-35.43-60.7-.57-6.22-.86-12.63-1.14-18.82-.82-18.12-1.67-36.86-9.65-53.15-15.13-30.88-51.57-43.65-71.95-48.51-12.21-2.92-24.87-4.84-37.12-6.7-17.07-2.59-34.72-5.27-51.42-10.68-47.35-15.33-86.91-54.06-103.25-101.07-2.94-8.45-5.26-17.37-7.5-25.99-5.15-19.79-10.48-40.26-23.57-55.99-24.06-28.89-65.21-33.37-105.31-35.48-20.85-1.1-42.41-2.24-63.08,2.73-22.96,5.51-41.09,18.42-49.73,35.41l-1.13-.58c8.82-17.33,27.25-30.47,50.57-36.07,20.85-5,42.51-3.86,63.45-2.76,40.37,2.13,81.83,6.66,106.22,35.94,13.28,15.94,18.64,36.55,23.82,56.48,2.24,8.6,4.55,17.49,7.47,25.89,16.21,46.64,55.46,85.07,102.44,100.28,16.61,5.38,34.2,8.05,51.22,10.63,12.27,1.86,24.96,3.79,37.22,6.72,35.56,8.49,61.41,25.96,72.8,49.19,8.1,16.53,8.95,35.41,9.78,53.66.28,6.18.57,12.58,1.14,18.77,1.34,14.57,7.39,49.55,34.61,59.62l-.44,1.19Z"/></g><path class="uuid-a4843cd5-aefd-44fd-bb57-6c7068be747d" d="m21.48,4530.85c-67.2,0-130.34-26.13-177.8-73.59-47.45-47.45-73.59-110.6-73.59-177.8s26.13-130.34,73.59-177.8c47.45-47.45,110.6-73.59,177.8-73.59s130.34,26.13,177.8,73.59c47.45,47.45,73.59,110.59,73.59,177.8s-26.13,130.34-73.59,177.8c-47.45,47.45-110.6,73.59-177.8,73.59Zm0-501.49c-137.91,0-250.11,112.2-250.11,250.11s112.2,250.11,250.11,250.11,250.11-112.2,250.11-250.11-112.2-250.11-250.11-250.11Z"/><path class="uuid-42f4b45d-0caf-4063-a132-f0a5cf705662" d="m21.48,4499.5c-121.33,0-220.04-98.71-220.04-220.04s98.71-220.04,220.04-220.04,220.04,98.71,220.04,220.04-98.71,220.04-220.04,220.04Zm0-438.81c-120.63,0-218.77,98.14-218.77,218.77s98.14,218.77,218.77,218.77,218.77-98.14,218.77-218.77-98.14-218.77-218.77-218.77Z"/><path class="uuid-557a3659-2379-4277-aee0-cfed81116ccb" d="m21.48,4468.16c-104.05,0-188.7-84.65-188.7-188.7s84.65-188.69,188.7-188.69,188.7,84.65,188.7,188.69-84.65,188.7-188.7,188.7Zm0-376.12c-103.35,0-187.42,84.08-187.42,187.42s84.08,187.42,187.42,187.42,187.42-84.08,187.42-187.42-84.08-187.42-187.42-187.42Z"/><path class="uuid-ec70e0c6-3335-4bdb-ac0c-560d9f0e6afb" d="m21.48,4436.82c-86.76,0-157.35-70.59-157.35-157.35s70.59-157.35,157.35-157.35,157.35,70.59,157.35,157.35-70.59,157.35-157.35,157.35Zm0-313.43c-86.06,0-156.08,70.02-156.08,156.08s70.02,156.08,156.08,156.08,156.08-70.02,156.08-156.08-70.02-156.08-156.08-156.08Z"/><path class="uuid-796906a1-b5bd-444c-af59-41d8f6241d5a" d="m21.48,4405.47c-69.48,0-126.01-56.53-126.01-126.01s56.53-126.01,126.01-126.01,126.01,56.53,126.01,126.01-56.53,126.01-126.01,126.01Zm0-250.75c-68.78,0-124.74,55.96-124.74,124.74s55.96,124.74,124.74,124.74,124.74-55.96,124.74-124.74-55.96-124.74-124.74-124.74Z"/><path class="uuid-d33dee2c-5b1c-433b-9ff3-67b303694c47" d="m1327,204.94c-67.2,0-130.34-26.13-177.8-73.59-47.45-47.45-73.59-110.6-73.59-177.8s26.13-130.34,73.59-177.8c47.45-47.45,110.6-73.59,177.8-73.59s130.34,26.13,177.8,73.59c47.45,47.45,73.59,110.6,73.59,177.8s-26.13,130.34-73.59,177.8c-47.45,47.45-110.6,73.59-177.8,73.59Zm0-501.49c-137.91,0-250.11,112.2-250.11,250.11s112.2,250.11,250.11,250.11,250.11-112.2,250.11-250.11-112.2-250.11-250.11-250.11Z"/><path class="uuid-d152c417-d611-46b7-bfaf-ddf5ce347611" d="m1327,173.6c-121.33,0-220.04-98.71-220.04-220.04s98.71-220.04,220.04-220.04,220.04,98.71,220.04,220.04-98.71,220.04-220.04,220.04Zm0-438.81c-120.63,0-218.77,98.14-218.77,218.77s98.14,218.77,218.77,218.77,218.77-98.14,218.77-218.77-98.14-218.77-218.77-218.77Z"/><path class="uuid-5af0dca3-e70b-48e2-ac9b-43f9d71e4b10" d="m1327,142.26c-104.05,0-188.7-84.65-188.7-188.7s84.65-188.69,188.7-188.69,188.69,84.65,188.69,188.69-84.65,188.7-188.69,188.7Zm0-376.12c-103.35,0-187.42,84.08-187.42,187.42s84.08,187.42,187.42,187.42,187.42-84.08,187.42-187.42-84.08-187.42-187.42-187.42Z"/><path class="uuid-f8ebbe48-67cb-44a5-98bd-a67de8b6605e" d="m1327,110.91c-86.76,0-157.35-70.59-157.35-157.35s70.59-157.35,157.35-157.35,157.35,70.59,157.35,157.35-70.59,157.35-157.35,157.35Zm0-313.43c-86.06,0-156.08,70.02-156.08,156.08s70.02,156.08,156.08,156.08,156.08-70.02,156.08-156.08-70.02-156.08-156.08-156.08Z"/><path class="uuid-92b4d43b-de02-4a82-8171-ee0f4213ebda" d="m1327,79.57c-69.48,0-126.01-56.53-126.01-126.01s56.53-126.01,126.01-126.01,126.01,56.53,126.01,126.01-56.53,126.01-126.01,126.01Zm0-250.75c-68.78,0-124.74,55.96-124.74,124.74s55.96,124.74,124.74,124.74,124.74-55.96,124.74-124.74-55.96-124.74-124.74-124.74Z"/><g class="uuid-55f18b67-34e9-47aa-9a79-3ce91ccf7353"><circle class="uuid-50340cc4-79be-4f1d-9602-1f2b04bbc547" cx="75.82" cy="167.72" r="2.24"/><circle class="uuid-50340cc4-79be-4f1d-9602-1f2b04bbc547" cx="91.07" cy="167.72" r="2.24"/><circle class="uuid-50340cc4-79be-4f1d-9602-1f2b04bbc547" cx="106.32" cy="167.72" r="2.24"/><circle class="uuid-50340cc4-79be-4f1d-9602-1f2b04bbc547" cx="121.57" cy="167.72" r="2.24"/><circle class="uuid-50340cc4-79be-4f1d-9602-1f2b04bbc547" cx="136.82" cy="167.72" r="2.24"/><circle class="uuid-50340cc4-79be-4f1d-9602-1f2b04bbc547" cx="75.82" cy="182.97" r="2.24"/><circle class="uuid-50340cc4-79be-4f1d-9602-1f2b04bbc547" cx="91.07" cy="182.97" r="2.24"/><circle class="uuid-50340cc4-79be-4f1d-9602-1f2b04bbc547" cx="106.32" cy="182.97" r="2.24"/><circle class="uuid-50340cc4-79be-4f1d-9602-1f2b04bbc547" cx="121.57" cy="182.97" r="2.24"/><circle class="uuid-50340cc4-79be-4f1d-9602-1f2b04bbc547" cx="136.82" cy="182.97" r="2.24"/><circle class="uuid-50340cc4-79be-4f1d-9602-1f2b04bbc547" cx="75.82" cy="198.22" r="2.24"/><circle class="uuid-50340cc4-79be-4f1d-9602-1f2b04bbc547" cx="91.07" cy="198.22" r="2.24"/><circle class="uuid-50340cc4-79be-4f1d-9602-1f2b04bbc547" cx="106.32" cy="198.22" r="2.24"/><circle class="uuid-50340cc4-79be-4f1d-9602-1f2b04bbc547" cx="121.57" cy="198.22" r="2.24"/><circle class="uuid-50340cc4-79be-4f1d-9602-1f2b04bbc547" cx="136.82" cy="198.22" r="2.24"/><circle class="uuid-50340cc4-79be-4f1d-9602-1f2b04bbc547" cx="75.82" cy="213.47" r="2.24"/><circle class="uuid-50340cc4-79be-4f1d-9602-1f2b04bbc547" cx="91.07" cy="213.47" r="2.24"/><circle class="uuid-50340cc4-79be-4f1d-9602-1f2b04bbc547" cx="106.32" cy="213.47" r="2.24"/><circle class="uuid-50340cc4-79be-4f1d-9602-1f2b04bbc547" cx="121.57" cy="213.47" r="2.24"/><circle class="uuid-50340cc4-79be-4f1d-9602-1f2b04bbc547" cx="136.82" cy="213.47" r="2.24"/><circle class="uuid-50340cc4-79be-4f1d-9602-1f2b04bbc547" cx="75.82" cy="228.72" r="2.24"/><circle class="uuid-50340cc4-79be-4f1d-9602-1f2b04bbc547" cx="91.07" cy="228.72" r="2.24"/><circle class="uuid-50340cc4-79be-4f1d-9602-1f2b04bbc547" cx="106.32" cy="228.72" r="2.24"/><circle class="uuid-50340cc4-79be-4f1d-9602-1f2b04bbc547" cx="121.57" cy="228.72" r="2.24"/><circle class="uuid-50340cc4-79be-4f1d-9602-1f2b04bbc547" cx="136.82" cy="228.72" r="2.24"/><circle class="uuid-50340cc4-79be-4f1d-9602-1f2b04bbc547" cx="75.82" cy="243.97" r="2.24"/><circle class="uuid-50340cc4-79be-4f1d-9602-1f2b04bbc547" cx="91.07" cy="243.97" r="2.24"/><circle class="uuid-50340cc4-79be-4f1d-9602-1f2b04bbc547" cx="106.32" cy="243.97" r="2.24"/><circle class="uuid-50340cc4-79be-4f1d-9602-1f2b04bbc547" cx="121.57" cy="243.97" r="2.24"/><circle class="uuid-50340cc4-79be-4f1d-9602-1f2b04bbc547" cx="136.82" cy="243.97" r="2.24"/><circle class="uuid-50340cc4-79be-4f1d-9602-1f2b04bbc547" cx="75.82" cy="259.23" r="2.24"/><circle class="uuid-50340cc4-79be-4f1d-9602-1f2b04bbc547" cx="91.07" cy="259.23" r="2.24"/><circle class="uuid-50340cc4-79be-4f1d-9602-1f2b04bbc547" cx="106.32" cy="259.23" r="2.24"/><circle class="uuid-50340cc4-79be-4f1d-9602-1f2b04bbc547" cx="121.57" cy="259.23" r="2.24"/><circle class="uuid-50340cc4-79be-4f1d-9602-1f2b04bbc547" cx="136.82" cy="259.23" r="2.24"/><circle class="uuid-50340cc4-79be-4f1d-9602-1f2b04bbc547" cx="75.82" cy="274.48" r="2.24"/><circle class="uuid-50340cc4-79be-4f1d-9602-1f2b04bbc547" cx="91.07" cy="274.48" r="2.24"/><circle class="uuid-50340cc4-79be-4f1d-9602-1f2b04bbc547" cx="106.32" cy="274.48" r="2.24"/><circle class="uuid-50340cc4-79be-4f1d-9602-1f2b04bbc547" cx="121.57" cy="274.48" r="2.24"/><circle class="uuid-50340cc4-79be-4f1d-9602-1f2b04bbc547" cx="136.82" cy="274.48" r="2.24"/><circle class="uuid-50340cc4-79be-4f1d-9602-1f2b04bbc547" cx="75.82" cy="289.73" r="2.24"/><circle class="uuid-50340cc4-79be-4f1d-9602-1f2b04bbc547" cx="91.07" cy="289.73" r="2.24"/><circle class="uuid-50340cc4-79be-4f1d-9602-1f2b04bbc547" cx="106.32" cy="289.73" r="2.24"/><circle class="uuid-50340cc4-79be-4f1d-9602-1f2b04bbc547" cx="121.57" cy="289.73" r="2.24"/><circle class="uuid-50340cc4-79be-4f1d-9602-1f2b04bbc547" cx="136.82" cy="289.73" r="2.24"/><circle class="uuid-50340cc4-79be-4f1d-9602-1f2b04bbc547" cx="75.82" cy="304.98" r="2.24"/><circle class="uuid-50340cc4-79be-4f1d-9602-1f2b04bbc547" cx="91.07" cy="304.98" r="2.24"/><circle class="uuid-50340cc4-79be-4f1d-9602-1f2b04bbc547" cx="106.32" cy="304.98" r="2.24"/><circle class="uuid-50340cc4-79be-4f1d-9602-1f2b04bbc547" cx="121.57" cy="304.98" r="2.24"/><circle class="uuid-50340cc4-79be-4f1d-9602-1f2b04bbc547" cx="136.82" cy="304.98" r="2.24"/><circle class="uuid-50340cc4-79be-4f1d-9602-1f2b04bbc547" cx="75.82" cy="320.23" r="2.24"/><circle class="uuid-50340cc4-79be-4f1d-9602-1f2b04bbc547" cx="91.07" cy="320.23" r="2.24"/><circle class="uuid-50340cc4-79be-4f1d-9602-1f2b04bbc547" cx="106.32" cy="320.23" r="2.24"/><circle class="uuid-50340cc4-79be-4f1d-9602-1f2b04bbc547" cx="121.57" cy="320.23" r="2.24"/><circle class="uuid-50340cc4-79be-4f1d-9602-1f2b04bbc547" cx="136.82" cy="320.23" r="2.24"/><circle class="uuid-50340cc4-79be-4f1d-9602-1f2b04bbc547" cx="75.82" cy="335.48" r="2.24"/><circle class="uuid-50340cc4-79be-4f1d-9602-1f2b04bbc547" cx="91.07" cy="335.48" r="2.24"/><circle class="uuid-50340cc4-79be-4f1d-9602-1f2b04bbc547" cx="106.32" cy="335.48" r="2.24"/><circle class="uuid-50340cc4-79be-4f1d-9602-1f2b04bbc547" cx="121.57" cy="335.48" r="2.24"/><circle class="uuid-50340cc4-79be-4f1d-9602-1f2b04bbc547" cx="136.82" cy="335.48" r="2.24"/><circle class="uuid-50340cc4-79be-4f1d-9602-1f2b04bbc547" cx="75.82" cy="350.73" r="2.24"/><circle class="uuid-50340cc4-79be-4f1d-9602-1f2b04bbc547" cx="91.07" cy="350.73" r="2.24"/><circle class="uuid-50340cc4-79be-4f1d-9602-1f2b04bbc547" cx="106.32" cy="350.73" r="2.24"/><circle class="uuid-50340cc4-79be-4f1d-9602-1f2b04bbc547" cx="121.57" cy="350.73" r="2.24"/><circle class="uuid-50340cc4-79be-4f1d-9602-1f2b04bbc547" cx="136.82" cy="350.73" r="2.24"/><circle class="uuid-50340cc4-79be-4f1d-9602-1f2b04bbc547" cx="75.82" cy="365.99" r="2.24"/><circle class="uuid-50340cc4-79be-4f1d-9602-1f2b04bbc547" cx="91.07" cy="365.99" r="2.24"/><circle class="uuid-50340cc4-79be-4f1d-9602-1f2b04bbc547" cx="106.32" cy="365.99" r="2.24"/><circle class="uuid-50340cc4-79be-4f1d-9602-1f2b04bbc547" cx="121.57" cy="365.99" r="2.24"/><circle class="uuid-50340cc4-79be-4f1d-9602-1f2b04bbc547" cx="136.82" cy="365.99" r="2.24"/><circle class="uuid-50340cc4-79be-4f1d-9602-1f2b04bbc547" cx="75.82" cy="381.24" r="2.24"/><circle class="uuid-50340cc4-79be-4f1d-9602-1f2b04bbc547" cx="91.07" cy="381.24" r="2.24"/><circle class="uuid-50340cc4-79be-4f1d-9602-1f2b04bbc547" cx="106.32" cy="381.24" r="2.24"/><circle class="uuid-50340cc4-79be-4f1d-9602-1f2b04bbc547" cx="121.57" cy="381.24" r="2.24"/><circle class="uuid-50340cc4-79be-4f1d-9602-1f2b04bbc547" cx="136.82" cy="381.24" r="2.24"/><circle class="uuid-50340cc4-79be-4f1d-9602-1f2b04bbc547" cx="75.82" cy="396.49" r="2.24"/><circle class="uuid-50340cc4-79be-4f1d-9602-1f2b04bbc547" cx="91.07" cy="396.49" r="2.24"/><circle class="uuid-50340cc4-79be-4f1d-9602-1f2b04bbc547" cx="106.32" cy="396.49" r="2.24"/><circle class="uuid-50340cc4-79be-4f1d-9602-1f2b04bbc547" cx="121.57" cy="396.49" r="2.24"/><circle class="uuid-50340cc4-79be-4f1d-9602-1f2b04bbc547" cx="136.82" cy="396.49" r="2.24"/><circle class="uuid-50340cc4-79be-4f1d-9602-1f2b04bbc547" cx="75.82" cy="411.74" r="2.24"/><circle class="uuid-50340cc4-79be-4f1d-9602-1f2b04bbc547" cx="91.07" cy="411.74" r="2.24"/><circle class="uuid-50340cc4-79be-4f1d-9602-1f2b04bbc547" cx="106.32" cy="411.74" r="2.24"/><circle class="uuid-50340cc4-79be-4f1d-9602-1f2b04bbc547" cx="121.57" cy="411.74" r="2.24"/><circle class="uuid-50340cc4-79be-4f1d-9602-1f2b04bbc547" cx="136.82" cy="411.74" r="2.24"/><circle class="uuid-50340cc4-79be-4f1d-9602-1f2b04bbc547" cx="75.82" cy="426.99" r="2.24"/><circle class="uuid-50340cc4-79be-4f1d-9602-1f2b04bbc547" cx="91.07" cy="426.99" r="2.24"/><circle class="uuid-50340cc4-79be-4f1d-9602-1f2b04bbc547" cx="106.32" cy="426.99" r="2.24"/><circle class="uuid-50340cc4-79be-4f1d-9602-1f2b04bbc547" cx="121.57" cy="426.99" r="2.24"/><circle class="uuid-50340cc4-79be-4f1d-9602-1f2b04bbc547" cx="136.82" cy="426.99" r="2.24"/><circle class="uuid-50340cc4-79be-4f1d-9602-1f2b04bbc547" cx="75.82" cy="442.24" r="2.24"/><circle class="uuid-50340cc4-79be-4f1d-9602-1f2b04bbc547" cx="91.07" cy="442.24" r="2.24"/><circle class="uuid-50340cc4-79be-4f1d-9602-1f2b04bbc547" cx="106.32" cy="442.24" r="2.24"/><circle class="uuid-50340cc4-79be-4f1d-9602-1f2b04bbc547" cx="121.57" cy="442.24" r="2.24"/><circle class="uuid-50340cc4-79be-4f1d-9602-1f2b04bbc547" cx="136.82" cy="442.24" r="2.24"/><circle class="uuid-50340cc4-79be-4f1d-9602-1f2b04bbc547" cx="75.82" cy="457.49" r="2.24"/><circle class="uuid-50340cc4-79be-4f1d-9602-1f2b04bbc547" cx="91.07" cy="457.49" r="2.24"/><circle class="uuid-50340cc4-79be-4f1d-9602-1f2b04bbc547" cx="106.32" cy="457.49" r="2.24"/><circle class="uuid-50340cc4-79be-4f1d-9602-1f2b04bbc547" cx="121.57" cy="457.49" r="2.24"/><circle class="uuid-50340cc4-79be-4f1d-9602-1f2b04bbc547" cx="136.82" cy="457.49" r="2.24"/><circle class="uuid-50340cc4-79be-4f1d-9602-1f2b04bbc547" cx="75.82" cy="472.74" r="2.24"/><circle class="uuid-50340cc4-79be-4f1d-9602-1f2b04bbc547" cx="91.07" cy="472.74" r="2.24"/><circle class="uuid-50340cc4-79be-4f1d-9602-1f2b04bbc547" cx="106.32" cy="472.74" r="2.24"/><circle class="uuid-50340cc4-79be-4f1d-9602-1f2b04bbc547" cx="121.57" cy="472.74" r="2.24"/><circle class="uuid-50340cc4-79be-4f1d-9602-1f2b04bbc547" cx="136.82" cy="472.74" r="2.24"/><circle class="uuid-50340cc4-79be-4f1d-9602-1f2b04bbc547" cx="75.82" cy="488" r="2.24"/><circle class="uuid-50340cc4-79be-4f1d-9602-1f2b04bbc547" cx="91.07" cy="488" r="2.24"/><circle class="uuid-50340cc4-79be-4f1d-9602-1f2b04bbc547" cx="106.32" cy="488" r="2.24"/><circle class="uuid-50340cc4-79be-4f1d-9602-1f2b04bbc547" cx="121.57" cy="488" r="2.24"/><circle class="uuid-50340cc4-79be-4f1d-9602-1f2b04bbc547" cx="136.82" cy="488" r="2.24"/><circle class="uuid-50340cc4-79be-4f1d-9602-1f2b04bbc547" cx="75.82" cy="503.25" r="2.24"/><circle class="uuid-50340cc4-79be-4f1d-9602-1f2b04bbc547" cx="91.07" cy="503.25" r="2.24"/><circle class="uuid-50340cc4-79be-4f1d-9602-1f2b04bbc547" cx="106.32" cy="503.25" r="2.24"/><circle class="uuid-50340cc4-79be-4f1d-9602-1f2b04bbc547" cx="121.57" cy="503.25" r="2.24"/><circle class="uuid-50340cc4-79be-4f1d-9602-1f2b04bbc547" cx="136.82" cy="503.25" r="2.24"/><circle class="uuid-50340cc4-79be-4f1d-9602-1f2b04bbc547" cx="75.82" cy="518.5" r="2.24"/><circle class="uuid-50340cc4-79be-4f1d-9602-1f2b04bbc547" cx="91.07" cy="518.5" r="2.24"/><circle class="uuid-50340cc4-79be-4f1d-9602-1f2b04bbc547" cx="106.32" cy="518.5" r="2.24"/><circle class="uuid-50340cc4-79be-4f1d-9602-1f2b04bbc547" cx="121.57" cy="518.5" r="2.24"/><circle class="uuid-50340cc4-79be-4f1d-9602-1f2b04bbc547" cx="136.82" cy="518.5" r="2.24"/><circle class="uuid-50340cc4-79be-4f1d-9602-1f2b04bbc547" cx="75.82" cy="533.75" r="2.24"/><circle class="uuid-50340cc4-79be-4f1d-9602-1f2b04bbc547" cx="91.07" cy="533.75" r="2.24"/><circle class="uuid-50340cc4-79be-4f1d-9602-1f2b04bbc547" cx="106.32" cy="533.75" r="2.24"/><circle class="uuid-50340cc4-79be-4f1d-9602-1f2b04bbc547" cx="121.57" cy="533.75" r="2.24"/><circle class="uuid-50340cc4-79be-4f1d-9602-1f2b04bbc547" cx="136.82" cy="533.75" r="2.24"/><circle class="uuid-50340cc4-79be-4f1d-9602-1f2b04bbc547" cx="75.82" cy="549" r="2.24"/><circle class="uuid-50340cc4-79be-4f1d-9602-1f2b04bbc547" cx="91.07" cy="549" r="2.24"/><circle class="uuid-50340cc4-79be-4f1d-9602-1f2b04bbc547" cx="106.32" cy="549" r="2.24"/><circle class="uuid-50340cc4-79be-4f1d-9602-1f2b04bbc547" cx="121.57" cy="549" r="2.24"/><circle class="uuid-50340cc4-79be-4f1d-9602-1f2b04bbc547" cx="136.82" cy="549" r="2.24"/><circle class="uuid-50340cc4-79be-4f1d-9602-1f2b04bbc547" cx="75.82" cy="564.25" r="2.24"/><circle class="uuid-50340cc4-79be-4f1d-9602-1f2b04bbc547" cx="91.07" cy="564.25" r="2.24"/><circle class="uuid-50340cc4-79be-4f1d-9602-1f2b04bbc547" cx="106.32" cy="564.25" r="2.24"/><circle class="uuid-50340cc4-79be-4f1d-9602-1f2b04bbc547" cx="121.57" cy="564.25" r="2.24"/><circle class="uuid-50340cc4-79be-4f1d-9602-1f2b04bbc547" cx="136.82" cy="564.25" r="2.24"/><circle class="uuid-50340cc4-79be-4f1d-9602-1f2b04bbc547" cx="75.82" cy="579.5" r="2.24"/><circle class="uuid-50340cc4-79be-4f1d-9602-1f2b04bbc547" cx="91.07" cy="579.5" r="2.24"/><circle class="uuid-50340cc4-79be-4f1d-9602-1f2b04bbc547" cx="106.32" cy="579.5" r="2.24"/><circle class="uuid-50340cc4-79be-4f1d-9602-1f2b04bbc547" cx="121.57" cy="579.5" r="2.24"/><circle class="uuid-50340cc4-79be-4f1d-9602-1f2b04bbc547" cx="136.82" cy="579.5" r="2.24"/><circle class="uuid-50340cc4-79be-4f1d-9602-1f2b04bbc547" cx="75.82" cy="594.76" r="2.24"/><circle class="uuid-50340cc4-79be-4f1d-9602-1f2b04bbc547" cx="91.07" cy="594.76" r="2.24"/><circle class="uuid-50340cc4-79be-4f1d-9602-1f2b04bbc547" cx="106.32" cy="594.76" r="2.24"/><circle class="uuid-50340cc4-79be-4f1d-9602-1f2b04bbc547" cx="121.57" cy="594.76" r="2.24"/><circle class="uuid-50340cc4-79be-4f1d-9602-1f2b04bbc547" cx="136.82" cy="594.76" r="2.24"/><circle class="uuid-50340cc4-79be-4f1d-9602-1f2b04bbc547" cx="75.82" cy="610.01" r="2.24"/><circle class="uuid-50340cc4-79be-4f1d-9602-1f2b04bbc547" cx="91.07" cy="610.01" r="2.24"/><circle class="uuid-50340cc4-79be-4f1d-9602-1f2b04bbc547" cx="106.32" cy="610.01" r="2.24"/><circle class="uuid-50340cc4-79be-4f1d-9602-1f2b04bbc547" cx="121.57" cy="610.01" r="2.24"/><circle class="uuid-50340cc4-79be-4f1d-9602-1f2b04bbc547" cx="136.82" cy="610.01" r="2.24"/><circle class="uuid-50340cc4-79be-4f1d-9602-1f2b04bbc547" cx="75.82" cy="625.26" r="2.24"/><circle class="uuid-50340cc4-79be-4f1d-9602-1f2b04bbc547" cx="91.07" cy="625.26" r="2.24"/><circle class="uuid-50340cc4-79be-4f1d-9602-1f2b04bbc547" cx="106.32" cy="625.26" r="2.24"/><circle class="uuid-50340cc4-79be-4f1d-9602-1f2b04bbc547" cx="121.57" cy="625.26" r="2.24"/><circle class="uuid-50340cc4-79be-4f1d-9602-1f2b04bbc547" cx="136.82" cy="625.26" r="2.24"/><circle class="uuid-50340cc4-79be-4f1d-9602-1f2b04bbc547" cx="75.82" cy="640.51" r="2.24"/><circle class="uuid-50340cc4-79be-4f1d-9602-1f2b04bbc547" cx="91.07" cy="640.51" r="2.24"/><circle class="uuid-50340cc4-79be-4f1d-9602-1f2b04bbc547" cx="106.32" cy="640.51" r="2.24"/><circle class="uuid-50340cc4-79be-4f1d-9602-1f2b04bbc547" cx="121.57" cy="640.51" r="2.24"/><circle class="uuid-50340cc4-79be-4f1d-9602-1f2b04bbc547" cx="136.82" cy="640.51" r="2.24"/><circle class="uuid-50340cc4-79be-4f1d-9602-1f2b04bbc547" cx="75.82" cy="655.76" r="2.24"/><circle class="uuid-50340cc4-79be-4f1d-9602-1f2b04bbc547" cx="91.07" cy="655.76" r="2.24"/><circle class="uuid-50340cc4-79be-4f1d-9602-1f2b04bbc547" cx="106.32" cy="655.76" r="2.24"/><circle class="uuid-50340cc4-79be-4f1d-9602-1f2b04bbc547" cx="121.57" cy="655.76" r="2.24"/><circle class="uuid-50340cc4-79be-4f1d-9602-1f2b04bbc547" cx="136.82" cy="655.76" r="2.24"/><circle class="uuid-50340cc4-79be-4f1d-9602-1f2b04bbc547" cx="75.82" cy="671.01" r="2.24"/><circle class="uuid-50340cc4-79be-4f1d-9602-1f2b04bbc547" cx="91.07" cy="671.01" r="2.24"/><circle class="uuid-50340cc4-79be-4f1d-9602-1f2b04bbc547" cx="106.32" cy="671.01" r="2.24"/><circle class="uuid-50340cc4-79be-4f1d-9602-1f2b04bbc547" cx="121.57" cy="671.01" r="2.24"/><circle class="uuid-50340cc4-79be-4f1d-9602-1f2b04bbc547" cx="136.82" cy="671.01" r="2.24"/><circle class="uuid-50340cc4-79be-4f1d-9602-1f2b04bbc547" cx="75.82" cy="686.26" r="2.24"/><circle class="uuid-50340cc4-79be-4f1d-9602-1f2b04bbc547" cx="91.07" cy="686.26" r="2.24"/><circle class="uuid-50340cc4-79be-4f1d-9602-1f2b04bbc547" cx="106.32" cy="686.26" r="2.24"/><circle class="uuid-50340cc4-79be-4f1d-9602-1f2b04bbc547" cx="121.57" cy="686.26" r="2.24"/><circle class="uuid-50340cc4-79be-4f1d-9602-1f2b04bbc547" cx="136.82" cy="686.26" r="2.24"/></g></g></g></g></svg>