<?xml version="1.0" encoding="UTF-8"?><svg id="uuid-866ffd59-fdac-4fb0-9d05-864c27ffc03e" xmlns="http://www.w3.org/2000/svg" viewBox="0 0 178.46 178.46"><defs><style>.uuid-c7bfa5d0-e23e-4eb3-94aa-e985e525e155{fill:#fee9d0;}.uuid-f30acbce-1e78-4259-8150-6e1b84fec57d{opacity:.3;}.uuid-a167dbb6-a6ee-44b2-b76b-dd5de3ab3e4e{opacity:.4;}.uuid-27f425eb-78ca-43e5-89e4-72e9e80adda9{opacity:.6;}.uuid-ca67cd28-07df-4d4c-a326-9af68582b3f6{opacity:.9;}.uuid-194dc67c-3bd3-4e4d-8abd-2e4f36f0a49e{opacity:.8;}</style></defs><g class="uuid-f30acbce-1e78-4259-8150-6e1b84fec57d"><g class="uuid-f30acbce-1e78-4259-8150-6e1b84fec57d"><path class="uuid-c7bfa5d0-e23e-4eb3-94aa-e985e525e155" d="m89.23,0C39.95,0,0,39.95,0,89.23s39.95,89.23,89.23,89.23,89.23-39.95,89.23-89.23S138.51,0,89.23,0ZM5.59,89.23c0-29.23,15-54.94,37.72-69.9v139.79C20.59,144.17,5.59,118.46,5.59,89.23Zm45.63,74.49V14.73c10.24-5.24,21.69-8.44,33.83-9.04v167.07c-12.14-.6-23.59-3.8-33.83-9.04Zm41.8,9.05V5.68c9.95.44,19.44,2.62,28.19,6.25v154.6c-8.75,3.62-18.24,5.8-28.19,6.25Zm36.23-10.08V15.77c8.53,4.66,16.15,10.76,22.55,17.98v110.97c-6.4,7.21-14.02,13.32-22.55,17.98Z"/></g><g class="uuid-ca67cd28-07df-4d4c-a326-9af68582b3f6"><path class="uuid-c7bfa5d0-e23e-4eb3-94aa-e985e525e155" d="m5.59,89.23c0,29.23,15,54.94,37.72,69.9V19.33C20.59,34.29,5.59,60,5.59,89.23Z"/></g><g class="uuid-194dc67c-3bd3-4e4d-8abd-2e4f36f0a49e"><path class="uuid-c7bfa5d0-e23e-4eb3-94aa-e985e525e155" d="m51.21,14.73v148.99c10.24,5.24,21.69,8.44,33.83,9.04V5.69c-12.14.6-23.59,3.8-33.83,9.04Z"/></g><g class="uuid-27f425eb-78ca-43e5-89e4-72e9e80adda9"><path class="uuid-c7bfa5d0-e23e-4eb3-94aa-e985e525e155" d="m93.01,5.68v167.09c9.95-.44,19.44-2.62,28.19-6.25V11.93c-8.75-3.62-18.24-5.8-28.19-6.25Z"/></g><g class="uuid-a167dbb6-a6ee-44b2-b76b-dd5de3ab3e4e"><path class="uuid-c7bfa5d0-e23e-4eb3-94aa-e985e525e155" d="m129.25,15.77v146.92c8.53-4.66,16.15-10.76,22.55-17.98V33.75c-6.4-7.21-14.02-13.32-22.55-17.98Z"/></g></g></svg>