<?xml version="1.0" encoding="UTF-8"?><svg id="uuid-8ad68d23-c878-4213-a917-460ba4f41e8b" xmlns="http://www.w3.org/2000/svg" viewBox="0 0 178.46 178.46"><defs><style>.uuid-36e08a76-2e41-4adc-9bdb-f5181caee7a4{fill:#fee9d0;}.uuid-4f30a48d-6771-49a1-b965-f7facf46c310{fill:#16223a;}.uuid-080e4f81-2cf6-466f-b7fc-dbeb64101e82{opacity:.15;}</style></defs><g class="uuid-080e4f81-2cf6-466f-b7fc-dbeb64101e82"><path class="uuid-36e08a76-2e41-4adc-9bdb-f5181caee7a4" d="m89.23,0C39.95,0,0,39.95,0,89.23s39.95,89.23,89.23,89.23,89.23-39.95,89.23-89.23S138.51,0,89.23,0Zm-25.53,34.81c1.79-4.25,5.14-6.64,9.66-6.65,11.13-.02,22.26,0,33.39,0s22.14.02,33.21-.03c1.25,0,2.12.37,2.98,1.25,5.29,5.41,10.03,11.23,13.83,17.8.24.41.74.81.44,1.27-.32.5-.85.06-1.3,0-.65-.08-1.32-.06-1.98-.06-26.77,0-53.54-.02-80.32.03-2.85,0-5.25-.75-7.29-2.74-3.04-2.97-4.06-7.45-2.63-10.86Zm-30.61,47.44c-5.02-1.23-8.5-6.14-7.94-11.26.56-5.04,4.95-8.89,10.25-8.89,42.13-.01,84.26,0,126.38-.04,1.4,0,2.02.45,2.37,1.77,1.58,6.02,3.27,12.01,3.35,18.49h-2.38c-42.67,0-85.34,0-128.01,0-1.34,0-2.68.27-4.03-.06Zm122.26,51.21c-3.23,5.07-6.86,9.83-11.07,14.17-1.84,1.9-3.48,2.74-6.32,2.69-16.59-.24-33.19-.12-49.78-.12-.84,0-1.68-.01-2.52-.04-3.9-.12-6.58-2.18-8.35-5.48-1.8-3.35-1.53-6.63.44-9.93,2.07-3.47,5.27-4.78,8.97-4.79,23.27-.08,46.54-.04,69.81-.03.17,0,.35.04.56.07-.09,1.41-1.06,2.4-1.73,3.45Zm6.63-17.19c-8.6-.02-17.2,0-25.79-.01-7.21,0-14.43.12-21.64-.11-4.96-.16-8.1-4.02-8.8-8.19-.96-5.83,2.43-10.45,8.13-11.75.34-.08.69-.16,1.04-.16,17.5,0,34.99.02,52.49.03.24-.06.33.04.29.28-.71,6.29-1.71,12.51-3.71,18.56-.43,1.29-.99,1.36-2,1.35Z"/><path class="uuid-4f30a48d-6771-49a1-b965-f7facf46c310" d="m167.41,96.08c.1.09.19.19.29.28.05-.24-.05-.34-.29-.28Z"/></g></svg>