<?xml version="1.0" encoding="UTF-8"?><svg id="uuid-1ffb9d5a-7604-44da-82a1-e2f719412857" xmlns="http://www.w3.org/2000/svg" xmlns:xlink="http://www.w3.org/1999/xlink" viewBox="0 0 136.97 136.9"><defs><style>.uuid-3e6e2e18-4178-48c6-8c6f-40aca1e22d41{fill:none;}.uuid-1a06e05b-8a1d-469c-8349-7c9db76f7965{fill:#feebd1;}.uuid-551dbd44-046b-4c60-b686-f6fd5e9eaaf7{fill:#792a10;}.uuid-61e47b66-ffb8-4e6b-93eb-3fe1a58ab4c7{clip-path:url(#uuid-ec8ba17d-5277-4c97-96c2-dfd129142a1c);}.uuid-e4153944-eb39-46a1-babb-ec13c7754253{clip-path:url(#uuid-3bfbbd96-f85d-49eb-bcfc-c9a8fb75c367);}</style><clipPath id="uuid-3bfbbd96-f85d-49eb-bcfc-c9a8fb75c367"><circle class="uuid-3e6e2e18-4178-48c6-8c6f-40aca1e22d41" cx="-120.28" cy="67.6" r="68.49"/></clipPath><clipPath id="uuid-ec8ba17d-5277-4c97-96c2-dfd129142a1c"><circle class="uuid-3e6e2e18-4178-48c6-8c6f-40aca1e22d41" cx="68.49" cy="68.45" r="68.49"/></clipPath></defs><g class="uuid-e4153944-eb39-46a1-babb-ec13c7754253"><circle class="uuid-1a06e05b-8a1d-469c-8349-7c9db76f7965" cx="25.63" cy="128.9" r="2.23"/><circle class="uuid-1a06e05b-8a1d-469c-8349-7c9db76f7965" cx="11.76" cy="128.9" r="2.23"/><circle class="uuid-1a06e05b-8a1d-469c-8349-7c9db76f7965" cx="-2.1" cy="128.9" r="2.23"/><path class="uuid-1a06e05b-8a1d-469c-8349-7c9db76f7965" d="m25.63,112.65c-1.32,0-2.38,1.07-2.38,2.38,0,1.32,1.07,2.38,2.38,2.38s2.38-1.07,2.38-2.38c0-1.32-1.07-2.38-2.38-2.38Z"/><path class="uuid-1a06e05b-8a1d-469c-8349-7c9db76f7965" d="m11.76,112.65c-1.32,0-2.38,1.07-2.38,2.38,0,1.32,1.07,2.38,2.38,2.38s2.38-1.07,2.38-2.38c0-1.32-1.07-2.38-2.38-2.38Z"/><path class="uuid-1a06e05b-8a1d-469c-8349-7c9db76f7965" d="m-2.1,112.65c-1.32,0-2.38,1.07-2.38,2.38,0,1.32,1.07,2.38,2.38,2.38,1.32,0,2.38-1.07,2.38-2.38s-1.07-2.38-2.38-2.38Z"/><path class="uuid-1a06e05b-8a1d-469c-8349-7c9db76f7965" d="m25.63,98.59c-1.42,0-2.58,1.15-2.58,2.58,0,1.42,1.15,2.58,2.58,2.58s2.58-1.15,2.58-2.58c0-1.42-1.15-2.58-2.58-2.58Z"/><path class="uuid-1a06e05b-8a1d-469c-8349-7c9db76f7965" d="m11.76,98.59c-1.42,0-2.58,1.15-2.58,2.58,0,1.42,1.15,2.58,2.58,2.58,1.42,0,2.58-1.15,2.58-2.58,0-1.42-1.15-2.58-2.58-2.58Z"/><path class="uuid-1a06e05b-8a1d-469c-8349-7c9db76f7965" d="m-2.1,98.59c-1.42,0-2.58,1.15-2.58,2.58s1.15,2.58,2.58,2.58,2.58-1.15,2.58-2.58c0-1.42-1.15-2.58-2.58-2.58Z"/><path class="uuid-1a06e05b-8a1d-469c-8349-7c9db76f7965" d="m25.63,84.57c-1.51,0-2.73,1.22-2.73,2.73s1.22,2.73,2.73,2.73,2.73-1.22,2.73-2.73-1.22-2.73-2.73-2.73Z"/><path class="uuid-1a06e05b-8a1d-469c-8349-7c9db76f7965" d="m11.76,84.57c-1.51,0-2.73,1.22-2.73,2.73,0,1.51,1.22,2.73,2.73,2.73s2.73-1.22,2.73-2.73-1.22-2.73-2.73-2.73Z"/><path class="uuid-1a06e05b-8a1d-469c-8349-7c9db76f7965" d="m-2.1,84.57c-1.51,0-2.73,1.22-2.73,2.73,0,1.51,1.22,2.73,2.73,2.73s2.73-1.22,2.73-2.73-1.22-2.73-2.73-2.73Z"/><path class="uuid-1a06e05b-8a1d-469c-8349-7c9db76f7965" d="m25.63,70.52c-1.61,0-2.92,1.31-2.92,2.92,0,1.61,1.31,2.92,2.92,2.92s2.92-1.31,2.92-2.92c0-1.61-1.31-2.92-2.92-2.92Z"/><path class="uuid-1a06e05b-8a1d-469c-8349-7c9db76f7965" d="m11.76,70.52c-1.61,0-2.92,1.31-2.92,2.92,0,1.61,1.31,2.92,2.92,2.92s2.92-1.31,2.92-2.92c0-1.61-1.31-2.92-2.92-2.92Z"/><path class="uuid-1a06e05b-8a1d-469c-8349-7c9db76f7965" d="m-2.1,70.52c-1.61,0-2.92,1.31-2.92,2.92,0,1.61,1.31,2.92,2.92,2.92s2.92-1.31,2.92-2.92c0-1.61-1.31-2.92-2.92-2.92Z"/><path class="uuid-1a06e05b-8a1d-469c-8349-7c9db76f7965" d="m25.63,56.5c-1.7,0-3.08,1.38-3.08,3.08,0,1.7,1.38,3.08,3.08,3.08s3.08-1.38,3.08-3.08c0-1.7-1.38-3.08-3.08-3.08Z"/><path class="uuid-1a06e05b-8a1d-469c-8349-7c9db76f7965" d="m11.76,56.5c-1.7,0-3.08,1.38-3.08,3.08,0,1.7,1.38,3.08,3.08,3.08s3.08-1.38,3.08-3.08-1.38-3.08-3.08-3.08Z"/><path class="uuid-1a06e05b-8a1d-469c-8349-7c9db76f7965" d="m-2.1,56.5c-1.7,0-3.08,1.38-3.08,3.08,0,1.7,1.38,3.08,3.08,3.08,1.7,0,3.08-1.38,3.08-3.08,0-1.7-1.38-3.08-3.08-3.08Z"/><path class="uuid-1a06e05b-8a1d-469c-8349-7c9db76f7965" d="m25.63,42.44c-1.8,0-3.27,1.46-3.27,3.27s1.46,3.27,3.27,3.27c1.81,0,3.27-1.46,3.27-3.27,0-1.8-1.46-3.27-3.27-3.27Z"/><path class="uuid-1a06e05b-8a1d-469c-8349-7c9db76f7965" d="m11.76,42.44c-1.8,0-3.27,1.46-3.27,3.27s1.46,3.27,3.27,3.27c1.81,0,3.27-1.46,3.27-3.27s-1.46-3.27-3.27-3.27Z"/><path class="uuid-1a06e05b-8a1d-469c-8349-7c9db76f7965" d="m-2.1,42.44c-1.8,0-3.27,1.46-3.27,3.27,0,1.8,1.46,3.27,3.27,3.27s3.27-1.46,3.27-3.27-1.46-3.27-3.27-3.27Z"/><path class="uuid-1a06e05b-8a1d-469c-8349-7c9db76f7965" d="m25.63,28.38c-1.91,0-3.46,1.55-3.46,3.46s1.55,3.46,3.46,3.46c1.91,0,3.46-1.55,3.46-3.46s-1.55-3.46-3.46-3.46Z"/><path class="uuid-1a06e05b-8a1d-469c-8349-7c9db76f7965" d="m11.76,28.38c-1.91,0-3.46,1.55-3.46,3.46,0,1.91,1.55,3.46,3.46,3.46s3.46-1.55,3.46-3.46c0-1.91-1.55-3.46-3.46-3.46Z"/><path class="uuid-1a06e05b-8a1d-469c-8349-7c9db76f7965" d="m-2.1,28.38c-1.91,0-3.46,1.55-3.46,3.46,0,1.91,1.55,3.46,3.46,3.46,1.91,0,3.46-1.55,3.46-3.46,0-1.91-1.55-3.46-3.46-3.46Z"/><path class="uuid-1a06e05b-8a1d-469c-8349-7c9db76f7965" d="m25.63,14.29c-2.04,0-3.69,1.65-3.69,3.69s1.65,3.69,3.69,3.69c2.04,0,3.69-1.65,3.69-3.69s-1.65-3.69-3.69-3.69Z"/><path class="uuid-1a06e05b-8a1d-469c-8349-7c9db76f7965" d="m11.76,14.29c-2.04,0-3.69,1.65-3.69,3.69s1.65,3.69,3.69,3.69,3.69-1.65,3.69-3.69-1.65-3.69-3.69-3.69Z"/><path class="uuid-1a06e05b-8a1d-469c-8349-7c9db76f7965" d="m-2.1,14.29c-2.04,0-3.69,1.65-3.69,3.69s1.65,3.69,3.69,3.69c2.04,0,3.69-1.65,3.69-3.69,0-2.04-1.65-3.69-3.69-3.69Z"/><path class="uuid-1a06e05b-8a1d-469c-8349-7c9db76f7965" d="m25.63.23c-2.14,0-3.88,1.74-3.88,3.88,0,2.14,1.74,3.88,3.88,3.88s3.88-1.74,3.88-3.88S27.77.23,25.63.23Z"/><path class="uuid-1a06e05b-8a1d-469c-8349-7c9db76f7965" d="m11.76.23c-2.14,0-3.88,1.74-3.88,3.88,0,2.14,1.74,3.88,3.88,3.88s3.88-1.74,3.88-3.88c0-2.14-1.74-3.88-3.88-3.88Z"/><path class="uuid-1a06e05b-8a1d-469c-8349-7c9db76f7965" d="m-2.1.23c-2.14,0-3.88,1.74-3.88,3.88,0,2.14,1.74,3.88,3.88,3.88,2.14,0,3.88-1.74,3.88-3.88S.04.23-2.1.23Z"/></g><circle class="uuid-551dbd44-046b-4c60-b686-f6fd5e9eaaf7" cx="68.49" cy="68.45" r="68.49"/><g class="uuid-61e47b66-ffb8-4e6b-93eb-3fe1a58ab4c7"><rect class="uuid-1a06e05b-8a1d-469c-8349-7c9db76f7965" x="74.07" y="20.95" width="16.39" height="382.54" rx="8.19" ry="8.19"/><rect class="uuid-1a06e05b-8a1d-469c-8349-7c9db76f7965" x="46.51" y="86.31" width="16.39" height="382.54" rx="8.19" ry="8.19"/><rect class="uuid-1a06e05b-8a1d-469c-8349-7c9db76f7965" x="101.64" y="51.78" width="16.39" height="382.54" rx="8.19" ry="8.19"/><rect class="uuid-1a06e05b-8a1d-469c-8349-7c9db76f7965" x="18.94" y="62.44" width="16.39" height="382.54" rx="8.19" ry="8.19"/></g></svg>