<?xml version="1.0" encoding="UTF-8"?><svg id="uuid-6e09852d-6f69-43e3-8146-36ad41f86d4b" xmlns="http://www.w3.org/2000/svg" viewBox="0 0 178.46 178.46"><defs><style>.uuid-b462c41e-8f45-418b-9e25-6bf01be1d3c0{fill:#fee9d0;opacity:.15;}</style></defs><path class="uuid-b462c41e-8f45-418b-9e25-6bf01be1d3c0" d="m89.23,0C39.95,0,0,39.95,0,89.23s39.95,89.23,89.23,89.23,89.23-39.95,89.23-89.23S138.51,0,89.23,0Zm-7.64,7.9c2.27.02,3.98,1.54,3.82,3.93.35,1.79-1.64,3.79-3.72,3.73-2.13-.06-3.88-1.72-3.9-3.8-.02-2.08,1.75-3.88,3.8-3.86Zm.09,17.21c2.2,0,3.73,1.55,3.73,3.79,0,2.32-1.49,3.86-3.75,3.86-2.08,0-3.86-1.72-3.87-3.76-.02-2.11,1.76-3.89,3.89-3.89Zm-.03,51.63c2.29.05,3.75,1.55,3.76,3.88,0,2.25-1.61,3.89-3.81,3.89-1.94,0-3.8-1.89-3.81-3.88,0-2.09,1.82-3.93,3.86-3.89Zm-3.86-13.23c-.02-2.18,1.59-3.86,3.72-3.87,2.54,0,3.88,1.29,3.9,3.77.01,2.24-1.58,3.85-3.81,3.85-1.93,0-3.8-1.83-3.81-3.75Zm7.63,33.87c0,2.66-1.46,4.41-3.78,4.36-1.78-.04-3.8-1.5-3.84-3.99-.03-2.07,1.61-3.61,3.8-3.6,2.32,0,3.82,1.27,3.82,3.24ZM61.32,10.08c1.34-.43,2.66-.94,3.99-1.4,1.62-.55,3,.4,3.1,2.13.02.3,0,.6,0,.89-.03,2.52-1.61,4-4.1,4.09-2.34.08-4.18-2.57-4.01-4.33.07-.72.31-1.16,1.02-1.39Zm3.13,126.2c-2.27,0-4.13-1.83-4.13-4.06,0-2.19,1.93-4.08,4.17-4.07,2.34,0,3.89,1.62,3.9,4.05,0,2.52-1.5,4.08-3.94,4.08Zm3.94,13.16c0,2.44-1.53,4.06-3.85,4.08-2.33.02-4.24-1.85-4.22-4.13.02-2.18,1.88-4,4.1-4.01,2.39-.01,3.97,1.6,3.97,4.06Zm-4-64.72c-2.09.01-4.08-2.01-4.07-4.16,0-2.02,1.74-3.92,3.59-3.91,3.19,0,4.48,1.16,4.48,3.99.43,2.18-1.86,4.07-4,4.08Zm.07,17.23c-2.13,0-4.13-1.97-4.14-4.09-.02-2.47,1.73-3.96,4.66-3.95,2.08,0,3.41,1.54,3.41,3.91.42,2.5-2.16,4.13-3.92,4.13Zm-4.15-55.67c-.02-2.25,1.74-4.1,3.94-4.12,2.76-.02,4.11,1.34,4.13,4.17.02,2.31-1.62,3.8-4.04,3.92-1.98.1-4.02-2.12-4.04-3.98Zm4.1-13.26c-2.2-.02-4.09-1.88-4.1-4.03-.01-2.24,1.85-4.1,4.1-4.1,2.41,0,3.97,1.59,3.97,4.06,0,2.48-1.58,4.11-3.97,4.08Zm-30.25-6.15c.67,2.19.61,4.08-1.1,5.51-1.43,1.2-3.06,1.81-4.97.7,1.85-2.2,3.89-4.16,6.07-6.21Zm-4.2,14.85c2.95,0,4.58,1.63,4.58,4.61,0,2.45-2.18,4.69-4.63,4.56-2.38-.13-4.63-2.22-4.57-4.8.05-2.49,1.98-4.36,4.62-4.36Zm-20.27,24.76c.81-2.53,1.63-5.06,2.48-7.58.17-.5.66-.39,1.07-.37,2.21.14,4.67,2.28,4.28,4.91.13,1.92-.77,3.26-2.34,4.16-1.61.92-3.26,1.01-4.89-.06-.41-.27-.77-.54-.6-1.06Zm3.05,9.27c3.1.02,5.15,2.54,4.78,4.85.41,2.47-2.1,4.88-4.7,4.84-2.68-.04-4.94-2.24-4.94-4.88,0-2.58,2.26-4.83,4.86-4.81Zm.66,44.13c-.79.12-1.37,0-1.7-.96-.74-2.15-1.46-4.29-2.1-6.47-.24-.82,0-1.17.6-1.53,1.64-1.01,3.37-.93,4.98-.1,1.63.84,2.52,2.28,2.33,4.14,0,2.64-1.59,4.53-4.11,4.91Zm4.11-22.08c.4,2.85-2.6,4.91-4.86,4.89-2.42-.02-4.83-2.53-4.79-4.91.05-2.62,2.21-4.79,4.87-4.81,2.99-.03,5.18,2.52,4.78,4.83Zm12.33-39.03c2.91.12,4.92,1.85,4.72,5.08-.15,2.38-2.21,4.19-4.8,4.11-2.43.13-4.59-2.67-4.42-4.91.16-2.18,2.3-4.38,4.5-4.29Zm.13,17.24c3.07.01,4.86,2.48,4.57,4.64,0,2.64-1.92,4.43-4.57,4.56-2.37.11-4.67-2.38-4.63-4.62.03-1.98,1.6-4.59,4.63-4.58Zm4.57,21.88c0,2.57-1.93,4.53-4.48,4.54-2.56.02-4.72-2.12-4.71-4.65,0-2.47,2.16-4.63,4.66-4.57,2.78.07,4.66,2.06,4.53,4.67Zm-4.55,12.57c2.76.16,4.56,1.86,4.55,4.66,0,2.65-2,4.57-4.73,4.56-2.33-.01-4.43-2.27-4.47-4.68-.04-2.46,2.46-4.67,4.65-4.54Zm4.24,40.9c-.13.31-.27.8-.77.33-2.06-1.93-4.04-3.93-5.87-6.1,1.88-1.05,4.11-.84,5.55.47,1.35,1.22,1.84,3.54,1.08,5.3Zm-4.25-14.44c-2.32.06-4.61-2.2-4.63-4.49-.02-2.71,1.92-4.66,4.65-4.69,2.72-.12,4.41,2,4.57,4.24.2,2.99-2.2,4.87-4.59,4.94Zm17.38-26.2c2.34.03,4.29,1.97,4.19,4.31-.11,2.78-1.91,4.35-4.48,4.37-2.14.01-4.14-1.81-4.25-4.45.01-2.3,2.12-4.27,4.53-4.23Zm-4.53-13c0-2.25,2.06-4.22,4.41-4.25,2.39-.02,4.46,2.03,4.31,4.41-.17,2.7-1.86,4.22-4.43,4.31-2.25.08-4.3-2.15-4.29-4.47Zm4.35-47.23c-2.25.12-4.39-2.31-4.36-4.32.04-1.97,1.89-4.55,4.38-4.22,2.62-.13,4.32,1.83,4.36,4.28.03,2.39-1.91,4.13-4.38,4.27Zm4.36,12.81c-.06,2.45-1.46,4.21-4.08,4.38-2.46.16-4.59-1.83-4.63-4.14-.04-2.5,1.82-4.32,4.45-4.35,2.45-.03,4.32,1.67,4.27,4.11Zm-4.73,13.14c2.97,0,4.84,1.57,4.73,4.16-.11,2.59-1.67,4.22-4.38,4.34-2.21.1-4.33-2.08-4.33-4.32,0-2.26,1.82-4.18,3.99-4.18Zm1.07,86.16c1.12-.04,1.96.45,2.48,1.42-.83-.47-1.65-.95-2.48-1.42Zm-.63-8.84c-2.38,0-4.41-1.95-4.42-4.25-.02-2.35,2.01-4.34,4.42-4.34,2.45,0,4.33,1.87,4.32,4.29,0,2.41-1.9,4.3-4.32,4.3Zm-.19-17.09c-2.07.11-4.22-2.26-4.23-4.42,0-2.32,2.03-4.36,4.38-4.31,2.88.06,4.37,2.25,4.36,4.29-.04,2.6-1.93,4.31-4.51,4.45Zm-.01-103.43c-2.3-.05-4.31-2.12-4.2-4.43.1-2.1,1.94-4.32,4.59-4.18,2.35.13,4.18,1.99,4.13,4.39-.05,2.44-2.01,4.27-4.53,4.22Zm20.21,136.43c-.78.74-1.63,1.1-2.73.63-.77-.33-1.6-.52-2.38-.86-1.54-.67-2.23-2.15-1.65-3.77.83-2.35,2.51-3.36,4.92-2.97,1.82.3,2.96,1.86,2.97,4.22.2,1.05-.3,1.97-1.12,2.75Zm1.12-54.68c-.01,2.46-1.67,4.3-4.01,4.2-1.89-.08-3.99-1.59-4.05-4.23-.04-2.05,1.97-4.07,3.96-4.02,2.69.06,4.48,1.99,4.1,4.05Zm-3.94-47.52c-2.16-.02-4.13-1.94-4.13-4.04,0-2.45,1.78-4.02,4.58-4.03,2.07,0,3.48,1.61,3.49,4.03.46,2.01-1.69,4.06-3.94,4.04Zm17.12,103.08c-1.68.1-3.88-2.04-3.79-3.92.1-2.09,1.76-3.78,3.89-3.78,2.25,0,3.76,1.51,3.75,3.76,0,2.38-1.52,3.79-3.85,3.93Zm.12-17.26c-2.1,0-3.89-1.75-3.9-3.8-.01-2.11,1.79-3.88,3.93-3.88,2.18,0,3.69,1.59,3.69,3.86,0,2.24-1.56,3.83-3.72,3.82Zm-.07-17.24c-2.07-.01-3.81-1.74-3.82-3.8-.01-2,1.73-3.87,3.7-3.84,2.38.04,4.04,1.39,3.92,3.91,0,2.23-1.53,3.74-3.8,3.73Zm.02-17.08c-1.95.14-3.87-2-3.84-4.09.03-1.99,1.91-3.76,3.96-3.73,2.16.03,3.67,1.64,3.66,3.89.33,2-1.52,3.77-3.78,3.93Zm3.78-72.78c.31,2.18-1.9,3.92-3.96,3.83-1.87-.08-3.67-1.93-3.66-3.89.02-2.09,1.73-3.75,3.86-3.78,2.21-.03,4.13,1.84,3.76,3.85Zm82.44,14.56c1.71,0,2.76,1.01,2.74,2.63-.01,1.56-1.2,2.75-2.76,2.77-1.55.02-2.87-1.26-2.88-2.79-.01-1.6,1.11-2.62,2.89-2.61Zm-.13,17.04c1.99.21,2.84,1.19,2.87,2.86-.03,1.53-1.27,2.74-2.8,2.73-1.56-.01-2.85-1.3-2.84-2.83,0-1.44,1.42-2.9,2.77-2.76Zm-17.32,23.05c-1.35,0-2.91-1.62-2.92-3.02-.01-1.59,1.59-3.09,3.23-3.03,1.64.06,2.89,1.42,2.86,3.1-.03,1.64-1.43,2.96-3.16,2.95Zm3.15,14.33c-.07,1.58-1.24,2.8-3.1,2.89-1.46.07-3.05-1.72-2.98-3.21.07-1.51,1.64-2.95,3.18-2.81,1.86.18,2.76,1.06,2.9,3.12Zm-5.37-88.06c.34-.5.67-.61,1.15-.12,1.02,1.03,2.06,2.05,3.14,3.01.6.53.47.89-.08,1.3-.56.41-1.18.61-1.9.57-1.31.04-2.15-.74-2.74-1.77-.6-1.05-.21-2.06.43-2.99Zm2.47,16.15c1.69,0,2.98,1.22,2.9,2.84-.11,2.1-1.47,3.02-3.02,3.01-1.6,0-3.08-1.47-3.05-2.97.03-1.66,1.37-2.88,3.17-2.87Zm2.91,20.02c-.1,2.14-1.59,3.13-3.23,3.07-1.39-.05-2.87-1.61-2.85-3.05.03-1.57,1.39-2.78,3.13-2.78,1.67-.35,3.02,1.42,2.95,2.77Zm-19.95-37.49c1.75.02,2.91,1.31,2.89,3.21-.02,1.9-1.32,3.12-3.27,3.1-1.73-.02-3.28-1.57-3.23-3.24.05-1.77,1.61-3.1,3.61-3.08Zm-.32,58.02c-1.65-.04-3.25-1.59-3.29-3.2-.04-1.67,1.68-3.32,3.43-3.28,1.81.04,3.08,1.43,3.07,3.37,0,1.77-1.44,3.16-3.21,3.12Zm3.21,13.95c0,1.94-1.34,3.3-3.25,3.29-1.72,0-3.11-1.61-3.23-3.23-.12-1.64,1.6-3.28,3.28-3.27,1.91.02,3.21,1.31,3.2,3.2Zm-3.29-31.18c-1.59.07-3.1-1.63-3.2-3.24-.1-1.68,1.48-3.06,3.37-3.06,2.04,0,3.11,1.09,3.11,3.17,0,1.85-1.34,3.04-3.29,3.13Zm-13.74-3.34c0,2.07-1.36,3.53-3.3,3.54-1.88.01-3.42-1.5-3.42-3.34,0-2.09,1.3-3.39,3.4-3.38,2.06,0,3.33,1.22,3.33,3.18Zm-3.42-13.7c-1.82,0-3.31-1.49-3.3-3.3,0-2.11,1.31-3.42,3.4-3.42,2.03,0,3.33,1.25,3.33,3.21,0,2.14-1.34,3.51-3.42,3.51Zm-3.3-20.6c0-1.95,1.42-3.4,3.35-3.41,1.98,0,3.38,1.36,3.37,3.31,0,2.04-1.38,3.48-3.33,3.48-1.92,0-3.38-1.46-3.39-3.39Zm3.48-20.65c2,.06,3.28,1.53,3.24,3.7-.04,1.83-1.5,3.12-3.5,3.09-1.79.22-3.36-1.94-3.25-3.49.14-1.89,1.6-3.35,3.51-3.3Zm-17.34,51.55c2.46,0,3.56,1.22,3.56,3.91,0,1.88-1.61,3.26-3.78,3.26-1.78,0-3.33-1.69-3.42-3.55-.08-1.7,1.53-4,3.64-3.62Zm-3.62-13.58c-.02-2.1,1.41-3.66,3.36-3.67,2.52-.01,3.79,1.17,3.81,3.56.02,2.2-1.39,3.6-3.62,3.61-1.93,0-3.54-1.58-3.56-3.5Zm3.64,30.83c2.12-.02,3.53,1.22,3.53,3.11,0,2.47-1.35,4.04-3.52,4.06-1.87.02-3.64-1.64-3.65-3.44-.02-2.39,1.28-3.71,3.64-3.73Zm-.14,17.04c2.37.12,3.93,1.61,3.67,3.68,0,2.15-1.51,3.69-3.59,3.7-1.97.01-3.59-1.74-3.58-3.89,0-1.81,1.72-3.58,3.5-3.49Zm3.67,38.04c0,2.21-1.6,3.86-3.72,3.83-1.72-.03-3.44-1.9-3.46-3.75-.01-2.03,1.55-3.69,3.55-3.67,2.33.02,3.89,1.73,3.62,3.59Zm-3.6-124.1c2.34.03,3.87,1.74,3.6,3.59,0,2.2-1.6,3.9-3.72,3.81-1.74-.07-3.6-2.03-3.49-3.79.12-2,1.6-3.64,3.6-3.61Zm.06,17.21c2.19.1,3.54,1.42,3.54,3.69.32,1.93-1.67,3.65-3.55,3.59-2.03-.07-3.51-1.6-3.65-3.6-.12-1.68,1.65-3.77,3.66-3.68Zm-.13,86.07c2.26.03,3.68,1.44,3.67,3.67-.01,2.12-1.54,3.71-3.57,3.73-1.97.02-3.55-1.8-3.63-3.93-.05-1.46,1.57-3.49,3.53-3.47Zm.21,58.95c-2.07,0-3.72-1.59-3.72-3.62,0-2.12,1.46-3.59,3.56-3.59,2.34,0,3.61,1.29,3.61,3.64.31,1.89-1.63,3.56-3.46,3.56Zm-.16-17.23c-2.02-.08-3.57-1.64-3.56-3.71.01-1.99,1.59-3.54,3.62-3.55,2.22,0,3.56,1.41,3.56,3.75.32,1.69-1.53,3.59-3.62,3.5Zm17.36-24.27c1.99.02,3.32,1.5,3.29,3.66-.03,1.86-1.47,3.15-3.47,3.12-1.8.24-3.42-1.93-3.28-3.58.14-1.76,1.6-3.23,3.47-3.21Zm3.29,20.63c0,1.98-1.37,3.4-3.3,3.4-1.93,0-3.41-1.43-3.42-3.35-.02-1.95,1.4-3.43,3.31-3.45,2.03-.02,3.41,1.35,3.41,3.39Zm-3.51,20.62c-1.74,0-3.13-1.52-3.24-3.27-.11-1.65,1.45-3.71,3.39-3.45,2.04,0,3.36,1.25,3.36,3.18,0,2.21-1.32,3.55-3.51,3.54Zm.03-51.52c-1.74-.02-3.26-1.76-3.25-3.72.02-1.77,1.58-3.26,3.39-3.23,2.05.03,3.35,1.44,3.34,3.61-.01,1.83-1.6,3.35-3.48,3.33Zm-.01-17.27c-1.71.01-3.23-1.64-3.23-3.51,0-2.19,1.32-3.23,4.06-3.21,1.48.01,2.67,1.46,2.67,3.24,0,2.03-1.44,3.46-3.49,3.48Zm-.04-17.22c-1.72-.02-3.2-1.64-3.19-3.49,0-1.97,1.34-3.23,3.42-3.23,2.13,0,3.31,1.17,3.31,3.28,0,2.04-1.47,3.47-3.53,3.44Zm14.61,81.25c.69-1.39,1.41-1.79,3.1-1.66-1.18.63-2.07,1.11-3.1,1.66Zm2.83-12.67c-1.81,0-3.4-1.5-3.37-3.2.02-1.47,1.61-3.41,3.36-3.11,1.97,0,3.16,1.2,3.14,3.19-.02,1.86-1.27,3.12-3.12,3.12Zm-.15-17.08c-1.53.09-3.27-1.84-3.22-3.4.05-1.7,1.62-3.13,3.42-3.11,1.88.02,3.09,1.32,3.08,3.31.17,1.57-1.17,3.08-3.28,3.2Zm3.28-20.46c0,1.85-1.43,3.23-3.33,3.22-1.48,0-3.15-1.75-3.17-3.31-.02-1.63,1.64-3.19,3.37-3.2,1.76-.01,3.4,1.57,3.13,3.29Zm-3.18-65.7c-2.04-.03-3.22-1.86-3.3-3.15-.1-1.76,1.46-3.17,3.38-3.17s2.99,1.14,3.13,2.97c.14,1.91-1.55,3.38-3.21,3.36Zm17.35,28.39c1.68-.04,2.84,1.03,2.89,2.67.06,1.74-1.27,3.13-3.01,3.16-1.48.02-3.03-1.46-3.07-2.94-.04-1.68,1.24-2.84,3.19-2.89Zm1.74,71.42c-.85.84-1.73,1.65-2.55,2.51-.44.46-.77.42-1.22.03-1.05-.89-1.4-2.01-.95-3.24.45-1.24,1.56-2,2.97-1.99.47-.03.96.08,1.43.36,1.29.76,1.37,1.29.32,2.33Zm-1.92-13.87c-1.42.1-3.05-1.69-3.01-3.16.04-1.51,1.54-2.91,3.13-2.9,1.68,0,2.97,1.32,2.96,3-.03,1.93-1.52,2.95-3.07,3.06Zm15.05-3.44c-.09.15-.2.37-.41.27-.25-.12-.19-.37-.1-.56.31-.71.63-1.41,1.73-1.88-.51.91-.85,1.55-1.21,2.17Zm2.06-14.01c-1.28-.02-2.65-1.49-2.65-2.82,0-1.55,1.32-2.92,2.85-2.8,1.83.14,2.67,1.02,2.77,2.82.09,1.55-1.34,2.83-2.97,2.8Zm.08-17.25c-1.33,0-2.69-1.36-2.72-2.72-.04-1.54,1.22-2.85,2.76-2.88,1.64-.03,2.86,1.13,2.88,2.74.02,1.62-1.24,2.85-2.92,2.86Z"/></svg>