<?xml version="1.0" encoding="UTF-8"?><svg id="uuid-4428fcd8-d0ea-4776-971b-df69f18addd1" xmlns="http://www.w3.org/2000/svg" xmlns:xlink="http://www.w3.org/1999/xlink" viewBox="0 0 136.97 136.9"><defs><style>.uuid-8b77f7d3-ec9b-4e19-9586-0270a86ba8a9{fill:none;}.uuid-6523ec0c-2c74-41e4-9e63-434b46359fbe{clip-path:url(#uuid-9239f892-0f09-4af3-a241-095b07bb8fe8);}.uuid-cd12e5c8-5057-4a1a-96d8-3c130572ece2{fill:#feebd1;}.uuid-284771d9-d38c-486f-8b6d-4cf5132b2373{fill:#95c4b3;}</style><clipPath id="uuid-9239f892-0f09-4af3-a241-095b07bb8fe8"><circle class="uuid-8b77f7d3-ec9b-4e19-9586-0270a86ba8a9" cx="267.85" cy="68.47" r="68.49"/></clipPath></defs><circle class="uuid-284771d9-d38c-486f-8b6d-4cf5132b2373" cx="68.49" cy="68.45" r="68.49"/><path class="uuid-cd12e5c8-5057-4a1a-96d8-3c130572ece2" d="m63.35,10.72v56.64c0,4.05,3.29,7.34,7.34,7.34h55.82s0,0,0,0c.44-35.26-28.01-63.98-63.16-63.98Z"/><g class="uuid-6523ec0c-2c74-41e4-9e63-434b46359fbe"><circle class="uuid-cd12e5c8-5057-4a1a-96d8-3c130572ece2" cx="136.46" cy="129.76" r="2.23"/><path class="uuid-cd12e5c8-5057-4a1a-96d8-3c130572ece2" d="m136.46,113.51c-1.32,0-2.38,1.07-2.38,2.38s1.07,2.38,2.38,2.38c1.32,0,2.38-1.07,2.38-2.38,0-1.32-1.07-2.38-2.38-2.38Z"/><path class="uuid-cd12e5c8-5057-4a1a-96d8-3c130572ece2" d="m136.46,99.46c-1.42,0-2.58,1.15-2.58,2.58,0,1.42,1.15,2.58,2.58,2.58s2.58-1.15,2.58-2.58c0-1.42-1.15-2.58-2.58-2.58Z"/><path class="uuid-cd12e5c8-5057-4a1a-96d8-3c130572ece2" d="m136.46,85.44c-1.51,0-2.73,1.22-2.73,2.73,0,1.51,1.22,2.73,2.73,2.73s2.73-1.22,2.73-2.73-1.22-2.73-2.73-2.73Z"/><path class="uuid-cd12e5c8-5057-4a1a-96d8-3c130572ece2" d="m136.46,71.38c-1.61,0-2.92,1.31-2.92,2.92s1.31,2.92,2.92,2.92c1.61,0,2.92-1.31,2.92-2.92,0-1.61-1.31-2.92-2.92-2.92Z"/><path class="uuid-cd12e5c8-5057-4a1a-96d8-3c130572ece2" d="m136.46,57.36c-1.7,0-3.08,1.38-3.08,3.08,0,1.7,1.38,3.08,3.08,3.08,1.7,0,3.08-1.38,3.08-3.08s-1.38-3.08-3.08-3.08Z"/><path class="uuid-cd12e5c8-5057-4a1a-96d8-3c130572ece2" d="m136.46,43.31c-1.8,0-3.27,1.46-3.27,3.27s1.46,3.27,3.27,3.27c1.81,0,3.27-1.46,3.27-3.27,0-1.8-1.46-3.27-3.27-3.27Z"/><path class="uuid-cd12e5c8-5057-4a1a-96d8-3c130572ece2" d="m136.46,29.25c-1.91,0-3.46,1.55-3.46,3.46,0,1.91,1.55,3.46,3.46,3.46,1.91,0,3.46-1.55,3.46-3.46s-1.55-3.46-3.46-3.46Z"/><path class="uuid-cd12e5c8-5057-4a1a-96d8-3c130572ece2" d="m136.46,15.15c-2.04,0-3.69,1.65-3.69,3.69s1.65,3.69,3.69,3.69c2.04,0,3.69-1.65,3.69-3.69s-1.65-3.69-3.69-3.69Z"/><path class="uuid-cd12e5c8-5057-4a1a-96d8-3c130572ece2" d="m136.46,1.1c-2.14,0-3.88,1.74-3.88,3.88,0,2.14,1.74,3.88,3.88,3.88s3.88-1.74,3.88-3.88c0-2.14-1.74-3.88-3.88-3.88Z"/></g></svg>