<?xml version="1.0" encoding="UTF-8"?><svg id="uuid-bab9e4e7-35ba-4083-8419-99dd7c3c3cb6" xmlns="http://www.w3.org/2000/svg" xmlns:xlink="http://www.w3.org/1999/xlink" viewBox="0 0 136.97 136.9"><defs><style>.uuid-7ed2e575-c149-4c55-8557-e83cd0e91cfc{fill:none;}.uuid-81276582-5f9c-4ef9-a566-7cd70c819815{fill:#ed6e4f;}.uuid-18a8cebc-d65e-4c6c-bb1f-74d54359fc1d{fill:#feebd1;}.uuid-fe4ddd3f-944f-41c8-abb2-056fddf0c1bf{clip-path:url(#uuid-205f1762-411a-4a1c-b0de-87fabeba3e10);}</style><clipPath id="uuid-205f1762-411a-4a1c-b0de-87fabeba3e10"><circle class="uuid-7ed2e575-c149-4c55-8557-e83cd0e91cfc" cx="68.49" cy="68.45" r="68.49"/></clipPath></defs><circle class="uuid-81276582-5f9c-4ef9-a566-7cd70c819815" cx="68.49" cy="68.45" r="68.49"/><g class="uuid-fe4ddd3f-944f-41c8-abb2-056fddf0c1bf"><circle class="uuid-18a8cebc-d65e-4c6c-bb1f-74d54359fc1d" cx="131.2" cy="129.74" r="2.23"/><circle class="uuid-18a8cebc-d65e-4c6c-bb1f-74d54359fc1d" cx="117.34" cy="129.74" r="2.23"/><circle class="uuid-18a8cebc-d65e-4c6c-bb1f-74d54359fc1d" cx="103.47" cy="129.74" r="2.23"/><circle class="uuid-18a8cebc-d65e-4c6c-bb1f-74d54359fc1d" cx="89.61" cy="129.74" r="2.23"/><circle class="uuid-18a8cebc-d65e-4c6c-bb1f-74d54359fc1d" cx="75.74" cy="129.74" r="2.23"/><circle class="uuid-18a8cebc-d65e-4c6c-bb1f-74d54359fc1d" cx="61.88" cy="129.74" r="2.23"/><circle class="uuid-18a8cebc-d65e-4c6c-bb1f-74d54359fc1d" cx="48.02" cy="129.74" r="2.23"/><circle class="uuid-18a8cebc-d65e-4c6c-bb1f-74d54359fc1d" cx="34.15" cy="129.74" r="2.23"/><circle class="uuid-18a8cebc-d65e-4c6c-bb1f-74d54359fc1d" cx="20.29" cy="129.74" r="2.23"/><circle class="uuid-18a8cebc-d65e-4c6c-bb1f-74d54359fc1d" cx="6.42" cy="129.74" r="2.23"/><path class="uuid-18a8cebc-d65e-4c6c-bb1f-74d54359fc1d" d="m131.2,113.49c-1.32,0-2.38,1.07-2.38,2.38,0,1.32,1.07,2.38,2.38,2.38s2.38-1.07,2.38-2.38-1.07-2.38-2.38-2.38Z"/><path class="uuid-18a8cebc-d65e-4c6c-bb1f-74d54359fc1d" d="m117.34,113.49c-1.32,0-2.38,1.07-2.38,2.38,0,1.32,1.07,2.38,2.38,2.38s2.38-1.07,2.38-2.38-1.07-2.38-2.38-2.38Z"/><path class="uuid-18a8cebc-d65e-4c6c-bb1f-74d54359fc1d" d="m103.47,113.49c-1.32,0-2.38,1.07-2.38,2.38,0,1.32,1.07,2.38,2.38,2.38s2.38-1.07,2.38-2.38c0-1.32-1.07-2.38-2.38-2.38Z"/><path class="uuid-18a8cebc-d65e-4c6c-bb1f-74d54359fc1d" d="m89.61,113.49c-1.32,0-2.38,1.07-2.38,2.38s1.07,2.38,2.38,2.38,2.38-1.07,2.38-2.38c0-1.32-1.07-2.38-2.38-2.38Z"/><path class="uuid-18a8cebc-d65e-4c6c-bb1f-74d54359fc1d" d="m75.74,113.49c-1.32,0-2.38,1.07-2.38,2.38,0,1.32,1.07,2.38,2.38,2.38,1.32,0,2.38-1.07,2.38-2.38,0-1.32-1.07-2.38-2.38-2.38Z"/><path class="uuid-18a8cebc-d65e-4c6c-bb1f-74d54359fc1d" d="m61.88,113.49c-1.32,0-2.38,1.07-2.38,2.38,0,1.32,1.07,2.38,2.38,2.38,1.32,0,2.38-1.07,2.38-2.38s-1.07-2.38-2.38-2.38Z"/><path class="uuid-18a8cebc-d65e-4c6c-bb1f-74d54359fc1d" d="m48.02,113.49c-1.32,0-2.38,1.07-2.38,2.38s1.07,2.38,2.38,2.38,2.38-1.07,2.38-2.38c0-1.32-1.07-2.38-2.38-2.38Z"/><path class="uuid-18a8cebc-d65e-4c6c-bb1f-74d54359fc1d" d="m34.15,113.49c-1.32,0-2.38,1.07-2.38,2.38,0,1.32,1.07,2.38,2.38,2.38s2.38-1.07,2.38-2.38-1.07-2.38-2.38-2.38Z"/><path class="uuid-18a8cebc-d65e-4c6c-bb1f-74d54359fc1d" d="m20.29,113.49c-1.32,0-2.38,1.07-2.38,2.38s1.07,2.38,2.38,2.38c1.32,0,2.38-1.07,2.38-2.38,0-1.32-1.07-2.38-2.38-2.38Z"/><path class="uuid-18a8cebc-d65e-4c6c-bb1f-74d54359fc1d" d="m6.42,113.49c-1.32,0-2.38,1.07-2.38,2.38s1.07,2.38,2.38,2.38c1.32,0,2.38-1.07,2.38-2.38s-1.07-2.38-2.38-2.38Z"/><path class="uuid-18a8cebc-d65e-4c6c-bb1f-74d54359fc1d" d="m131.2,99.44c-1.42,0-2.58,1.15-2.58,2.58s1.15,2.58,2.58,2.58,2.58-1.15,2.58-2.58c0-1.42-1.15-2.58-2.58-2.58Z"/><path class="uuid-18a8cebc-d65e-4c6c-bb1f-74d54359fc1d" d="m117.34,99.44c-1.42,0-2.58,1.15-2.58,2.58,0,1.42,1.15,2.58,2.58,2.58,1.42,0,2.58-1.15,2.58-2.58s-1.15-2.58-2.58-2.58Z"/><path class="uuid-18a8cebc-d65e-4c6c-bb1f-74d54359fc1d" d="m103.47,99.44c-1.42,0-2.58,1.15-2.58,2.58,0,1.42,1.15,2.58,2.58,2.58s2.58-1.15,2.58-2.58c0-1.42-1.15-2.58-2.58-2.58Z"/><path class="uuid-18a8cebc-d65e-4c6c-bb1f-74d54359fc1d" d="m89.61,99.44c-1.42,0-2.58,1.15-2.58,2.58s1.15,2.58,2.58,2.58,2.58-1.15,2.58-2.58c0-1.42-1.15-2.58-2.58-2.58Z"/><path class="uuid-18a8cebc-d65e-4c6c-bb1f-74d54359fc1d" d="m75.74,99.44c-1.42,0-2.58,1.15-2.58,2.58s1.15,2.58,2.58,2.58c1.42,0,2.58-1.15,2.58-2.58s-1.15-2.58-2.58-2.58Z"/><path class="uuid-18a8cebc-d65e-4c6c-bb1f-74d54359fc1d" d="m61.88,99.44c-1.42,0-2.58,1.15-2.58,2.58,0,1.42,1.15,2.58,2.58,2.58,1.42,0,2.58-1.15,2.58-2.58,0-1.42-1.15-2.58-2.58-2.58Z"/><path class="uuid-18a8cebc-d65e-4c6c-bb1f-74d54359fc1d" d="m48.02,99.44c-1.42,0-2.58,1.15-2.58,2.58s1.15,2.58,2.58,2.58c1.42,0,2.58-1.15,2.58-2.58,0-1.42-1.15-2.58-2.58-2.58Z"/><path class="uuid-18a8cebc-d65e-4c6c-bb1f-74d54359fc1d" d="m34.15,99.44c-1.42,0-2.58,1.15-2.58,2.58,0,1.42,1.15,2.58,2.58,2.58s2.58-1.15,2.58-2.58c0-1.42-1.15-2.58-2.58-2.58Z"/><path class="uuid-18a8cebc-d65e-4c6c-bb1f-74d54359fc1d" d="m20.29,99.44c-1.42,0-2.58,1.15-2.58,2.58,0,1.42,1.15,2.58,2.58,2.58s2.58-1.15,2.58-2.58c0-1.42-1.15-2.58-2.58-2.58Z"/><path class="uuid-18a8cebc-d65e-4c6c-bb1f-74d54359fc1d" d="m6.42,99.44c-1.42,0-2.58,1.15-2.58,2.58,0,1.42,1.15,2.58,2.58,2.58s2.58-1.15,2.58-2.58c0-1.42-1.15-2.58-2.58-2.58Z"/><path class="uuid-18a8cebc-d65e-4c6c-bb1f-74d54359fc1d" d="m131.2,85.42c-1.51,0-2.73,1.22-2.73,2.73s1.22,2.73,2.73,2.73,2.73-1.22,2.73-2.73c0-1.51-1.22-2.73-2.73-2.73Z"/><path class="uuid-18a8cebc-d65e-4c6c-bb1f-74d54359fc1d" d="m117.34,85.42c-1.51,0-2.73,1.22-2.73,2.73,0,1.51,1.22,2.73,2.73,2.73s2.73-1.22,2.73-2.73-1.22-2.73-2.73-2.73Z"/><path class="uuid-18a8cebc-d65e-4c6c-bb1f-74d54359fc1d" d="m103.47,85.42c-1.51,0-2.73,1.22-2.73,2.73,0,1.51,1.22,2.73,2.73,2.73s2.73-1.22,2.73-2.73-1.22-2.73-2.73-2.73Z"/><path class="uuid-18a8cebc-d65e-4c6c-bb1f-74d54359fc1d" d="m89.61,85.42c-1.51,0-2.73,1.22-2.73,2.73s1.22,2.73,2.73,2.73c1.51,0,2.73-1.22,2.73-2.73s-1.22-2.73-2.73-2.73Z"/><path class="uuid-18a8cebc-d65e-4c6c-bb1f-74d54359fc1d" d="m75.74,85.42c-1.51,0-2.73,1.22-2.73,2.73s1.22,2.73,2.73,2.73,2.73-1.22,2.73-2.73-1.22-2.73-2.73-2.73Z"/><path class="uuid-18a8cebc-d65e-4c6c-bb1f-74d54359fc1d" d="m61.88,85.42c-1.51,0-2.73,1.22-2.73,2.73s1.22,2.73,2.73,2.73c1.51,0,2.73-1.22,2.73-2.73,0-1.51-1.22-2.73-2.73-2.73Z"/><path class="uuid-18a8cebc-d65e-4c6c-bb1f-74d54359fc1d" d="m48.02,85.42c-1.51,0-2.73,1.22-2.73,2.73,0,1.51,1.22,2.73,2.73,2.73,1.51,0,2.73-1.22,2.73-2.73,0-1.51-1.22-2.73-2.73-2.73Z"/><path class="uuid-18a8cebc-d65e-4c6c-bb1f-74d54359fc1d" d="m34.15,85.42c-1.51,0-2.73,1.22-2.73,2.73s1.22,2.73,2.73,2.73,2.73-1.22,2.73-2.73-1.22-2.73-2.73-2.73Z"/><path class="uuid-18a8cebc-d65e-4c6c-bb1f-74d54359fc1d" d="m20.29,85.42c-1.51,0-2.73,1.22-2.73,2.73,0,1.51,1.22,2.73,2.73,2.73s2.73-1.22,2.73-2.73c0-1.51-1.22-2.73-2.73-2.73Z"/><path class="uuid-18a8cebc-d65e-4c6c-bb1f-74d54359fc1d" d="m6.42,85.42c-1.51,0-2.73,1.22-2.73,2.73s1.22,2.73,2.73,2.73c1.51,0,2.73-1.22,2.73-2.73,0-1.51-1.22-2.73-2.73-2.73Z"/><path class="uuid-18a8cebc-d65e-4c6c-bb1f-74d54359fc1d" d="m131.2,71.36c-1.61,0-2.92,1.31-2.92,2.92,0,1.61,1.31,2.92,2.92,2.92,1.61,0,2.92-1.31,2.92-2.92,0-1.61-1.31-2.92-2.92-2.92Z"/><path class="uuid-18a8cebc-d65e-4c6c-bb1f-74d54359fc1d" d="m117.34,71.36c-1.61,0-2.92,1.31-2.92,2.92,0,1.61,1.31,2.92,2.92,2.92s2.92-1.31,2.92-2.92c0-1.61-1.31-2.92-2.92-2.92Z"/><path class="uuid-18a8cebc-d65e-4c6c-bb1f-74d54359fc1d" d="m103.47,71.36c-1.61,0-2.92,1.31-2.92,2.92s1.31,2.92,2.92,2.92c1.61,0,2.92-1.31,2.92-2.92,0-1.61-1.31-2.92-2.92-2.92Z"/><path class="uuid-18a8cebc-d65e-4c6c-bb1f-74d54359fc1d" d="m89.61,71.36c-1.61,0-2.92,1.31-2.92,2.92s1.31,2.92,2.92,2.92,2.92-1.31,2.92-2.92-1.31-2.92-2.92-2.92Z"/><path class="uuid-18a8cebc-d65e-4c6c-bb1f-74d54359fc1d" d="m75.74,71.36c-1.61,0-2.92,1.31-2.92,2.92s1.31,2.92,2.92,2.92,2.92-1.31,2.92-2.92c0-1.61-1.31-2.92-2.92-2.92Z"/><path class="uuid-18a8cebc-d65e-4c6c-bb1f-74d54359fc1d" d="m61.88,71.36c-1.61,0-2.92,1.31-2.92,2.92s1.31,2.92,2.92,2.92,2.92-1.31,2.92-2.92c0-1.61-1.31-2.92-2.92-2.92Z"/><path class="uuid-18a8cebc-d65e-4c6c-bb1f-74d54359fc1d" d="m48.02,71.36c-1.61,0-2.92,1.31-2.92,2.92,0,1.61,1.31,2.92,2.92,2.92s2.92-1.31,2.92-2.92c0-1.61-1.31-2.92-2.92-2.92Z"/><path class="uuid-18a8cebc-d65e-4c6c-bb1f-74d54359fc1d" d="m34.15,71.36c-1.61,0-2.92,1.31-2.92,2.92s1.31,2.92,2.92,2.92,2.92-1.31,2.92-2.92c0-1.61-1.31-2.92-2.92-2.92Z"/><path class="uuid-18a8cebc-d65e-4c6c-bb1f-74d54359fc1d" d="m20.29,71.36c-1.61,0-2.92,1.31-2.92,2.92,0,1.61,1.31,2.92,2.92,2.92,1.61,0,2.92-1.31,2.92-2.92,0-1.61-1.31-2.92-2.92-2.92Z"/><path class="uuid-18a8cebc-d65e-4c6c-bb1f-74d54359fc1d" d="m6.42,71.36c-1.61,0-2.92,1.31-2.92,2.92,0,1.61,1.31,2.92,2.92,2.92s2.92-1.31,2.92-2.92c0-1.61-1.31-2.92-2.92-2.92Z"/><path class="uuid-18a8cebc-d65e-4c6c-bb1f-74d54359fc1d" d="m131.2,57.35c-1.7,0-3.08,1.38-3.08,3.08,0,1.7,1.38,3.08,3.08,3.08s3.08-1.38,3.08-3.08c0-1.7-1.38-3.08-3.08-3.08Z"/><path class="uuid-18a8cebc-d65e-4c6c-bb1f-74d54359fc1d" d="m117.34,57.35c-1.7,0-3.08,1.38-3.08,3.08,0,1.7,1.38,3.08,3.08,3.08,1.7,0,3.08-1.38,3.08-3.08,0-1.7-1.38-3.08-3.08-3.08Z"/><path class="uuid-18a8cebc-d65e-4c6c-bb1f-74d54359fc1d" d="m103.47,57.35c-1.7,0-3.08,1.38-3.08,3.08,0,1.7,1.38,3.08,3.08,3.08s3.08-1.38,3.08-3.08c0-1.7-1.38-3.08-3.08-3.08Z"/><path class="uuid-18a8cebc-d65e-4c6c-bb1f-74d54359fc1d" d="m89.61,57.35c-1.7,0-3.08,1.38-3.08,3.08,0,1.7,1.38,3.08,3.08,3.08s3.08-1.38,3.08-3.08-1.38-3.08-3.08-3.08Z"/><path class="uuid-18a8cebc-d65e-4c6c-bb1f-74d54359fc1d" d="m75.74,57.35c-1.7,0-3.08,1.38-3.08,3.08s1.38,3.08,3.08,3.08,3.08-1.38,3.08-3.08c0-1.7-1.38-3.08-3.08-3.08Z"/><path class="uuid-18a8cebc-d65e-4c6c-bb1f-74d54359fc1d" d="m61.88,57.35c-1.7,0-3.08,1.38-3.08,3.08s1.38,3.08,3.08,3.08,3.08-1.38,3.08-3.08c0-1.7-1.38-3.08-3.08-3.08Z"/><path class="uuid-18a8cebc-d65e-4c6c-bb1f-74d54359fc1d" d="m48.02,57.35c-1.7,0-3.08,1.38-3.08,3.08,0,1.7,1.38,3.08,3.08,3.08s3.08-1.38,3.08-3.08-1.38-3.08-3.08-3.08Z"/><path class="uuid-18a8cebc-d65e-4c6c-bb1f-74d54359fc1d" d="m34.15,57.35c-1.7,0-3.08,1.38-3.08,3.08,0,1.7,1.38,3.08,3.08,3.08,1.7,0,3.08-1.38,3.08-3.08,0-1.7-1.38-3.08-3.08-3.08Z"/><path class="uuid-18a8cebc-d65e-4c6c-bb1f-74d54359fc1d" d="m20.29,57.35c-1.7,0-3.08,1.38-3.08,3.08,0,1.7,1.38,3.08,3.08,3.08s3.08-1.38,3.08-3.08c0-1.7-1.38-3.08-3.08-3.08Z"/><path class="uuid-18a8cebc-d65e-4c6c-bb1f-74d54359fc1d" d="m6.42,57.35c-1.7,0-3.08,1.38-3.08,3.08,0,1.7,1.38,3.08,3.08,3.08s3.08-1.38,3.08-3.08c0-1.7-1.38-3.08-3.08-3.08Z"/><path class="uuid-18a8cebc-d65e-4c6c-bb1f-74d54359fc1d" d="m131.2,43.29c-1.8,0-3.27,1.46-3.27,3.27,0,1.8,1.46,3.27,3.27,3.27,1.81,0,3.27-1.46,3.27-3.27s-1.46-3.27-3.27-3.27Z"/><path class="uuid-18a8cebc-d65e-4c6c-bb1f-74d54359fc1d" d="m117.34,43.29c-1.8,0-3.27,1.46-3.27,3.27,0,1.8,1.46,3.27,3.27,3.27s3.27-1.46,3.27-3.27c0-1.8-1.46-3.27-3.27-3.27Z"/><path class="uuid-18a8cebc-d65e-4c6c-bb1f-74d54359fc1d" d="m103.47,43.29c-1.8,0-3.27,1.46-3.27,3.27s1.46,3.27,3.27,3.27c1.81,0,3.27-1.46,3.27-3.27s-1.46-3.27-3.27-3.27Z"/><path class="uuid-18a8cebc-d65e-4c6c-bb1f-74d54359fc1d" d="m89.61,43.29c-1.8,0-3.27,1.46-3.27,3.27s1.46,3.27,3.27,3.27,3.27-1.46,3.27-3.27c0-1.8-1.46-3.27-3.27-3.27Z"/><path class="uuid-18a8cebc-d65e-4c6c-bb1f-74d54359fc1d" d="m75.74,43.29c-1.8,0-3.27,1.46-3.27,3.27,0,1.8,1.46,3.27,3.27,3.27s3.27-1.46,3.27-3.27c0-1.8-1.46-3.27-3.27-3.27Z"/><path class="uuid-18a8cebc-d65e-4c6c-bb1f-74d54359fc1d" d="m61.88,43.29c-1.8,0-3.27,1.46-3.27,3.27s1.46,3.27,3.27,3.27c1.81,0,3.27-1.46,3.27-3.27s-1.46-3.27-3.27-3.27Z"/><path class="uuid-18a8cebc-d65e-4c6c-bb1f-74d54359fc1d" d="m48.02,43.29c-1.8,0-3.27,1.46-3.27,3.27s1.46,3.27,3.27,3.27c1.81,0,3.27-1.46,3.27-3.27,0-1.8-1.46-3.27-3.27-3.27Z"/><path class="uuid-18a8cebc-d65e-4c6c-bb1f-74d54359fc1d" d="m34.15,43.29c-1.8,0-3.27,1.46-3.27,3.27,0,1.8,1.46,3.27,3.27,3.27s3.27-1.46,3.27-3.27c0-1.8-1.46-3.27-3.27-3.27Z"/><path class="uuid-18a8cebc-d65e-4c6c-bb1f-74d54359fc1d" d="m20.29,43.29c-1.8,0-3.27,1.46-3.27,3.27s1.46,3.27,3.27,3.27,3.27-1.46,3.27-3.27c0-1.8-1.46-3.27-3.27-3.27Z"/><path class="uuid-18a8cebc-d65e-4c6c-bb1f-74d54359fc1d" d="m6.42,43.29c-1.8,0-3.27,1.46-3.27,3.27,0,1.8,1.46,3.27,3.27,3.27s3.27-1.46,3.27-3.27c0-1.8-1.46-3.27-3.27-3.27Z"/><path class="uuid-18a8cebc-d65e-4c6c-bb1f-74d54359fc1d" d="m131.2,29.23c-1.91,0-3.46,1.55-3.46,3.46s1.55,3.46,3.46,3.46c1.91,0,3.46-1.55,3.46-3.46s-1.55-3.46-3.46-3.46Z"/><path class="uuid-18a8cebc-d65e-4c6c-bb1f-74d54359fc1d" d="m117.34,29.23c-1.91,0-3.46,1.55-3.46,3.46s1.55,3.46,3.46,3.46c1.91,0,3.46-1.55,3.46-3.46s-1.55-3.46-3.46-3.46Z"/><path class="uuid-18a8cebc-d65e-4c6c-bb1f-74d54359fc1d" d="m103.47,29.23c-1.91,0-3.46,1.55-3.46,3.46s1.55,3.46,3.46,3.46,3.46-1.55,3.46-3.46c0-1.91-1.55-3.46-3.46-3.46Z"/><path class="uuid-18a8cebc-d65e-4c6c-bb1f-74d54359fc1d" d="m89.61,29.23c-1.91,0-3.46,1.55-3.46,3.46,0,1.91,1.55,3.46,3.46,3.46,1.91,0,3.46-1.55,3.46-3.46,0-1.91-1.55-3.46-3.46-3.46Z"/><path class="uuid-18a8cebc-d65e-4c6c-bb1f-74d54359fc1d" d="m75.74,29.23c-1.91,0-3.46,1.55-3.46,3.46,0,1.91,1.55,3.46,3.46,3.46,1.91,0,3.46-1.55,3.46-3.46,0-1.91-1.55-3.46-3.46-3.46Z"/><path class="uuid-18a8cebc-d65e-4c6c-bb1f-74d54359fc1d" d="m61.88,29.23c-1.91,0-3.46,1.55-3.46,3.46s1.55,3.46,3.46,3.46c1.91,0,3.46-1.55,3.46-3.46,0-1.91-1.55-3.46-3.46-3.46Z"/><path class="uuid-18a8cebc-d65e-4c6c-bb1f-74d54359fc1d" d="m48.02,29.23c-1.91,0-3.46,1.55-3.46,3.46,0,1.91,1.55,3.46,3.46,3.46,1.91,0,3.46-1.55,3.46-3.46,0-1.91-1.55-3.46-3.46-3.46Z"/><path class="uuid-18a8cebc-d65e-4c6c-bb1f-74d54359fc1d" d="m34.15,29.23c-1.91,0-3.46,1.55-3.46,3.46,0,1.91,1.55,3.46,3.46,3.46,1.91,0,3.46-1.55,3.46-3.46,0-1.91-1.55-3.46-3.46-3.46Z"/><path class="uuid-18a8cebc-d65e-4c6c-bb1f-74d54359fc1d" d="m20.29,29.23c-1.91,0-3.46,1.55-3.46,3.46,0,1.91,1.55,3.46,3.46,3.46s3.46-1.55,3.46-3.46-1.55-3.46-3.46-3.46Z"/><path class="uuid-18a8cebc-d65e-4c6c-bb1f-74d54359fc1d" d="m6.42,29.23c-1.91,0-3.46,1.55-3.46,3.46,0,1.91,1.55,3.46,3.46,3.46s3.46-1.55,3.46-3.46-1.55-3.46-3.46-3.46Z"/><path class="uuid-18a8cebc-d65e-4c6c-bb1f-74d54359fc1d" d="m131.2,15.14c-2.04,0-3.69,1.65-3.69,3.69,0,2.04,1.65,3.69,3.69,3.69,2.04,0,3.69-1.65,3.69-3.69,0-2.04-1.65-3.69-3.69-3.69Z"/><path class="uuid-18a8cebc-d65e-4c6c-bb1f-74d54359fc1d" d="m117.34,15.14c-2.04,0-3.69,1.65-3.69,3.69,0,2.04,1.65,3.69,3.69,3.69s3.69-1.65,3.69-3.69c0-2.04-1.65-3.69-3.69-3.69Z"/><path class="uuid-18a8cebc-d65e-4c6c-bb1f-74d54359fc1d" d="m103.47,15.14c-2.04,0-3.69,1.65-3.69,3.69,0,2.04,1.65,3.69,3.69,3.69s3.69-1.65,3.69-3.69c0-2.04-1.65-3.69-3.69-3.69Z"/><path class="uuid-18a8cebc-d65e-4c6c-bb1f-74d54359fc1d" d="m89.61,15.14c-2.04,0-3.69,1.65-3.69,3.69s1.65,3.69,3.69,3.69,3.69-1.65,3.69-3.69-1.65-3.69-3.69-3.69Z"/><path class="uuid-18a8cebc-d65e-4c6c-bb1f-74d54359fc1d" d="m75.74,15.14c-2.04,0-3.69,1.65-3.69,3.69s1.65,3.69,3.69,3.69c2.04,0,3.69-1.65,3.69-3.69s-1.65-3.69-3.69-3.69Z"/><path class="uuid-18a8cebc-d65e-4c6c-bb1f-74d54359fc1d" d="m61.88,15.14c-2.04,0-3.69,1.65-3.69,3.69,0,2.04,1.65,3.69,3.69,3.69s3.69-1.65,3.69-3.69-1.65-3.69-3.69-3.69Z"/><path class="uuid-18a8cebc-d65e-4c6c-bb1f-74d54359fc1d" d="m48.02,15.14c-2.04,0-3.69,1.65-3.69,3.69,0,2.04,1.65,3.69,3.69,3.69s3.69-1.65,3.69-3.69-1.65-3.69-3.69-3.69Z"/><path class="uuid-18a8cebc-d65e-4c6c-bb1f-74d54359fc1d" d="m34.15,15.14c-2.04,0-3.69,1.65-3.69,3.69,0,2.04,1.65,3.69,3.69,3.69,2.04,0,3.69-1.65,3.69-3.69s-1.65-3.69-3.69-3.69Z"/><path class="uuid-18a8cebc-d65e-4c6c-bb1f-74d54359fc1d" d="m20.29,15.14c-2.04,0-3.69,1.65-3.69,3.69,0,2.04,1.65,3.69,3.69,3.69,2.04,0,3.69-1.65,3.69-3.69s-1.65-3.69-3.69-3.69Z"/><path class="uuid-18a8cebc-d65e-4c6c-bb1f-74d54359fc1d" d="m6.42,15.14c-2.04,0-3.69,1.65-3.69,3.69s1.65,3.69,3.69,3.69,3.69-1.65,3.69-3.69-1.65-3.69-3.69-3.69Z"/><path class="uuid-18a8cebc-d65e-4c6c-bb1f-74d54359fc1d" d="m131.2,1.08c-2.14,0-3.88,1.74-3.88,3.88,0,2.14,1.74,3.88,3.88,3.88,2.14,0,3.88-1.74,3.88-3.88,0-2.14-1.74-3.88-3.88-3.88Z"/><path class="uuid-18a8cebc-d65e-4c6c-bb1f-74d54359fc1d" d="m117.34,1.08c-2.14,0-3.88,1.74-3.88,3.88,0,2.14,1.74,3.88,3.88,3.88s3.88-1.74,3.88-3.88c0-2.14-1.74-3.88-3.88-3.88Z"/><path class="uuid-18a8cebc-d65e-4c6c-bb1f-74d54359fc1d" d="m103.47,1.08c-2.14,0-3.88,1.74-3.88,3.88,0,2.14,1.74,3.88,3.88,3.88s3.88-1.74,3.88-3.88c0-2.14-1.74-3.88-3.88-3.88Z"/><path class="uuid-18a8cebc-d65e-4c6c-bb1f-74d54359fc1d" d="m89.61,1.08c-2.14,0-3.88,1.74-3.88,3.88s1.74,3.88,3.88,3.88c2.14,0,3.88-1.74,3.88-3.88,0-2.14-1.74-3.88-3.88-3.88Z"/><path class="uuid-18a8cebc-d65e-4c6c-bb1f-74d54359fc1d" d="m75.74,1.08c-2.14,0-3.88,1.74-3.88,3.88s1.74,3.88,3.88,3.88c2.14,0,3.88-1.74,3.88-3.88s-1.74-3.88-3.88-3.88Z"/><path class="uuid-18a8cebc-d65e-4c6c-bb1f-74d54359fc1d" d="m61.88,1.08c-2.14,0-3.88,1.74-3.88,3.88,0,2.14,1.74,3.88,3.88,3.88,2.14,0,3.88-1.74,3.88-3.88s-1.74-3.88-3.88-3.88Z"/><path class="uuid-18a8cebc-d65e-4c6c-bb1f-74d54359fc1d" d="m48.02,1.08c-2.14,0-3.88,1.74-3.88,3.88s1.74,3.88,3.88,3.88,3.88-1.74,3.88-3.88c0-2.14-1.74-3.88-3.88-3.88Z"/><path class="uuid-18a8cebc-d65e-4c6c-bb1f-74d54359fc1d" d="m34.15,1.08c-2.14,0-3.88,1.74-3.88,3.88s1.74,3.88,3.88,3.88c2.14,0,3.88-1.74,3.88-3.88s-1.74-3.88-3.88-3.88Z"/><path class="uuid-18a8cebc-d65e-4c6c-bb1f-74d54359fc1d" d="m20.29,1.08c-2.14,0-3.88,1.74-3.88,3.88,0,2.14,1.74,3.88,3.88,3.88,2.14,0,3.88-1.74,3.88-3.88,0-2.14-1.74-3.88-3.88-3.88Z"/><path class="uuid-18a8cebc-d65e-4c6c-bb1f-74d54359fc1d" d="m6.42,1.08c-2.14,0-3.88,1.74-3.88,3.88,0,2.14,1.74,3.88,3.88,3.88s3.88-1.74,3.88-3.88c0-2.14-1.74-3.88-3.88-3.88Z"/></g></svg>