<?xml version="1.0" encoding="UTF-8"?><svg id="uuid-58233b2c-cb25-4222-90be-934d57024a0f" xmlns="http://www.w3.org/2000/svg" viewBox="0 0 178.46 178.46"><defs><style>.uuid-cbb9df0b-2f3d-4d24-9071-0d77890e5e38{fill:#fee9d0;}.uuid-a9ad5f87-c2aa-412e-a51c-480561fedb42{opacity:.3;}.uuid-34587cf4-6539-4b4c-8ee6-8695dfda7fb8{opacity:.6;}.uuid-93aa76e7-2250-4d6c-8644-1cd9301ccb5f{opacity:.9;}.uuid-35e3054d-b50b-4102-9574-6250eb41558b{opacity:.8;}</style></defs><g class="uuid-a9ad5f87-c2aa-412e-a51c-480561fedb42"><g class="uuid-a9ad5f87-c2aa-412e-a51c-480561fedb42"><path class="uuid-cbb9df0b-2f3d-4d24-9071-0d77890e5e38" d="m89.23,0C39.95,0,0,39.95,0,89.23s39.95,89.23,89.23,89.23,89.23-39.95,89.23-89.23S138.51,0,89.23,0Zm-49.78,110.23c-11.6,0-21-9.4-21-21s9.4-21,21-21,21,9.4,21,21-9.4,21-21,21Zm49.78,0c-11.6,0-21-9.4-21-21s9.4-21,21-21,21,9.4,21,21-9.4,21-21,21Zm49.78,0c-11.6,0-21-9.4-21-21s9.4-21,21-21,21,9.4,21,21-9.4,21-21,21Z"/></g><g class="uuid-93aa76e7-2250-4d6c-8644-1cd9301ccb5f"><path class="uuid-cbb9df0b-2f3d-4d24-9071-0d77890e5e38" d="m39.45,68.23c-11.6,0-21,9.4-21,21s9.4,21,21,21,21-9.4,21-21-9.4-21-21-21Z"/></g><g class="uuid-34587cf4-6539-4b4c-8ee6-8695dfda7fb8"><path class="uuid-cbb9df0b-2f3d-4d24-9071-0d77890e5e38" d="m139.01,68.23c-11.6,0-21,9.4-21,21s9.4,21,21,21,21-9.4,21-21-9.4-21-21-21Z"/></g><g class="uuid-35e3054d-b50b-4102-9574-6250eb41558b"><path class="uuid-cbb9df0b-2f3d-4d24-9071-0d77890e5e38" d="m89.23,68.23c-11.6,0-21,9.4-21,21s9.4,21,21,21,21-9.4,21-21-9.4-21-21-21Z"/></g></g></svg>