<?xml version="1.0" encoding="UTF-8"?><svg id="uuid-dec01eff-db59-44ed-b67c-d3846c2a78ad" xmlns="http://www.w3.org/2000/svg" xmlns:xlink="http://www.w3.org/1999/xlink" viewBox="0 0 149.65 149.42"><defs><style>.uuid-92b39e3a-38ed-411d-9051-ccf0a82c4fb9{fill:none;}.uuid-e6ab9490-f59c-4c04-ae3d-64a3f7e4eb8b{fill:#feebd1;}.uuid-02a15b2e-b98d-4966-bfd1-afac2285b26c,.uuid-8fb0b296-0982-4876-ad91-8635dc6c96af,.uuid-3f6d6d4e-6460-495f-80e4-2944e4ae22d2,.uuid-0888ddf9-b39f-47ff-9b0f-6c9dc86ba729,.uuid-b42e70b5-a54f-42c4-928f-3b123875770d{fill:#16223a;}.uuid-8fb0b296-0982-4876-ad91-8635dc6c96af{opacity:.2;}.uuid-3f6d6d4e-6460-495f-80e4-2944e4ae22d2{opacity:.6;}.uuid-0888ddf9-b39f-47ff-9b0f-6c9dc86ba729{opacity:.8;}.uuid-b42e70b5-a54f-42c4-928f-3b123875770d{opacity:.4;}.uuid-5359d95d-3e23-4ebc-b9fe-0ad654ac6349{clip-path:url(#uuid-47e7e24b-7cd5-4c23-b2a1-a0b742cfef05);}</style><clipPath id="uuid-47e7e24b-7cd5-4c23-b2a1-a0b742cfef05"><path class="uuid-92b39e3a-38ed-411d-9051-ccf0a82c4fb9" d="m149.04,72.76c.38,43.67-33.78,76.34-74.75,76.34v-76.34h74.75Z"/></clipPath></defs><circle class="uuid-e6ab9490-f59c-4c04-ae3d-64a3f7e4eb8b" cx="74.52" cy="74.52" r="74.52"/><g class="uuid-5359d95d-3e23-4ebc-b9fe-0ad654ac6349"><path class="uuid-02a15b2e-b98d-4966-bfd1-afac2285b26c" d="m148.91,147.39c0-.41.33-.74.74-.74s.74.33.74.74c0,.41-.33.74-.74.74s-.74-.33-.74-.74Z"/><path class="uuid-02a15b2e-b98d-4966-bfd1-afac2285b26c" d="m148.91,143.64c0-.41.33-.74.74-.74s.74.33.74.74c0,.41-.33.74-.74.74s-.74-.33-.74-.74Z"/><path class="uuid-02a15b2e-b98d-4966-bfd1-afac2285b26c" d="m148.91,139.88c0-.41.33-.74.74-.74s.74.33.74.74-.33.74-.74.74-.74-.33-.74-.74Z"/><path class="uuid-02a15b2e-b98d-4966-bfd1-afac2285b26c" d="m148.91,136.13c0-.41.33-.74.74-.74s.74.33.74.74-.33.74-.74.74-.74-.33-.74-.74Z"/><path class="uuid-02a15b2e-b98d-4966-bfd1-afac2285b26c" d="m148.91,132.38c0-.41.33-.74.74-.74s.74.33.74.74-.33.74-.74.74-.74-.33-.74-.74Z"/><path class="uuid-02a15b2e-b98d-4966-bfd1-afac2285b26c" d="m148.91,128.63c0-.41.33-.74.74-.74s.74.33.74.74-.33.74-.74.74-.74-.33-.74-.74Z"/><path class="uuid-02a15b2e-b98d-4966-bfd1-afac2285b26c" d="m148.91,124.87c0-.41.33-.74.74-.74s.74.33.74.74c0,.41-.33.74-.74.74s-.74-.33-.74-.74Z"/><path class="uuid-02a15b2e-b98d-4966-bfd1-afac2285b26c" d="m148.91,121.12c0-.41.33-.74.74-.74s.74.33.74.74c0,.41-.33.74-.74.74s-.74-.33-.74-.74Z"/><path class="uuid-02a15b2e-b98d-4966-bfd1-afac2285b26c" d="m148.91,117.37c0-.41.33-.74.74-.74s.74.33.74.74c0,.41-.33.74-.74.74s-.74-.33-.74-.74Z"/><path class="uuid-02a15b2e-b98d-4966-bfd1-afac2285b26c" d="m148.91,113.61c0-.41.33-.74.74-.74s.74.33.74.74c0,.41-.33.74-.74.74s-.74-.33-.74-.74Z"/><path class="uuid-02a15b2e-b98d-4966-bfd1-afac2285b26c" d="m148.91,109.86c0-.41.33-.74.74-.74s.74.33.74.74c0,.41-.33.74-.74.74s-.74-.33-.74-.74Z"/><path class="uuid-02a15b2e-b98d-4966-bfd1-afac2285b26c" d="m148.91,106.11c0-.41.33-.74.74-.74s.74.33.74.74-.33.74-.74.74-.74-.33-.74-.74Z"/><path class="uuid-02a15b2e-b98d-4966-bfd1-afac2285b26c" d="m148.91,102.35c0-.41.33-.74.74-.74s.74.33.74.74-.33.74-.74.74-.74-.33-.74-.74Z"/><path class="uuid-02a15b2e-b98d-4966-bfd1-afac2285b26c" d="m148.91,98.6c0-.41.33-.74.74-.74s.74.33.74.74-.33.74-.74.74-.74-.33-.74-.74Z"/><path class="uuid-02a15b2e-b98d-4966-bfd1-afac2285b26c" d="m148.91,94.85c0-.41.33-.74.74-.74s.74.33.74.74-.33.74-.74.74-.74-.33-.74-.74Z"/><path class="uuid-02a15b2e-b98d-4966-bfd1-afac2285b26c" d="m148.91,91.09c0-.41.33-.74.74-.74s.74.33.74.74c0,.41-.33.74-.74.74s-.74-.33-.74-.74Z"/><path class="uuid-02a15b2e-b98d-4966-bfd1-afac2285b26c" d="m148.91,87.34c0-.41.33-.74.74-.74s.74.33.74.74-.33.74-.74.74-.74-.33-.74-.74Z"/><path class="uuid-02a15b2e-b98d-4966-bfd1-afac2285b26c" d="m148.91,83.59c0-.41.33-.74.74-.74s.74.33.74.74-.33.74-.74.74-.74-.33-.74-.74Z"/><path class="uuid-02a15b2e-b98d-4966-bfd1-afac2285b26c" d="m148.91,79.83c0-.41.33-.74.74-.74s.74.33.74.74c0,.41-.33.74-.74.74s-.74-.33-.74-.74Z"/><path class="uuid-02a15b2e-b98d-4966-bfd1-afac2285b26c" d="m148.91,76.08c0-.41.33-.74.74-.74s.74.33.74.74c0,.41-.33.74-.74.74s-.74-.33-.74-.74Z"/><path class="uuid-02a15b2e-b98d-4966-bfd1-afac2285b26c" d="m145.11,147.39c0-.44.35-.79.79-.79s.79.35.79.79c0,.44-.35.79-.79.79s-.79-.35-.79-.79Z"/><path class="uuid-02a15b2e-b98d-4966-bfd1-afac2285b26c" d="m145.11,143.64c0-.44.35-.79.79-.79s.79.35.79.79c0,.44-.35.79-.79.79s-.79-.35-.79-.79Z"/><path class="uuid-02a15b2e-b98d-4966-bfd1-afac2285b26c" d="m145.11,139.88c0-.44.35-.79.79-.79s.79.35.79.79c0,.44-.35.79-.79.79s-.79-.35-.79-.79Z"/><path class="uuid-02a15b2e-b98d-4966-bfd1-afac2285b26c" d="m145.11,136.13c0-.44.35-.79.79-.79s.79.35.79.79c0,.44-.35.79-.79.79s-.79-.35-.79-.79Z"/><path class="uuid-02a15b2e-b98d-4966-bfd1-afac2285b26c" d="m145.11,132.38c0-.44.35-.79.79-.79s.79.35.79.79c0,.44-.35.79-.79.79s-.79-.35-.79-.79Z"/><path class="uuid-02a15b2e-b98d-4966-bfd1-afac2285b26c" d="m145.11,128.63c0-.44.35-.79.79-.79s.79.35.79.79c0,.44-.35.79-.79.79s-.79-.35-.79-.79Z"/><path class="uuid-02a15b2e-b98d-4966-bfd1-afac2285b26c" d="m145.11,124.87c0-.44.35-.79.79-.79s.79.35.79.79c0,.44-.35.79-.79.79s-.79-.35-.79-.79Z"/><path class="uuid-02a15b2e-b98d-4966-bfd1-afac2285b26c" d="m145.11,121.12c0-.44.35-.79.79-.79s.79.35.79.79c0,.44-.35.79-.79.79s-.79-.35-.79-.79Z"/><path class="uuid-02a15b2e-b98d-4966-bfd1-afac2285b26c" d="m145.11,117.37c0-.44.35-.79.79-.79s.79.35.79.79c0,.44-.35.79-.79.79s-.79-.35-.79-.79Z"/><path class="uuid-02a15b2e-b98d-4966-bfd1-afac2285b26c" d="m145.11,113.61c0-.44.35-.79.79-.79s.79.35.79.79c0,.44-.35.79-.79.79s-.79-.35-.79-.79Z"/><path class="uuid-02a15b2e-b98d-4966-bfd1-afac2285b26c" d="m145.11,109.86c0-.44.35-.79.79-.79s.79.35.79.79c0,.44-.35.79-.79.79s-.79-.35-.79-.79Z"/><path class="uuid-02a15b2e-b98d-4966-bfd1-afac2285b26c" d="m145.11,106.11c0-.44.35-.79.79-.79s.79.35.79.79-.35.79-.79.79-.79-.35-.79-.79Z"/><path class="uuid-02a15b2e-b98d-4966-bfd1-afac2285b26c" d="m145.11,102.35c0-.44.35-.79.79-.79s.79.35.79.79-.35.79-.79.79-.79-.35-.79-.79Z"/><path class="uuid-02a15b2e-b98d-4966-bfd1-afac2285b26c" d="m145.11,98.6c0-.44.35-.79.79-.79s.79.35.79.79-.35.79-.79.79-.79-.35-.79-.79Z"/><path class="uuid-02a15b2e-b98d-4966-bfd1-afac2285b26c" d="m145.11,94.85c0-.44.35-.79.79-.79s.79.35.79.79c0,.44-.35.79-.79.79s-.79-.35-.79-.79Z"/><path class="uuid-02a15b2e-b98d-4966-bfd1-afac2285b26c" d="m145.11,91.09c0-.44.35-.79.79-.79s.79.35.79.79c0,.44-.35.79-.79.79s-.79-.35-.79-.79Z"/><path class="uuid-02a15b2e-b98d-4966-bfd1-afac2285b26c" d="m145.11,87.34c0-.44.35-.79.79-.79s.79.35.79.79c0,.44-.35.79-.79.79s-.79-.35-.79-.79Z"/><path class="uuid-02a15b2e-b98d-4966-bfd1-afac2285b26c" d="m145.11,83.59c0-.44.35-.79.79-.79s.79.35.79.79c0,.44-.35.79-.79.79s-.79-.35-.79-.79Z"/><path class="uuid-02a15b2e-b98d-4966-bfd1-afac2285b26c" d="m145.11,79.83c0-.44.35-.79.79-.79s.79.35.79.79c0,.44-.35.79-.79.79s-.79-.35-.79-.79Z"/><path class="uuid-02a15b2e-b98d-4966-bfd1-afac2285b26c" d="m145.11,76.08c0-.44.35-.79.79-.79s.79.35.79.79c0,.44-.35.79-.79.79s-.79-.35-.79-.79Z"/><path class="uuid-02a15b2e-b98d-4966-bfd1-afac2285b26c" d="m141.31,147.39c0-.46.37-.83.83-.83s.83.37.83.83c0,.46-.37.83-.83.83s-.83-.37-.83-.83Z"/><path class="uuid-02a15b2e-b98d-4966-bfd1-afac2285b26c" d="m141.31,143.64c0-.46.37-.83.83-.83s.83.37.83.83c0,.46-.37.83-.83.83s-.83-.37-.83-.83Z"/><path class="uuid-02a15b2e-b98d-4966-bfd1-afac2285b26c" d="m141.31,139.88c0-.46.37-.83.83-.83s.83.37.83.83c0,.46-.37.83-.83.83s-.83-.37-.83-.83Z"/><path class="uuid-02a15b2e-b98d-4966-bfd1-afac2285b26c" d="m141.31,136.13c0-.46.37-.83.83-.83s.83.37.83.83c0,.46-.37.83-.83.83s-.83-.37-.83-.83Z"/><path class="uuid-02a15b2e-b98d-4966-bfd1-afac2285b26c" d="m141.31,132.38c0-.46.37-.83.83-.83s.83.37.83.83c0,.46-.37.83-.83.83s-.83-.37-.83-.83Z"/><path class="uuid-02a15b2e-b98d-4966-bfd1-afac2285b26c" d="m141.31,128.63c0-.46.37-.83.83-.83s.83.37.83.83c0,.46-.37.83-.83.83s-.83-.37-.83-.83Z"/><path class="uuid-02a15b2e-b98d-4966-bfd1-afac2285b26c" d="m141.31,124.87c0-.46.37-.83.83-.83s.83.37.83.83c0,.46-.37.83-.83.83s-.83-.37-.83-.83Z"/><path class="uuid-02a15b2e-b98d-4966-bfd1-afac2285b26c" d="m141.31,121.12c0-.46.37-.83.83-.83s.83.37.83.83c0,.46-.37.83-.83.83s-.83-.37-.83-.83Z"/><path class="uuid-02a15b2e-b98d-4966-bfd1-afac2285b26c" d="m141.31,117.37c0-.46.37-.83.83-.83s.83.37.83.83c0,.46-.37.83-.83.83s-.83-.37-.83-.83Z"/><path class="uuid-02a15b2e-b98d-4966-bfd1-afac2285b26c" d="m141.31,113.61c0-.46.37-.83.83-.83s.83.37.83.83c0,.46-.37.83-.83.83s-.83-.37-.83-.83Z"/><path class="uuid-02a15b2e-b98d-4966-bfd1-afac2285b26c" d="m141.31,109.86c0-.46.37-.83.83-.83s.83.37.83.83c0,.46-.37.83-.83.83s-.83-.37-.83-.83Z"/><path class="uuid-02a15b2e-b98d-4966-bfd1-afac2285b26c" d="m141.31,106.11c0-.46.37-.83.83-.83s.83.37.83.83c0,.46-.37.83-.83.83s-.83-.37-.83-.83Z"/><path class="uuid-02a15b2e-b98d-4966-bfd1-afac2285b26c" d="m141.31,102.35c0-.46.37-.83.83-.83s.83.37.83.83c0,.46-.37.83-.83.83s-.83-.37-.83-.83Z"/><path class="uuid-02a15b2e-b98d-4966-bfd1-afac2285b26c" d="m141.31,98.6c0-.46.37-.83.83-.83s.83.37.83.83-.37.83-.83.83-.83-.37-.83-.83Z"/><path class="uuid-02a15b2e-b98d-4966-bfd1-afac2285b26c" d="m141.31,94.85c0-.46.37-.83.83-.83s.83.37.83.83-.37.83-.83.83-.83-.37-.83-.83Z"/><path class="uuid-02a15b2e-b98d-4966-bfd1-afac2285b26c" d="m141.31,91.09c0-.46.37-.83.83-.83s.83.37.83.83-.37.83-.83.83-.83-.37-.83-.83Z"/><path class="uuid-02a15b2e-b98d-4966-bfd1-afac2285b26c" d="m141.31,87.34c0-.46.37-.83.83-.83s.83.37.83.83c0,.46-.37.83-.83.83s-.83-.37-.83-.83Z"/><path class="uuid-02a15b2e-b98d-4966-bfd1-afac2285b26c" d="m141.31,83.59c0-.46.37-.83.83-.83s.83.37.83.83c0,.46-.37.83-.83.83s-.83-.37-.83-.83Z"/><path class="uuid-02a15b2e-b98d-4966-bfd1-afac2285b26c" d="m141.31,79.83c0-.46.37-.83.83-.83s.83.37.83.83c0,.46-.37.83-.83.83s-.83-.37-.83-.83Z"/><path class="uuid-02a15b2e-b98d-4966-bfd1-afac2285b26c" d="m141.31,76.08c0-.46.37-.83.83-.83s.83.37.83.83c0,.46-.37.83-.83.83s-.83-.37-.83-.83Z"/><path class="uuid-02a15b2e-b98d-4966-bfd1-afac2285b26c" d="m137.51,147.39c0-.49.4-.88.88-.88s.88.4.88.88c0,.49-.4.88-.88.88s-.88-.4-.88-.88Z"/><path class="uuid-02a15b2e-b98d-4966-bfd1-afac2285b26c" d="m137.51,143.64c0-.49.4-.88.88-.88s.88.4.88.88c0,.49-.4.88-.88.88s-.88-.4-.88-.88Z"/><path class="uuid-02a15b2e-b98d-4966-bfd1-afac2285b26c" d="m137.51,139.88c0-.49.4-.88.88-.88s.88.4.88.88c0,.49-.4.88-.88.88s-.88-.4-.88-.88Z"/><path class="uuid-02a15b2e-b98d-4966-bfd1-afac2285b26c" d="m137.51,136.13c0-.49.4-.88.88-.88s.88.4.88.88c0,.49-.4.88-.88.88s-.88-.4-.88-.88Z"/><path class="uuid-02a15b2e-b98d-4966-bfd1-afac2285b26c" d="m137.51,132.38c0-.49.4-.88.88-.88s.88.4.88.88c0,.49-.4.88-.88.88s-.88-.4-.88-.88Z"/><path class="uuid-02a15b2e-b98d-4966-bfd1-afac2285b26c" d="m137.51,128.63c0-.49.4-.88.88-.88s.88.4.88.88c0,.49-.4.88-.88.88s-.88-.4-.88-.88Z"/><path class="uuid-02a15b2e-b98d-4966-bfd1-afac2285b26c" d="m137.51,124.87c0-.49.4-.88.88-.88s.88.4.88.88c0,.49-.4.88-.88.88s-.88-.4-.88-.88Z"/><path class="uuid-02a15b2e-b98d-4966-bfd1-afac2285b26c" d="m137.51,121.12c0-.49.4-.88.88-.88s.88.4.88.88c0,.49-.4.88-.88.88s-.88-.4-.88-.88Z"/><path class="uuid-02a15b2e-b98d-4966-bfd1-afac2285b26c" d="m137.51,117.37c0-.49.4-.88.88-.88s.88.4.88.88c0,.49-.4.88-.88.88s-.88-.4-.88-.88Z"/><path class="uuid-02a15b2e-b98d-4966-bfd1-afac2285b26c" d="m137.51,113.61c0-.49.4-.88.88-.88s.88.4.88.88c0,.49-.4.88-.88.88s-.88-.4-.88-.88Z"/><path class="uuid-02a15b2e-b98d-4966-bfd1-afac2285b26c" d="m137.51,109.86c0-.49.4-.88.88-.88s.88.4.88.88c0,.49-.4.88-.88.88s-.88-.4-.88-.88Z"/><path class="uuid-02a15b2e-b98d-4966-bfd1-afac2285b26c" d="m137.51,106.11c0-.49.4-.88.88-.88s.88.4.88.88c0,.49-.4.88-.88.88s-.88-.4-.88-.88Z"/><path class="uuid-02a15b2e-b98d-4966-bfd1-afac2285b26c" d="m137.51,102.35c0-.49.4-.88.88-.88s.88.4.88.88c0,.49-.4.88-.88.88s-.88-.4-.88-.88Z"/><path class="uuid-02a15b2e-b98d-4966-bfd1-afac2285b26c" d="m137.51,98.6c0-.49.4-.88.88-.88s.88.4.88.88c0,.49-.4.88-.88.88s-.88-.4-.88-.88Z"/><path class="uuid-02a15b2e-b98d-4966-bfd1-afac2285b26c" d="m137.51,94.85c0-.49.4-.88.88-.88s.88.4.88.88c0,.49-.4.88-.88.88s-.88-.4-.88-.88Z"/><path class="uuid-02a15b2e-b98d-4966-bfd1-afac2285b26c" d="m137.51,91.09c0-.49.4-.88.88-.88s.88.4.88.88c0,.49-.4.88-.88.88s-.88-.4-.88-.88Z"/><path class="uuid-02a15b2e-b98d-4966-bfd1-afac2285b26c" d="m137.51,87.34c0-.49.4-.88.88-.88s.88.4.88.88c0,.49-.4.88-.88.88s-.88-.4-.88-.88Z"/><path class="uuid-02a15b2e-b98d-4966-bfd1-afac2285b26c" d="m137.51,83.59c0-.49.4-.88.88-.88s.88.4.88.88c0,.49-.4.88-.88.88s-.88-.4-.88-.88Z"/><path class="uuid-02a15b2e-b98d-4966-bfd1-afac2285b26c" d="m137.51,79.83c0-.49.4-.88.88-.88s.88.4.88.88c0,.49-.4.88-.88.88s-.88-.4-.88-.88Z"/><path class="uuid-02a15b2e-b98d-4966-bfd1-afac2285b26c" d="m137.51,76.08c0-.49.4-.88.88-.88s.88.4.88.88c0,.49-.4.88-.88.88s-.88-.4-.88-.88Z"/><path class="uuid-02a15b2e-b98d-4966-bfd1-afac2285b26c" d="m133.7,147.39c0-.52.42-.94.94-.94s.94.42.94.94c0,.52-.42.94-.94.94s-.94-.42-.94-.94Z"/><path class="uuid-02a15b2e-b98d-4966-bfd1-afac2285b26c" d="m133.7,143.64c0-.52.42-.94.94-.94s.94.42.94.94-.42.94-.94.94-.94-.42-.94-.94Z"/><path class="uuid-02a15b2e-b98d-4966-bfd1-afac2285b26c" d="m133.7,139.88c0-.52.42-.94.94-.94s.94.42.94.94-.42.94-.94.94-.94-.42-.94-.94Z"/><path class="uuid-02a15b2e-b98d-4966-bfd1-afac2285b26c" d="m133.7,136.13c0-.52.42-.94.94-.94s.94.42.94.94-.42.94-.94.94-.94-.42-.94-.94Z"/><path class="uuid-02a15b2e-b98d-4966-bfd1-afac2285b26c" d="m133.7,132.38c0-.52.42-.94.94-.94s.94.42.94.94-.42.94-.94.94-.94-.42-.94-.94Z"/><path class="uuid-02a15b2e-b98d-4966-bfd1-afac2285b26c" d="m133.7,128.63c0-.52.42-.94.94-.94s.94.42.94.94c0,.52-.42.94-.94.94s-.94-.42-.94-.94Z"/><path class="uuid-02a15b2e-b98d-4966-bfd1-afac2285b26c" d="m133.7,124.87c0-.52.42-.94.94-.94s.94.42.94.94c0,.52-.42.94-.94.94s-.94-.42-.94-.94Z"/><path class="uuid-02a15b2e-b98d-4966-bfd1-afac2285b26c" d="m133.7,121.12c0-.52.42-.94.94-.94s.94.42.94.94c0,.52-.42.94-.94.94s-.94-.42-.94-.94Z"/><path class="uuid-02a15b2e-b98d-4966-bfd1-afac2285b26c" d="m133.7,117.37c0-.52.42-.94.94-.94s.94.42.94.94c0,.52-.42.94-.94.94s-.94-.42-.94-.94Z"/><path class="uuid-02a15b2e-b98d-4966-bfd1-afac2285b26c" d="m133.7,113.61c0-.52.42-.94.94-.94s.94.42.94.94c0,.52-.42.94-.94.94s-.94-.42-.94-.94Z"/><path class="uuid-02a15b2e-b98d-4966-bfd1-afac2285b26c" d="m133.7,109.86c0-.52.42-.94.94-.94s.94.42.94.94-.42.94-.94.94-.94-.42-.94-.94Z"/><path class="uuid-02a15b2e-b98d-4966-bfd1-afac2285b26c" d="m133.7,106.11c0-.52.42-.94.94-.94s.94.42.94.94-.42.94-.94.94-.94-.42-.94-.94Z"/><path class="uuid-02a15b2e-b98d-4966-bfd1-afac2285b26c" d="m133.7,102.35c0-.52.42-.94.94-.94s.94.42.94.94c0,.52-.42.94-.94.94s-.94-.42-.94-.94Z"/><path class="uuid-02a15b2e-b98d-4966-bfd1-afac2285b26c" d="m133.7,98.6c0-.52.42-.94.94-.94s.94.42.94.94c0,.52-.42.94-.94.94s-.94-.42-.94-.94Z"/><path class="uuid-02a15b2e-b98d-4966-bfd1-afac2285b26c" d="m133.7,94.85c0-.52.42-.94.94-.94s.94.42.94.94c0,.52-.42.94-.94.94s-.94-.42-.94-.94Z"/><path class="uuid-02a15b2e-b98d-4966-bfd1-afac2285b26c" d="m133.7,91.09c0-.52.42-.94.94-.94s.94.42.94.94c0,.52-.42.94-.94.94s-.94-.42-.94-.94Z"/><path class="uuid-02a15b2e-b98d-4966-bfd1-afac2285b26c" d="m133.7,87.34c0-.52.42-.94.94-.94s.94.42.94.94c0,.52-.42.94-.94.94s-.94-.42-.94-.94Z"/><path class="uuid-02a15b2e-b98d-4966-bfd1-afac2285b26c" d="m133.7,83.59c0-.52.42-.94.94-.94s.94.42.94.94c0,.52-.42.94-.94.94s-.94-.42-.94-.94Z"/><path class="uuid-02a15b2e-b98d-4966-bfd1-afac2285b26c" d="m133.7,79.83c0-.52.42-.94.94-.94s.94.42.94.94c0,.52-.42.94-.94.94s-.94-.42-.94-.94Z"/><path class="uuid-02a15b2e-b98d-4966-bfd1-afac2285b26c" d="m133.7,76.08c0-.52.42-.94.94-.94s.94.42.94.94c0,.52-.42.94-.94.94s-.94-.42-.94-.94Z"/><path class="uuid-02a15b2e-b98d-4966-bfd1-afac2285b26c" d="m129.89,147.39c0-.55.45-1,1-1s1,.45,1,1c0,.55-.45,1-1,1s-1-.45-1-1Z"/><path class="uuid-02a15b2e-b98d-4966-bfd1-afac2285b26c" d="m129.89,143.64c0-.55.45-1,1-1s1,.45,1,1c0,.55-.45,1-1,1s-1-.45-1-1Z"/><path class="uuid-02a15b2e-b98d-4966-bfd1-afac2285b26c" d="m129.89,139.88c0-.55.45-1,1-1s1,.45,1,1c0,.55-.45,1-1,1s-1-.45-1-1Z"/><path class="uuid-02a15b2e-b98d-4966-bfd1-afac2285b26c" d="m129.89,136.13c0-.55.45-1,1-1s1,.45,1,1c0,.55-.45,1-1,1s-1-.45-1-1Z"/><path class="uuid-02a15b2e-b98d-4966-bfd1-afac2285b26c" d="m129.89,132.38c0-.55.45-1,1-1s1,.45,1,1-.45,1-1,1-1-.45-1-1Z"/><path class="uuid-02a15b2e-b98d-4966-bfd1-afac2285b26c" d="m129.89,128.63c0-.55.45-1,1-1s1,.45,1,1c0,.55-.45,1-1,1s-1-.45-1-1Z"/><path class="uuid-02a15b2e-b98d-4966-bfd1-afac2285b26c" d="m129.89,124.87c0-.55.45-1,1-1s1,.45,1,1c0,.55-.45,1-1,1s-1-.45-1-1Z"/><path class="uuid-02a15b2e-b98d-4966-bfd1-afac2285b26c" d="m129.89,121.12c0-.55.45-1,1-1s1,.45,1,1c0,.55-.45,1-1,1s-1-.45-1-1Z"/><path class="uuid-02a15b2e-b98d-4966-bfd1-afac2285b26c" d="m129.89,117.37c0-.55.45-1,1-1s1,.45,1,1c0,.55-.45,1-1,1s-1-.45-1-1Z"/><path class="uuid-02a15b2e-b98d-4966-bfd1-afac2285b26c" d="m129.89,113.61c0-.55.45-1,1-1s1,.45,1,1c0,.55-.45,1-1,1s-1-.45-1-1Z"/><path class="uuid-02a15b2e-b98d-4966-bfd1-afac2285b26c" d="m129.89,109.86c0-.55.45-1,1-1s1,.45,1,1c0,.55-.45,1-1,1s-1-.45-1-1Z"/><path class="uuid-02a15b2e-b98d-4966-bfd1-afac2285b26c" d="m129.89,106.11c0-.55.45-1,1-1s1,.45,1,1c0,.55-.45,1-1,1s-1-.45-1-1Z"/><path class="uuid-02a15b2e-b98d-4966-bfd1-afac2285b26c" d="m129.89,102.35c0-.55.45-1,1-1s1,.45,1,1-.45,1-1,1-1-.45-1-1Z"/><path class="uuid-02a15b2e-b98d-4966-bfd1-afac2285b26c" d="m129.89,98.6c0-.55.45-1,1-1s1,.45,1,1-.45,1-1,1-1-.45-1-1Z"/><path class="uuid-02a15b2e-b98d-4966-bfd1-afac2285b26c" d="m129.89,94.85c0-.55.45-1,1-1s1,.45,1,1-.45,1-1,1-1-.45-1-1Z"/><path class="uuid-02a15b2e-b98d-4966-bfd1-afac2285b26c" d="m129.89,91.09c0-.55.45-1,1-1s1,.45,1,1-.45,1-1,1-1-.45-1-1Z"/><path class="uuid-02a15b2e-b98d-4966-bfd1-afac2285b26c" d="m129.89,87.34c0-.55.45-1,1-1s1,.45,1,1-.45,1-1,1-1-.45-1-1Z"/><path class="uuid-02a15b2e-b98d-4966-bfd1-afac2285b26c" d="m129.89,83.59c0-.55.45-1,1-1s1,.45,1,1c0,.55-.45,1-1,1s-1-.45-1-1Z"/><path class="uuid-02a15b2e-b98d-4966-bfd1-afac2285b26c" d="m129.89,79.83c0-.55.45-1,1-1s1,.45,1,1c0,.55-.45,1-1,1s-1-.45-1-1Z"/><path class="uuid-02a15b2e-b98d-4966-bfd1-afac2285b26c" d="m129.89,76.08c0-.55.45-1,1-1s1,.45,1,1c0,.55-.45,1-1,1s-1-.45-1-1Z"/><path class="uuid-02a15b2e-b98d-4966-bfd1-afac2285b26c" d="m126.08,147.39c0-.58.47-1.05,1.05-1.05s1.05.47,1.05,1.05c0,.58-.47,1.05-1.05,1.05s-1.05-.47-1.05-1.05Z"/><path class="uuid-02a15b2e-b98d-4966-bfd1-afac2285b26c" d="m126.08,143.64c0-.58.47-1.05,1.05-1.05s1.05.47,1.05,1.05c0,.58-.47,1.05-1.05,1.05s-1.05-.47-1.05-1.05Z"/><path class="uuid-02a15b2e-b98d-4966-bfd1-afac2285b26c" d="m126.08,139.88c0-.58.47-1.05,1.05-1.05s1.05.47,1.05,1.05c0,.58-.47,1.05-1.05,1.05s-1.05-.47-1.05-1.05Z"/><path class="uuid-02a15b2e-b98d-4966-bfd1-afac2285b26c" d="m126.08,136.13c0-.58.47-1.05,1.05-1.05s1.05.47,1.05,1.05c0,.58-.47,1.05-1.05,1.05s-1.05-.47-1.05-1.05Z"/><path class="uuid-02a15b2e-b98d-4966-bfd1-afac2285b26c" d="m126.08,132.38c0-.58.47-1.05,1.05-1.05s1.05.47,1.05,1.05c0,.58-.47,1.05-1.05,1.05s-1.05-.47-1.05-1.05Z"/><path class="uuid-02a15b2e-b98d-4966-bfd1-afac2285b26c" d="m126.08,128.63c0-.58.47-1.05,1.05-1.05s1.05.47,1.05,1.05c0,.58-.47,1.05-1.05,1.05s-1.05-.47-1.05-1.05Z"/><path class="uuid-02a15b2e-b98d-4966-bfd1-afac2285b26c" d="m126.08,124.87c0-.58.47-1.05,1.05-1.05s1.05.47,1.05,1.05c0,.58-.47,1.05-1.05,1.05s-1.05-.47-1.05-1.05Z"/><path class="uuid-02a15b2e-b98d-4966-bfd1-afac2285b26c" d="m126.08,121.12c0-.58.47-1.05,1.05-1.05s1.05.47,1.05,1.05c0,.58-.47,1.05-1.05,1.05s-1.05-.47-1.05-1.05Z"/><path class="uuid-02a15b2e-b98d-4966-bfd1-afac2285b26c" d="m126.08,117.37c0-.58.47-1.05,1.05-1.05s1.05.47,1.05,1.05c0,.58-.47,1.05-1.05,1.05s-1.05-.47-1.05-1.05Z"/><path class="uuid-02a15b2e-b98d-4966-bfd1-afac2285b26c" d="m126.08,113.61c0-.58.47-1.05,1.05-1.05s1.05.47,1.05,1.05c0,.58-.47,1.05-1.05,1.05s-1.05-.47-1.05-1.05Z"/><path class="uuid-02a15b2e-b98d-4966-bfd1-afac2285b26c" d="m126.08,109.86c0-.58.47-1.05,1.05-1.05s1.05.47,1.05,1.05c0,.58-.47,1.05-1.05,1.05s-1.05-.47-1.05-1.05Z"/><path class="uuid-02a15b2e-b98d-4966-bfd1-afac2285b26c" d="m126.08,106.11c0-.58.47-1.05,1.05-1.05s1.05.47,1.05,1.05c0,.58-.47,1.05-1.05,1.05s-1.05-.47-1.05-1.05Z"/><path class="uuid-02a15b2e-b98d-4966-bfd1-afac2285b26c" d="m126.08,102.35c0-.58.47-1.05,1.05-1.05s1.05.47,1.05,1.05c0,.58-.47,1.05-1.05,1.05s-1.05-.47-1.05-1.05Z"/><path class="uuid-02a15b2e-b98d-4966-bfd1-afac2285b26c" d="m126.08,98.6c0-.58.47-1.05,1.05-1.05s1.05.47,1.05,1.05c0,.58-.47,1.05-1.05,1.05s-1.05-.47-1.05-1.05Z"/><path class="uuid-02a15b2e-b98d-4966-bfd1-afac2285b26c" d="m126.08,94.85c0-.58.47-1.05,1.05-1.05s1.05.47,1.05,1.05c0,.58-.47,1.05-1.05,1.05s-1.05-.47-1.05-1.05Z"/><path class="uuid-02a15b2e-b98d-4966-bfd1-afac2285b26c" d="m126.08,91.09c0-.58.47-1.05,1.05-1.05s1.05.47,1.05,1.05c0,.58-.47,1.05-1.05,1.05s-1.05-.47-1.05-1.05Z"/><path class="uuid-02a15b2e-b98d-4966-bfd1-afac2285b26c" d="m126.08,87.34c0-.58.47-1.05,1.05-1.05s1.05.47,1.05,1.05c0,.58-.47,1.05-1.05,1.05s-1.05-.47-1.05-1.05Z"/><path class="uuid-02a15b2e-b98d-4966-bfd1-afac2285b26c" d="m126.08,83.59c0-.58.47-1.05,1.05-1.05s1.05.47,1.05,1.05c0,.58-.47,1.05-1.05,1.05s-1.05-.47-1.05-1.05Z"/><path class="uuid-02a15b2e-b98d-4966-bfd1-afac2285b26c" d="m126.08,79.83c0-.58.47-1.05,1.05-1.05s1.05.47,1.05,1.05c0,.58-.47,1.05-1.05,1.05s-1.05-.47-1.05-1.05Z"/><path class="uuid-02a15b2e-b98d-4966-bfd1-afac2285b26c" d="m126.08,76.08c0-.58.47-1.05,1.05-1.05s1.05.47,1.05,1.05c0,.58-.47,1.05-1.05,1.05s-1.05-.47-1.05-1.05Z"/><path class="uuid-02a15b2e-b98d-4966-bfd1-afac2285b26c" d="m122.27,147.39c0-.61.5-1.11,1.11-1.11s1.11.5,1.11,1.11c0,.62-.5,1.11-1.11,1.11s-1.11-.5-1.11-1.11Z"/><path class="uuid-02a15b2e-b98d-4966-bfd1-afac2285b26c" d="m122.27,143.64c0-.61.5-1.11,1.11-1.11s1.11.5,1.11,1.11c0,.62-.5,1.11-1.11,1.11-.62,0-1.11-.5-1.11-1.11Z"/><path class="uuid-02a15b2e-b98d-4966-bfd1-afac2285b26c" d="m122.27,139.88c0-.61.5-1.11,1.11-1.11s1.11.5,1.11,1.11c0,.62-.5,1.11-1.11,1.11s-1.11-.5-1.11-1.11Z"/><path class="uuid-02a15b2e-b98d-4966-bfd1-afac2285b26c" d="m122.27,136.13c0-.61.5-1.11,1.11-1.11s1.11.5,1.11,1.11c0,.62-.5,1.11-1.11,1.11s-1.11-.5-1.11-1.11Z"/><path class="uuid-02a15b2e-b98d-4966-bfd1-afac2285b26c" d="m122.27,132.38c0-.61.5-1.11,1.11-1.11s1.11.5,1.11,1.11c0,.62-.5,1.11-1.11,1.11s-1.11-.5-1.11-1.11Z"/><path class="uuid-02a15b2e-b98d-4966-bfd1-afac2285b26c" d="m122.27,128.63c0-.61.5-1.11,1.11-1.11s1.11.5,1.11,1.11-.5,1.11-1.11,1.11-1.11-.5-1.11-1.11Z"/><path class="uuid-02a15b2e-b98d-4966-bfd1-afac2285b26c" d="m122.27,124.87c0-.61.5-1.11,1.11-1.11s1.11.5,1.11,1.11c0,.62-.5,1.11-1.11,1.11s-1.11-.5-1.11-1.11Z"/><path class="uuid-02a15b2e-b98d-4966-bfd1-afac2285b26c" d="m122.27,121.12c0-.61.5-1.11,1.11-1.11s1.11.5,1.11,1.11c0,.62-.5,1.11-1.11,1.11s-1.11-.5-1.11-1.11Z"/><path class="uuid-02a15b2e-b98d-4966-bfd1-afac2285b26c" d="m122.27,117.37c0-.61.5-1.11,1.11-1.11s1.11.5,1.11,1.11c0,.62-.5,1.11-1.11,1.11s-1.11-.5-1.11-1.11Z"/><path class="uuid-02a15b2e-b98d-4966-bfd1-afac2285b26c" d="m122.27,113.61c0-.61.5-1.11,1.11-1.11s1.11.5,1.11,1.11c0,.62-.5,1.11-1.11,1.11s-1.11-.5-1.11-1.11Z"/><path class="uuid-02a15b2e-b98d-4966-bfd1-afac2285b26c" d="m122.27,109.86c0-.61.5-1.11,1.11-1.11s1.11.5,1.11,1.11c0,.62-.5,1.11-1.11,1.11s-1.11-.5-1.11-1.11Z"/><path class="uuid-02a15b2e-b98d-4966-bfd1-afac2285b26c" d="m122.27,106.11c0-.61.5-1.11,1.11-1.11s1.11.5,1.11,1.11c0,.62-.5,1.11-1.11,1.11s-1.11-.5-1.11-1.11Z"/><path class="uuid-02a15b2e-b98d-4966-bfd1-afac2285b26c" d="m122.27,102.35c0-.61.5-1.11,1.11-1.11s1.11.5,1.11,1.11c0,.62-.5,1.11-1.11,1.11s-1.11-.5-1.11-1.11Z"/><path class="uuid-02a15b2e-b98d-4966-bfd1-afac2285b26c" d="m122.27,98.6c0-.61.5-1.11,1.11-1.11s1.11.5,1.11,1.11c0,.62-.5,1.11-1.11,1.11s-1.11-.5-1.11-1.11Z"/><path class="uuid-02a15b2e-b98d-4966-bfd1-afac2285b26c" d="m122.27,94.85c0-.61.5-1.11,1.11-1.11s1.11.5,1.11,1.11c0,.62-.5,1.11-1.11,1.11s-1.11-.5-1.11-1.11Z"/><path class="uuid-02a15b2e-b98d-4966-bfd1-afac2285b26c" d="m122.27,91.09c0-.61.5-1.11,1.11-1.11s1.11.5,1.11,1.11c0,.62-.5,1.11-1.11,1.11s-1.11-.5-1.11-1.11Z"/><path class="uuid-02a15b2e-b98d-4966-bfd1-afac2285b26c" d="m122.27,87.34c0-.61.5-1.11,1.11-1.11s1.11.5,1.11,1.11c0,.62-.5,1.11-1.11,1.11s-1.11-.5-1.11-1.11Z"/><path class="uuid-02a15b2e-b98d-4966-bfd1-afac2285b26c" d="m122.27,83.59c0-.61.5-1.11,1.11-1.11s1.11.5,1.11,1.11c0,.62-.5,1.11-1.11,1.11s-1.11-.5-1.11-1.11Z"/><path class="uuid-02a15b2e-b98d-4966-bfd1-afac2285b26c" d="m122.27,79.83c0-.61.5-1.11,1.11-1.11s1.11.5,1.11,1.11c0,.62-.5,1.11-1.11,1.11s-1.11-.5-1.11-1.11Z"/><path class="uuid-02a15b2e-b98d-4966-bfd1-afac2285b26c" d="m122.27,76.08c0-.61.5-1.11,1.11-1.11s1.11.5,1.11,1.11c0,.62-.5,1.11-1.11,1.11s-1.11-.5-1.11-1.11Z"/><path class="uuid-02a15b2e-b98d-4966-bfd1-afac2285b26c" d="m118.46,147.39c0-.64.52-1.17,1.17-1.17s1.17.52,1.17,1.17c0,.64-.52,1.17-1.17,1.17s-1.17-.52-1.17-1.17Z"/><path class="uuid-02a15b2e-b98d-4966-bfd1-afac2285b26c" d="m118.46,143.64c0-.64.52-1.17,1.17-1.17s1.17.52,1.17,1.17c0,.64-.52,1.17-1.17,1.17s-1.17-.52-1.17-1.17Z"/><path class="uuid-02a15b2e-b98d-4966-bfd1-afac2285b26c" d="m118.46,139.88c0-.64.52-1.17,1.17-1.17s1.17.52,1.17,1.17c0,.64-.52,1.17-1.17,1.17s-1.17-.52-1.17-1.17Z"/><path class="uuid-02a15b2e-b98d-4966-bfd1-afac2285b26c" d="m118.46,136.13c0-.64.52-1.17,1.17-1.17s1.17.52,1.17,1.17c0,.64-.52,1.17-1.17,1.17s-1.17-.52-1.17-1.17Z"/><path class="uuid-02a15b2e-b98d-4966-bfd1-afac2285b26c" d="m118.46,132.38c0-.64.52-1.17,1.17-1.17s1.17.52,1.17,1.17-.52,1.17-1.17,1.17-1.17-.52-1.17-1.17Z"/><path class="uuid-02a15b2e-b98d-4966-bfd1-afac2285b26c" d="m118.46,128.63c0-.64.52-1.17,1.17-1.17s1.17.52,1.17,1.17-.52,1.17-1.17,1.17-1.17-.52-1.17-1.17Z"/><path class="uuid-02a15b2e-b98d-4966-bfd1-afac2285b26c" d="m118.46,124.87c0-.64.52-1.17,1.17-1.17s1.17.52,1.17,1.17-.52,1.17-1.17,1.17-1.17-.52-1.17-1.17Z"/><path class="uuid-02a15b2e-b98d-4966-bfd1-afac2285b26c" d="m118.46,121.12c0-.64.52-1.17,1.17-1.17s1.17.52,1.17,1.17c0,.64-.52,1.17-1.17,1.17s-1.17-.52-1.17-1.17Z"/><path class="uuid-02a15b2e-b98d-4966-bfd1-afac2285b26c" d="m118.46,117.37c0-.64.52-1.17,1.17-1.17s1.17.52,1.17,1.17c0,.64-.52,1.17-1.17,1.17s-1.17-.52-1.17-1.17Z"/><path class="uuid-02a15b2e-b98d-4966-bfd1-afac2285b26c" d="m118.46,113.61c0-.64.52-1.17,1.17-1.17s1.17.52,1.17,1.17c0,.64-.52,1.17-1.17,1.17s-1.17-.52-1.17-1.17Z"/><path class="uuid-02a15b2e-b98d-4966-bfd1-afac2285b26c" d="m118.46,109.86c0-.64.52-1.17,1.17-1.17s1.17.52,1.17,1.17c0,.64-.52,1.17-1.17,1.17s-1.17-.52-1.17-1.17Z"/><path class="uuid-02a15b2e-b98d-4966-bfd1-afac2285b26c" d="m118.46,106.11c0-.64.52-1.17,1.17-1.17s1.17.52,1.17,1.17c0,.64-.52,1.17-1.17,1.17s-1.17-.52-1.17-1.17Z"/><path class="uuid-02a15b2e-b98d-4966-bfd1-afac2285b26c" d="m118.46,102.35c0-.64.52-1.17,1.17-1.17s1.17.52,1.17,1.17c0,.64-.52,1.17-1.17,1.17s-1.17-.52-1.17-1.17Z"/><path class="uuid-02a15b2e-b98d-4966-bfd1-afac2285b26c" d="m118.46,98.6c0-.64.52-1.17,1.17-1.17s1.17.52,1.17,1.17c0,.64-.52,1.17-1.17,1.17s-1.17-.52-1.17-1.17Z"/><path class="uuid-02a15b2e-b98d-4966-bfd1-afac2285b26c" d="m118.46,94.85c0-.64.52-1.17,1.17-1.17s1.17.52,1.17,1.17c0,.64-.52,1.17-1.17,1.17s-1.17-.52-1.17-1.17Z"/><path class="uuid-02a15b2e-b98d-4966-bfd1-afac2285b26c" d="m118.46,91.09c0-.64.52-1.17,1.17-1.17s1.17.52,1.17,1.17c0,.64-.52,1.17-1.17,1.17s-1.17-.52-1.17-1.17Z"/><path class="uuid-02a15b2e-b98d-4966-bfd1-afac2285b26c" d="m118.46,87.34c0-.64.52-1.17,1.17-1.17s1.17.52,1.17,1.17c0,.64-.52,1.17-1.17,1.17s-1.17-.52-1.17-1.17Z"/><path class="uuid-02a15b2e-b98d-4966-bfd1-afac2285b26c" d="m118.46,83.59c0-.64.52-1.17,1.17-1.17s1.17.52,1.17,1.17c0,.64-.52,1.17-1.17,1.17s-1.17-.52-1.17-1.17Z"/><path class="uuid-02a15b2e-b98d-4966-bfd1-afac2285b26c" d="m118.46,79.83c0-.64.52-1.17,1.17-1.17s1.17.52,1.17,1.17c0,.64-.52,1.17-1.17,1.17s-1.17-.52-1.17-1.17Z"/><path class="uuid-02a15b2e-b98d-4966-bfd1-afac2285b26c" d="m118.46,76.08c0-.64.52-1.17,1.17-1.17s1.17.52,1.17,1.17c0,.64-.52,1.17-1.17,1.17s-1.17-.52-1.17-1.17Z"/><circle class="uuid-02a15b2e-b98d-4966-bfd1-afac2285b26c" cx="115.87" cy="147.39" r="1.23"/><circle class="uuid-02a15b2e-b98d-4966-bfd1-afac2285b26c" cx="115.87" cy="143.64" r="1.23"/><circle class="uuid-02a15b2e-b98d-4966-bfd1-afac2285b26c" cx="115.87" cy="139.88" r="1.23"/><circle class="uuid-02a15b2e-b98d-4966-bfd1-afac2285b26c" cx="115.87" cy="136.13" r="1.23"/><circle class="uuid-02a15b2e-b98d-4966-bfd1-afac2285b26c" cx="115.87" cy="132.38" r="1.23"/><circle class="uuid-02a15b2e-b98d-4966-bfd1-afac2285b26c" cx="115.87" cy="128.63" r="1.23"/><circle class="uuid-02a15b2e-b98d-4966-bfd1-afac2285b26c" cx="115.87" cy="124.87" r="1.23"/><path class="uuid-02a15b2e-b98d-4966-bfd1-afac2285b26c" d="m114.65,121.12c0-.68.55-1.23,1.23-1.23s1.23.55,1.23,1.23c0,.68-.55,1.23-1.23,1.23s-1.23-.55-1.23-1.23Z"/><path class="uuid-02a15b2e-b98d-4966-bfd1-afac2285b26c" d="m114.65,117.37c0-.68.55-1.23,1.23-1.23s1.23.55,1.23,1.23c0,.68-.55,1.23-1.23,1.23s-1.23-.55-1.23-1.23Z"/><path class="uuid-02a15b2e-b98d-4966-bfd1-afac2285b26c" d="m114.65,113.61c0-.68.55-1.23,1.23-1.23s1.23.55,1.23,1.23c0,.68-.55,1.23-1.23,1.23s-1.23-.55-1.23-1.23Z"/><path class="uuid-02a15b2e-b98d-4966-bfd1-afac2285b26c" d="m114.65,109.86c0-.68.55-1.23,1.23-1.23s1.23.55,1.23,1.23c0,.68-.55,1.23-1.23,1.23s-1.23-.55-1.23-1.23Z"/><path class="uuid-02a15b2e-b98d-4966-bfd1-afac2285b26c" d="m114.65,106.11c0-.68.55-1.23,1.23-1.23s1.23.55,1.23,1.23c0,.68-.55,1.23-1.23,1.23s-1.23-.55-1.23-1.23Z"/><path class="uuid-02a15b2e-b98d-4966-bfd1-afac2285b26c" d="m114.65,102.35c0-.68.55-1.23,1.23-1.23s1.23.55,1.23,1.23c0,.68-.55,1.23-1.23,1.23s-1.23-.55-1.23-1.23Z"/><path class="uuid-02a15b2e-b98d-4966-bfd1-afac2285b26c" d="m114.65,98.6c0-.68.55-1.23,1.23-1.23s1.23.55,1.23,1.23c0,.68-.55,1.23-1.23,1.23s-1.23-.55-1.23-1.23Z"/><path class="uuid-02a15b2e-b98d-4966-bfd1-afac2285b26c" d="m114.65,94.85c0-.68.55-1.23,1.23-1.23s1.23.55,1.23,1.23-.55,1.23-1.23,1.23-1.23-.55-1.23-1.23Z"/><path class="uuid-02a15b2e-b98d-4966-bfd1-afac2285b26c" d="m114.65,91.09c0-.68.55-1.23,1.23-1.23s1.23.55,1.23,1.23-.55,1.23-1.23,1.23-1.23-.55-1.23-1.23Z"/><path class="uuid-02a15b2e-b98d-4966-bfd1-afac2285b26c" d="m114.65,87.34c0-.68.55-1.23,1.23-1.23s1.23.55,1.23,1.23c0,.68-.55,1.23-1.23,1.23s-1.23-.55-1.23-1.23Z"/><path class="uuid-02a15b2e-b98d-4966-bfd1-afac2285b26c" d="m114.65,83.59c0-.68.55-1.23,1.23-1.23s1.23.55,1.23,1.23c0,.68-.55,1.23-1.23,1.23s-1.23-.55-1.23-1.23Z"/><path class="uuid-02a15b2e-b98d-4966-bfd1-afac2285b26c" d="m114.65,79.83c0-.68.55-1.23,1.23-1.23s1.23.55,1.23,1.23c0,.68-.55,1.23-1.23,1.23s-1.23-.55-1.23-1.23Z"/><path class="uuid-02a15b2e-b98d-4966-bfd1-afac2285b26c" d="m114.65,76.08c0-.68.55-1.23,1.23-1.23s1.23.55,1.23,1.23c0,.68-.55,1.23-1.23,1.23s-1.23-.55-1.23-1.23Z"/><circle class="uuid-02a15b2e-b98d-4966-bfd1-afac2285b26c" cx="112.12" cy="147.39" r="1.3"/><circle class="uuid-02a15b2e-b98d-4966-bfd1-afac2285b26c" cx="112.12" cy="143.64" r="1.3"/><circle class="uuid-02a15b2e-b98d-4966-bfd1-afac2285b26c" cx="112.12" cy="139.88" r="1.3"/><circle class="uuid-02a15b2e-b98d-4966-bfd1-afac2285b26c" cx="112.12" cy="136.13" r="1.3"/><circle class="uuid-02a15b2e-b98d-4966-bfd1-afac2285b26c" cx="112.12" cy="132.38" r="1.3"/><circle class="uuid-02a15b2e-b98d-4966-bfd1-afac2285b26c" cx="112.12" cy="128.63" r="1.3"/><circle class="uuid-02a15b2e-b98d-4966-bfd1-afac2285b26c" cx="112.12" cy="124.87" r="1.3"/><circle class="uuid-02a15b2e-b98d-4966-bfd1-afac2285b26c" cx="112.12" cy="121.12" r="1.3"/><circle class="uuid-02a15b2e-b98d-4966-bfd1-afac2285b26c" cx="112.12" cy="117.37" r="1.3"/><circle class="uuid-02a15b2e-b98d-4966-bfd1-afac2285b26c" cx="112.12" cy="113.61" r="1.3"/><circle class="uuid-02a15b2e-b98d-4966-bfd1-afac2285b26c" cx="112.12" cy="109.86" r="1.3"/><circle class="uuid-02a15b2e-b98d-4966-bfd1-afac2285b26c" cx="112.12" cy="106.11" r="1.3"/><circle class="uuid-02a15b2e-b98d-4966-bfd1-afac2285b26c" cx="112.12" cy="102.35" r="1.3"/><path class="uuid-02a15b2e-b98d-4966-bfd1-afac2285b26c" d="m110.82,98.6c0-.72.58-1.3,1.3-1.3s1.3.58,1.3,1.3c0,.72-.58,1.3-1.3,1.3s-1.3-.58-1.3-1.3Z"/><path class="uuid-02a15b2e-b98d-4966-bfd1-afac2285b26c" d="m110.82,94.85c0-.72.58-1.3,1.3-1.3s1.3.58,1.3,1.3c0,.72-.58,1.3-1.3,1.3s-1.3-.58-1.3-1.3Z"/><path class="uuid-02a15b2e-b98d-4966-bfd1-afac2285b26c" d="m110.82,91.09c0-.72.58-1.3,1.3-1.3s1.3.58,1.3,1.3c0,.72-.58,1.3-1.3,1.3s-1.3-.58-1.3-1.3Z"/><path class="uuid-02a15b2e-b98d-4966-bfd1-afac2285b26c" d="m110.82,87.34c0-.72.58-1.3,1.3-1.3s1.3.58,1.3,1.3c0,.72-.58,1.3-1.3,1.3s-1.3-.58-1.3-1.3Z"/><path class="uuid-02a15b2e-b98d-4966-bfd1-afac2285b26c" d="m110.82,83.59c0-.72.58-1.3,1.3-1.3s1.3.58,1.3,1.3c0,.72-.58,1.3-1.3,1.3s-1.3-.58-1.3-1.3Z"/><path class="uuid-02a15b2e-b98d-4966-bfd1-afac2285b26c" d="m110.82,79.83c0-.72.58-1.3,1.3-1.3s1.3.58,1.3,1.3c0,.72-.58,1.3-1.3,1.3s-1.3-.58-1.3-1.3Z"/><path class="uuid-02a15b2e-b98d-4966-bfd1-afac2285b26c" d="m110.82,76.08c0-.72.58-1.3,1.3-1.3s1.3.58,1.3,1.3c0,.72-.58,1.3-1.3,1.3s-1.3-.58-1.3-1.3Z"/><path class="uuid-02a15b2e-b98d-4966-bfd1-afac2285b26c" d="m107,147.39c0-.75.61-1.36,1.36-1.36s1.36.61,1.36,1.36c0,.75-.61,1.36-1.36,1.36s-1.36-.61-1.36-1.36Z"/><path class="uuid-02a15b2e-b98d-4966-bfd1-afac2285b26c" d="m107,143.64c0-.75.61-1.36,1.36-1.36s1.36.61,1.36,1.36c0,.75-.61,1.36-1.36,1.36s-1.36-.61-1.36-1.36Z"/><path class="uuid-02a15b2e-b98d-4966-bfd1-afac2285b26c" d="m107,139.88c0-.75.61-1.36,1.36-1.36s1.36.61,1.36,1.36c0,.75-.61,1.36-1.36,1.36s-1.36-.61-1.36-1.36Z"/><path class="uuid-02a15b2e-b98d-4966-bfd1-afac2285b26c" d="m107,136.13c0-.75.61-1.36,1.36-1.36s1.36.61,1.36,1.36c0,.75-.61,1.36-1.36,1.36s-1.36-.61-1.36-1.36Z"/><path class="uuid-02a15b2e-b98d-4966-bfd1-afac2285b26c" d="m107,132.38c0-.75.61-1.36,1.36-1.36s1.36.61,1.36,1.36c0,.75-.61,1.36-1.36,1.36s-1.36-.61-1.36-1.36Z"/><path class="uuid-02a15b2e-b98d-4966-bfd1-afac2285b26c" d="m107,128.63c0-.75.61-1.36,1.36-1.36s1.36.61,1.36,1.36c0,.75-.61,1.36-1.36,1.36s-1.36-.61-1.36-1.36Z"/><path class="uuid-02a15b2e-b98d-4966-bfd1-afac2285b26c" d="m107,124.87c0-.75.61-1.36,1.36-1.36s1.36.61,1.36,1.36c0,.75-.61,1.36-1.36,1.36s-1.36-.61-1.36-1.36Z"/><path class="uuid-02a15b2e-b98d-4966-bfd1-afac2285b26c" d="m107,121.12c0-.75.61-1.36,1.36-1.36s1.36.61,1.36,1.36c0,.75-.61,1.36-1.36,1.36s-1.36-.61-1.36-1.36Z"/><path class="uuid-02a15b2e-b98d-4966-bfd1-afac2285b26c" d="m107,117.37c0-.75.61-1.36,1.36-1.36s1.36.61,1.36,1.36-.61,1.36-1.36,1.36-1.36-.61-1.36-1.36Z"/><path class="uuid-02a15b2e-b98d-4966-bfd1-afac2285b26c" d="m107,113.61c0-.75.61-1.36,1.36-1.36s1.36.61,1.36,1.36c0,.75-.61,1.36-1.36,1.36s-1.36-.61-1.36-1.36Z"/><path class="uuid-02a15b2e-b98d-4966-bfd1-afac2285b26c" d="m107,109.86c0-.75.61-1.36,1.36-1.36s1.36.61,1.36,1.36c0,.75-.61,1.36-1.36,1.36s-1.36-.61-1.36-1.36Z"/><path class="uuid-02a15b2e-b98d-4966-bfd1-afac2285b26c" d="m107,106.11c0-.75.61-1.36,1.36-1.36s1.36.61,1.36,1.36c0,.75-.61,1.36-1.36,1.36s-1.36-.61-1.36-1.36Z"/><path class="uuid-02a15b2e-b98d-4966-bfd1-afac2285b26c" d="m107,102.35c0-.75.61-1.36,1.36-1.36s1.36.61,1.36,1.36c0,.75-.61,1.36-1.36,1.36s-1.36-.61-1.36-1.36Z"/><path class="uuid-02a15b2e-b98d-4966-bfd1-afac2285b26c" d="m107,98.6c0-.75.61-1.36,1.36-1.36s1.36.61,1.36,1.36c0,.75-.61,1.36-1.36,1.36s-1.36-.61-1.36-1.36Z"/><path class="uuid-02a15b2e-b98d-4966-bfd1-afac2285b26c" d="m107,94.85c0-.75.61-1.36,1.36-1.36s1.36.61,1.36,1.36c0,.75-.61,1.36-1.36,1.36s-1.36-.61-1.36-1.36Z"/><path class="uuid-02a15b2e-b98d-4966-bfd1-afac2285b26c" d="m107,91.09c0-.75.61-1.36,1.36-1.36s1.36.61,1.36,1.36c0,.75-.61,1.36-1.36,1.36s-1.36-.61-1.36-1.36Z"/><path class="uuid-02a15b2e-b98d-4966-bfd1-afac2285b26c" d="m107,87.34c0-.75.61-1.36,1.36-1.36s1.36.61,1.36,1.36-.61,1.36-1.36,1.36-1.36-.61-1.36-1.36Z"/><path class="uuid-02a15b2e-b98d-4966-bfd1-afac2285b26c" d="m107,83.59c0-.75.61-1.36,1.36-1.36s1.36.61,1.36,1.36-.61,1.36-1.36,1.36-1.36-.61-1.36-1.36Z"/><path class="uuid-02a15b2e-b98d-4966-bfd1-afac2285b26c" d="m107,79.83c0-.75.61-1.36,1.36-1.36s1.36.61,1.36,1.36-.61,1.36-1.36,1.36-1.36-.61-1.36-1.36Z"/><path class="uuid-02a15b2e-b98d-4966-bfd1-afac2285b26c" d="m107,76.08c0-.75.61-1.36,1.36-1.36s1.36.61,1.36,1.36c0,.75-.61,1.36-1.36,1.36s-1.36-.61-1.36-1.36Z"/><circle class="uuid-02a15b2e-b98d-4966-bfd1-afac2285b26c" cx="104.61" cy="147.39" r="1.43"/><circle class="uuid-02a15b2e-b98d-4966-bfd1-afac2285b26c" cx="104.61" cy="143.64" r="1.43"/><circle class="uuid-02a15b2e-b98d-4966-bfd1-afac2285b26c" cx="104.61" cy="139.88" r="1.43"/><circle class="uuid-02a15b2e-b98d-4966-bfd1-afac2285b26c" cx="104.61" cy="136.13" r="1.43"/><circle class="uuid-02a15b2e-b98d-4966-bfd1-afac2285b26c" cx="104.61" cy="132.38" r="1.43"/><circle class="uuid-02a15b2e-b98d-4966-bfd1-afac2285b26c" cx="104.61" cy="128.63" r="1.43"/><circle class="uuid-02a15b2e-b98d-4966-bfd1-afac2285b26c" cx="104.61" cy="124.87" r="1.43"/><circle class="uuid-02a15b2e-b98d-4966-bfd1-afac2285b26c" cx="104.61" cy="121.12" r="1.43"/><circle class="uuid-02a15b2e-b98d-4966-bfd1-afac2285b26c" cx="104.61" cy="117.37" r="1.43"/><circle class="uuid-02a15b2e-b98d-4966-bfd1-afac2285b26c" cx="104.61" cy="113.61" r="1.43"/><circle class="uuid-02a15b2e-b98d-4966-bfd1-afac2285b26c" cx="104.61" cy="109.86" r="1.43"/><circle class="uuid-02a15b2e-b98d-4966-bfd1-afac2285b26c" cx="104.61" cy="106.11" r="1.43"/><circle class="uuid-02a15b2e-b98d-4966-bfd1-afac2285b26c" cx="104.61" cy="102.35" r="1.43"/><circle class="uuid-02a15b2e-b98d-4966-bfd1-afac2285b26c" cx="104.61" cy="98.6" r="1.43"/><circle class="uuid-02a15b2e-b98d-4966-bfd1-afac2285b26c" cx="104.61" cy="94.85" r="1.43"/><circle class="uuid-02a15b2e-b98d-4966-bfd1-afac2285b26c" cx="104.61" cy="91.09" r="1.43"/><circle class="uuid-02a15b2e-b98d-4966-bfd1-afac2285b26c" cx="104.61" cy="87.34" r="1.43"/><circle class="uuid-02a15b2e-b98d-4966-bfd1-afac2285b26c" cx="104.61" cy="83.59" r="1.43"/><circle class="uuid-02a15b2e-b98d-4966-bfd1-afac2285b26c" cx="104.61" cy="79.83" r="1.43"/><circle class="uuid-02a15b2e-b98d-4966-bfd1-afac2285b26c" cx="104.61" cy="76.08" r="1.43"/><path class="uuid-02a15b2e-b98d-4966-bfd1-afac2285b26c" d="m99.37,147.39c0-.82.67-1.49,1.49-1.49s1.49.67,1.49,1.49c0,.82-.67,1.49-1.49,1.49s-1.49-.67-1.49-1.49Z"/><path class="uuid-02a15b2e-b98d-4966-bfd1-afac2285b26c" d="m99.37,143.64c0-.82.67-1.49,1.49-1.49s1.49.67,1.49,1.49c0,.82-.67,1.49-1.49,1.49s-1.49-.67-1.49-1.49Z"/><path class="uuid-02a15b2e-b98d-4966-bfd1-afac2285b26c" d="m99.37,139.88c0-.82.67-1.49,1.49-1.49.82,0,1.49.67,1.49,1.49s-.67,1.49-1.49,1.49-1.49-.67-1.49-1.49Z"/><path class="uuid-02a15b2e-b98d-4966-bfd1-afac2285b26c" d="m99.37,136.13c0-.82.67-1.49,1.49-1.49s1.49.67,1.49,1.49-.67,1.49-1.49,1.49-1.49-.67-1.49-1.49Z"/><path class="uuid-02a15b2e-b98d-4966-bfd1-afac2285b26c" d="m99.37,132.38c0-.82.67-1.49,1.49-1.49s1.49.67,1.49,1.49-.67,1.49-1.49,1.49-1.49-.67-1.49-1.49Z"/><path class="uuid-02a15b2e-b98d-4966-bfd1-afac2285b26c" d="m99.37,128.63c0-.82.67-1.49,1.49-1.49s1.49.67,1.49,1.49c0,.82-.67,1.49-1.49,1.49s-1.49-.67-1.49-1.49Z"/><path class="uuid-02a15b2e-b98d-4966-bfd1-afac2285b26c" d="m99.37,124.87c0-.82.67-1.49,1.49-1.49s1.49.67,1.49,1.49c0,.82-.67,1.49-1.49,1.49s-1.49-.67-1.49-1.49Z"/><path class="uuid-02a15b2e-b98d-4966-bfd1-afac2285b26c" d="m99.37,121.12c0-.82.67-1.49,1.49-1.49s1.49.67,1.49,1.49c0,.82-.67,1.49-1.49,1.49s-1.49-.67-1.49-1.49Z"/><path class="uuid-02a15b2e-b98d-4966-bfd1-afac2285b26c" d="m99.37,117.37c0-.82.67-1.49,1.49-1.49s1.49.67,1.49,1.49-.67,1.49-1.49,1.49-1.49-.67-1.49-1.49Z"/><path class="uuid-02a15b2e-b98d-4966-bfd1-afac2285b26c" d="m99.37,113.61c0-.82.67-1.49,1.49-1.49s1.49.67,1.49,1.49c0,.82-.67,1.49-1.49,1.49s-1.49-.67-1.49-1.49Z"/><path class="uuid-02a15b2e-b98d-4966-bfd1-afac2285b26c" d="m99.37,109.86c0-.82.67-1.49,1.49-1.49s1.49.67,1.49,1.49c0,.82-.67,1.49-1.49,1.49s-1.49-.67-1.49-1.49Z"/><path class="uuid-02a15b2e-b98d-4966-bfd1-afac2285b26c" d="m99.37,106.11c0-.82.67-1.49,1.49-1.49s1.49.67,1.49,1.49c0,.82-.67,1.49-1.49,1.49s-1.49-.67-1.49-1.49Z"/><path class="uuid-02a15b2e-b98d-4966-bfd1-afac2285b26c" d="m99.37,102.35c0-.82.67-1.49,1.49-1.49s1.49.67,1.49,1.49c0,.82-.67,1.49-1.49,1.49s-1.49-.67-1.49-1.49Z"/><path class="uuid-02a15b2e-b98d-4966-bfd1-afac2285b26c" d="m99.37,98.6c0-.82.67-1.49,1.49-1.49s1.49.67,1.49,1.49c0,.82-.67,1.49-1.49,1.49s-1.49-.67-1.49-1.49Z"/><path class="uuid-02a15b2e-b98d-4966-bfd1-afac2285b26c" d="m99.37,94.85c0-.82.67-1.49,1.49-1.49s1.49.67,1.49,1.49c0,.82-.67,1.49-1.49,1.49s-1.49-.67-1.49-1.49Z"/><path class="uuid-02a15b2e-b98d-4966-bfd1-afac2285b26c" d="m99.37,91.09c0-.82.67-1.49,1.49-1.49s1.49.67,1.49,1.49c0,.82-.67,1.49-1.49,1.49s-1.49-.67-1.49-1.49Z"/><path class="uuid-02a15b2e-b98d-4966-bfd1-afac2285b26c" d="m99.37,87.34c0-.82.67-1.49,1.49-1.49s1.49.67,1.49,1.49c0,.82-.67,1.49-1.49,1.49s-1.49-.67-1.49-1.49Z"/><path class="uuid-02a15b2e-b98d-4966-bfd1-afac2285b26c" d="m99.37,83.59c0-.82.67-1.49,1.49-1.49s1.49.67,1.49,1.49c0,.82-.67,1.49-1.49,1.49s-1.49-.67-1.49-1.49Z"/><path class="uuid-02a15b2e-b98d-4966-bfd1-afac2285b26c" d="m99.37,79.83c0-.82.67-1.49,1.49-1.49s1.49.67,1.49,1.49-.67,1.49-1.49,1.49-1.49-.67-1.49-1.49Z"/><path class="uuid-02a15b2e-b98d-4966-bfd1-afac2285b26c" d="m99.37,76.08c0-.82.67-1.49,1.49-1.49s1.49.67,1.49,1.49-.67,1.49-1.49,1.49-1.49-.67-1.49-1.49Z"/><path class="uuid-02a15b2e-b98d-4966-bfd1-afac2285b26c" d="m95.53,147.39c0-.87.71-1.58,1.58-1.58s1.58.71,1.58,1.58c0,.87-.71,1.58-1.58,1.58s-1.58-.71-1.58-1.58Z"/><path class="uuid-02a15b2e-b98d-4966-bfd1-afac2285b26c" d="m95.53,143.64c0-.87.71-1.58,1.58-1.58s1.58.71,1.58,1.58c0,.87-.71,1.58-1.58,1.58s-1.58-.71-1.58-1.58Z"/><path class="uuid-02a15b2e-b98d-4966-bfd1-afac2285b26c" d="m95.53,139.88c0-.87.71-1.58,1.58-1.58s1.58.71,1.58,1.58c0,.87-.71,1.58-1.58,1.58s-1.58-.71-1.58-1.58Z"/><path class="uuid-02a15b2e-b98d-4966-bfd1-afac2285b26c" d="m95.53,136.13c0-.87.71-1.58,1.58-1.58s1.58.71,1.58,1.58-.71,1.58-1.58,1.58c-.87,0-1.58-.71-1.58-1.58Z"/><path class="uuid-02a15b2e-b98d-4966-bfd1-afac2285b26c" d="m95.53,132.38c0-.87.71-1.58,1.58-1.58s1.58.71,1.58,1.58-.71,1.58-1.58,1.58-1.58-.71-1.58-1.58Z"/><path class="uuid-02a15b2e-b98d-4966-bfd1-afac2285b26c" d="m95.53,128.63c0-.87.71-1.58,1.58-1.58s1.58.71,1.58,1.58-.71,1.58-1.58,1.58-1.58-.71-1.58-1.58Z"/><path class="uuid-02a15b2e-b98d-4966-bfd1-afac2285b26c" d="m95.53,124.87c0-.87.71-1.58,1.58-1.58s1.58.71,1.58,1.58-.71,1.58-1.58,1.58-1.58-.71-1.58-1.58Z"/><path class="uuid-02a15b2e-b98d-4966-bfd1-afac2285b26c" d="m95.53,121.12c0-.87.71-1.58,1.58-1.58s1.58.71,1.58,1.58-.71,1.58-1.58,1.58c-.87,0-1.58-.71-1.58-1.58Z"/><path class="uuid-02a15b2e-b98d-4966-bfd1-afac2285b26c" d="m95.53,117.37c0-.87.71-1.58,1.58-1.58s1.58.71,1.58,1.58c0,.87-.71,1.58-1.58,1.58s-1.58-.71-1.58-1.58Z"/><path class="uuid-02a15b2e-b98d-4966-bfd1-afac2285b26c" d="m95.53,113.61c0-.87.71-1.58,1.58-1.58s1.58.71,1.58,1.58c0,.87-.71,1.58-1.58,1.58s-1.58-.71-1.58-1.58Z"/><path class="uuid-02a15b2e-b98d-4966-bfd1-afac2285b26c" d="m95.53,109.86c0-.87.71-1.58,1.58-1.58s1.58.71,1.58,1.58-.71,1.58-1.58,1.58-1.58-.71-1.58-1.58Z"/><path class="uuid-02a15b2e-b98d-4966-bfd1-afac2285b26c" d="m95.53,106.11c0-.87.71-1.58,1.58-1.58s1.58.71,1.58,1.58-.71,1.58-1.58,1.58c-.87,0-1.58-.71-1.58-1.58Z"/><path class="uuid-02a15b2e-b98d-4966-bfd1-afac2285b26c" d="m95.53,102.35c0-.87.71-1.58,1.58-1.58s1.58.71,1.58,1.58-.71,1.58-1.58,1.58-1.58-.71-1.58-1.58Z"/><path class="uuid-02a15b2e-b98d-4966-bfd1-afac2285b26c" d="m95.53,98.6c0-.87.71-1.58,1.58-1.58s1.58.71,1.58,1.58c0,.87-.71,1.58-1.58,1.58s-1.58-.71-1.58-1.58Z"/><path class="uuid-02a15b2e-b98d-4966-bfd1-afac2285b26c" d="m95.53,94.85c0-.87.71-1.58,1.58-1.58s1.58.71,1.58,1.58c0,.87-.71,1.58-1.58,1.58s-1.58-.71-1.58-1.58Z"/><path class="uuid-02a15b2e-b98d-4966-bfd1-afac2285b26c" d="m95.53,91.09c0-.87.71-1.58,1.58-1.58s1.58.71,1.58,1.58-.71,1.58-1.58,1.58c-.87,0-1.58-.71-1.58-1.58Z"/><path class="uuid-02a15b2e-b98d-4966-bfd1-afac2285b26c" d="m95.53,87.34c0-.87.71-1.58,1.58-1.58.87,0,1.58.71,1.58,1.58s-.71,1.58-1.58,1.58-1.58-.71-1.58-1.58Z"/><path class="uuid-02a15b2e-b98d-4966-bfd1-afac2285b26c" d="m95.53,83.59c0-.87.71-1.58,1.58-1.58s1.58.71,1.58,1.58-.71,1.58-1.58,1.58-1.58-.71-1.58-1.58Z"/><path class="uuid-02a15b2e-b98d-4966-bfd1-afac2285b26c" d="m95.53,79.83c0-.87.71-1.58,1.58-1.58s1.58.71,1.58,1.58-.71,1.58-1.58,1.58-1.58-.71-1.58-1.58Z"/><path class="uuid-02a15b2e-b98d-4966-bfd1-afac2285b26c" d="m95.53,76.08c0-.87.71-1.58,1.58-1.58s1.58.71,1.58,1.58c0,.87-.71,1.58-1.58,1.58-.87,0-1.58-.71-1.58-1.58Z"/><circle class="uuid-02a15b2e-b98d-4966-bfd1-afac2285b26c" cx="93.35" cy="147.39" r="1.64"/><circle class="uuid-02a15b2e-b98d-4966-bfd1-afac2285b26c" cx="93.35" cy="143.64" r="1.64"/><circle class="uuid-02a15b2e-b98d-4966-bfd1-afac2285b26c" cx="93.35" cy="139.88" r="1.64"/><circle class="uuid-02a15b2e-b98d-4966-bfd1-afac2285b26c" cx="93.35" cy="136.13" r="1.64"/><circle class="uuid-02a15b2e-b98d-4966-bfd1-afac2285b26c" cx="93.35" cy="132.38" r="1.64"/><circle class="uuid-02a15b2e-b98d-4966-bfd1-afac2285b26c" cx="93.35" cy="128.63" r="1.64"/><circle class="uuid-02a15b2e-b98d-4966-bfd1-afac2285b26c" cx="93.35" cy="124.87" r="1.64"/><circle class="uuid-02a15b2e-b98d-4966-bfd1-afac2285b26c" cx="93.35" cy="121.12" r="1.64"/><circle class="uuid-02a15b2e-b98d-4966-bfd1-afac2285b26c" cx="93.35" cy="117.37" r="1.64"/><circle class="uuid-02a15b2e-b98d-4966-bfd1-afac2285b26c" cx="93.35" cy="113.61" r="1.64"/><circle class="uuid-02a15b2e-b98d-4966-bfd1-afac2285b26c" cx="93.35" cy="109.86" r="1.64"/><circle class="uuid-02a15b2e-b98d-4966-bfd1-afac2285b26c" cx="93.35" cy="106.11" r="1.64"/><circle class="uuid-02a15b2e-b98d-4966-bfd1-afac2285b26c" cx="93.35" cy="102.35" r="1.64"/><circle class="uuid-02a15b2e-b98d-4966-bfd1-afac2285b26c" cx="93.35" cy="98.6" r="1.64"/><circle class="uuid-02a15b2e-b98d-4966-bfd1-afac2285b26c" cx="93.35" cy="94.85" r="1.64"/><circle class="uuid-02a15b2e-b98d-4966-bfd1-afac2285b26c" cx="93.35" cy="91.09" r="1.64"/><circle class="uuid-02a15b2e-b98d-4966-bfd1-afac2285b26c" cx="93.35" cy="87.34" r="1.64"/><circle class="uuid-02a15b2e-b98d-4966-bfd1-afac2285b26c" cx="93.35" cy="83.59" r="1.64"/><circle class="uuid-02a15b2e-b98d-4966-bfd1-afac2285b26c" cx="93.35" cy="79.83" r="1.64"/><circle class="uuid-02a15b2e-b98d-4966-bfd1-afac2285b26c" cx="93.35" cy="76.08" r="1.64"/><circle class="uuid-02a15b2e-b98d-4966-bfd1-afac2285b26c" cx="89.6" cy="147.39" r="1.72"/><circle class="uuid-02a15b2e-b98d-4966-bfd1-afac2285b26c" cx="89.6" cy="143.64" r="1.72"/><circle class="uuid-02a15b2e-b98d-4966-bfd1-afac2285b26c" cx="89.6" cy="139.88" r="1.72"/><circle class="uuid-02a15b2e-b98d-4966-bfd1-afac2285b26c" cx="89.6" cy="136.13" r="1.72"/><circle class="uuid-02a15b2e-b98d-4966-bfd1-afac2285b26c" cx="89.6" cy="132.38" r="1.72"/><circle class="uuid-02a15b2e-b98d-4966-bfd1-afac2285b26c" cx="89.6" cy="128.63" r="1.72"/><circle class="uuid-02a15b2e-b98d-4966-bfd1-afac2285b26c" cx="89.6" cy="124.87" r="1.72"/><circle class="uuid-02a15b2e-b98d-4966-bfd1-afac2285b26c" cx="89.6" cy="121.12" r="1.72"/><circle class="uuid-02a15b2e-b98d-4966-bfd1-afac2285b26c" cx="89.6" cy="117.37" r="1.72"/><circle class="uuid-02a15b2e-b98d-4966-bfd1-afac2285b26c" cx="89.6" cy="113.61" r="1.72"/><circle class="uuid-02a15b2e-b98d-4966-bfd1-afac2285b26c" cx="89.6" cy="109.86" r="1.72"/><circle class="uuid-02a15b2e-b98d-4966-bfd1-afac2285b26c" cx="89.6" cy="106.11" r="1.72"/><circle class="uuid-02a15b2e-b98d-4966-bfd1-afac2285b26c" cx="89.6" cy="102.35" r="1.72"/><circle class="uuid-02a15b2e-b98d-4966-bfd1-afac2285b26c" cx="89.6" cy="98.6" r="1.72"/><circle class="uuid-02a15b2e-b98d-4966-bfd1-afac2285b26c" cx="89.6" cy="94.85" r="1.72"/><circle class="uuid-02a15b2e-b98d-4966-bfd1-afac2285b26c" cx="89.6" cy="91.09" r="1.72"/><circle class="uuid-02a15b2e-b98d-4966-bfd1-afac2285b26c" cx="89.6" cy="87.34" r="1.72"/><circle class="uuid-02a15b2e-b98d-4966-bfd1-afac2285b26c" cx="89.6" cy="83.59" r="1.72"/><circle class="uuid-02a15b2e-b98d-4966-bfd1-afac2285b26c" cx="89.6" cy="79.83" r="1.72"/><circle class="uuid-02a15b2e-b98d-4966-bfd1-afac2285b26c" cx="89.6" cy="76.08" r="1.72"/><path class="uuid-02a15b2e-b98d-4966-bfd1-afac2285b26c" d="m84.06,147.39c0-.99.8-1.79,1.79-1.79.99,0,1.79.8,1.79,1.79s-.8,1.79-1.79,1.79-1.79-.8-1.79-1.79Z"/><path class="uuid-02a15b2e-b98d-4966-bfd1-afac2285b26c" d="m84.06,143.64c0-.99.8-1.79,1.79-1.79s1.79.8,1.79,1.79-.8,1.79-1.79,1.79-1.79-.8-1.79-1.79Z"/><path class="uuid-02a15b2e-b98d-4966-bfd1-afac2285b26c" d="m84.06,139.88c0-.99.8-1.79,1.79-1.79s1.79.8,1.79,1.79c0,.99-.8,1.79-1.79,1.79s-1.79-.8-1.79-1.79Z"/><path class="uuid-02a15b2e-b98d-4966-bfd1-afac2285b26c" d="m84.06,136.13c0-.99.8-1.79,1.79-1.79s1.79.8,1.79,1.79c0,.99-.8,1.79-1.79,1.79s-1.79-.8-1.79-1.79Z"/><path class="uuid-02a15b2e-b98d-4966-bfd1-afac2285b26c" d="m84.06,132.38c0-.99.8-1.79,1.79-1.79s1.79.8,1.79,1.79c0,.99-.8,1.79-1.79,1.79s-1.79-.8-1.79-1.79Z"/><path class="uuid-02a15b2e-b98d-4966-bfd1-afac2285b26c" d="m84.06,128.63c0-.99.8-1.79,1.79-1.79s1.79.8,1.79,1.79c0,.99-.8,1.79-1.79,1.79s-1.79-.8-1.79-1.79Z"/><path class="uuid-02a15b2e-b98d-4966-bfd1-afac2285b26c" d="m84.06,124.87c0-.99.8-1.79,1.79-1.79s1.79.8,1.79,1.79-.8,1.79-1.79,1.79-1.79-.8-1.79-1.79Z"/><path class="uuid-02a15b2e-b98d-4966-bfd1-afac2285b26c" d="m84.06,121.12c0-.99.8-1.79,1.79-1.79s1.79.8,1.79,1.79-.8,1.79-1.79,1.79-1.79-.8-1.79-1.79Z"/><path class="uuid-02a15b2e-b98d-4966-bfd1-afac2285b26c" d="m84.06,117.37c0-.99.8-1.79,1.79-1.79s1.79.8,1.79,1.79c0,.99-.8,1.79-1.79,1.79s-1.79-.8-1.79-1.79Z"/><path class="uuid-02a15b2e-b98d-4966-bfd1-afac2285b26c" d="m84.06,113.61c0-.99.8-1.79,1.79-1.79s1.79.8,1.79,1.79-.8,1.79-1.79,1.79-1.79-.8-1.79-1.79Z"/><path class="uuid-02a15b2e-b98d-4966-bfd1-afac2285b26c" d="m84.06,109.86c0-.99.8-1.79,1.79-1.79s1.79.8,1.79,1.79-.8,1.79-1.79,1.79-1.79-.8-1.79-1.79Z"/><path class="uuid-02a15b2e-b98d-4966-bfd1-afac2285b26c" d="m84.06,106.11c0-.99.8-1.79,1.79-1.79s1.79.8,1.79,1.79-.8,1.79-1.79,1.79-1.79-.8-1.79-1.79Z"/><path class="uuid-02a15b2e-b98d-4966-bfd1-afac2285b26c" d="m84.06,102.35c0-.99.8-1.79,1.79-1.79s1.79.8,1.79,1.79-.8,1.79-1.79,1.79-1.79-.8-1.79-1.79Z"/><path class="uuid-02a15b2e-b98d-4966-bfd1-afac2285b26c" d="m84.06,98.6c0-.99.8-1.79,1.79-1.79s1.79.8,1.79,1.79c0,.99-.8,1.79-1.79,1.79s-1.79-.8-1.79-1.79Z"/><path class="uuid-02a15b2e-b98d-4966-bfd1-afac2285b26c" d="m84.06,94.85c0-.99.8-1.79,1.79-1.79s1.79.8,1.79,1.79c0,.99-.8,1.79-1.79,1.79s-1.79-.8-1.79-1.79Z"/><path class="uuid-02a15b2e-b98d-4966-bfd1-afac2285b26c" d="m84.06,91.09c0-.99.8-1.79,1.79-1.79s1.79.8,1.79,1.79-.8,1.79-1.79,1.79-1.79-.8-1.79-1.79Z"/><path class="uuid-02a15b2e-b98d-4966-bfd1-afac2285b26c" d="m84.06,87.34c0-.99.8-1.79,1.79-1.79.99,0,1.79.8,1.79,1.79s-.8,1.79-1.79,1.79-1.79-.8-1.79-1.79Z"/><path class="uuid-02a15b2e-b98d-4966-bfd1-afac2285b26c" d="m84.06,83.59c0-.99.8-1.79,1.79-1.79s1.79.8,1.79,1.79-.8,1.79-1.79,1.79-1.79-.8-1.79-1.79Z"/><path class="uuid-02a15b2e-b98d-4966-bfd1-afac2285b26c" d="m84.06,79.83c0-.99.8-1.79,1.79-1.79s1.79.8,1.79,1.79c0,.99-.8,1.79-1.79,1.79-.99,0-1.79-.8-1.79-1.79Z"/><path class="uuid-02a15b2e-b98d-4966-bfd1-afac2285b26c" d="m84.06,76.08c0-.99.8-1.79,1.79-1.79s1.79.8,1.79,1.79c0,.99-.8,1.79-1.79,1.79s-1.79-.8-1.79-1.79Z"/><path class="uuid-02a15b2e-b98d-4966-bfd1-afac2285b26c" d="m80.21,147.39c0-1.04.84-1.88,1.88-1.88s1.88.84,1.88,1.88-.84,1.88-1.88,1.88-1.88-.84-1.88-1.88Z"/><path class="uuid-02a15b2e-b98d-4966-bfd1-afac2285b26c" d="m80.21,143.64c0-1.04.84-1.88,1.88-1.88s1.88.84,1.88,1.88c0,1.04-.84,1.88-1.88,1.88-1.04,0-1.88-.84-1.88-1.88Z"/><path class="uuid-02a15b2e-b98d-4966-bfd1-afac2285b26c" d="m80.21,139.88c0-1.04.84-1.88,1.88-1.88s1.88.84,1.88,1.88-.84,1.88-1.88,1.88-1.88-.84-1.88-1.88Z"/><path class="uuid-02a15b2e-b98d-4966-bfd1-afac2285b26c" d="m80.21,136.13c0-1.04.84-1.88,1.88-1.88s1.88.84,1.88,1.88-.84,1.88-1.88,1.88-1.88-.84-1.88-1.88Z"/><path class="uuid-02a15b2e-b98d-4966-bfd1-afac2285b26c" d="m80.21,132.38c0-1.04.84-1.88,1.88-1.88s1.88.84,1.88,1.88-.84,1.88-1.88,1.88c-1.04,0-1.88-.84-1.88-1.88Z"/><path class="uuid-02a15b2e-b98d-4966-bfd1-afac2285b26c" d="m80.21,128.63c0-1.04.84-1.88,1.88-1.88s1.88.84,1.88,1.88-.84,1.88-1.88,1.88-1.88-.84-1.88-1.88Z"/><path class="uuid-02a15b2e-b98d-4966-bfd1-afac2285b26c" d="m80.21,124.87c0-1.04.84-1.88,1.88-1.88s1.88.84,1.88,1.88c0,1.04-.84,1.88-1.88,1.88s-1.88-.84-1.88-1.88Z"/><path class="uuid-02a15b2e-b98d-4966-bfd1-afac2285b26c" d="m80.21,121.12c0-1.04.84-1.88,1.88-1.88s1.88.84,1.88,1.88c0,1.04-.84,1.88-1.88,1.88s-1.88-.84-1.88-1.88Z"/><path class="uuid-02a15b2e-b98d-4966-bfd1-afac2285b26c" d="m80.21,117.37c0-1.04.84-1.88,1.88-1.88s1.88.84,1.88,1.88c0,1.04-.84,1.88-1.88,1.88s-1.88-.84-1.88-1.88Z"/><path class="uuid-02a15b2e-b98d-4966-bfd1-afac2285b26c" d="m80.21,113.61c0-1.04.84-1.88,1.88-1.88s1.88.84,1.88,1.88c0,1.04-.84,1.88-1.88,1.88s-1.88-.84-1.88-1.88Z"/><path class="uuid-02a15b2e-b98d-4966-bfd1-afac2285b26c" d="m80.21,109.86c0-1.04.84-1.88,1.88-1.88s1.88.84,1.88,1.88c0,1.04-.84,1.88-1.88,1.88s-1.88-.84-1.88-1.88Z"/><path class="uuid-02a15b2e-b98d-4966-bfd1-afac2285b26c" d="m80.21,106.11c0-1.04.84-1.88,1.88-1.88,1.04,0,1.88.84,1.88,1.88,0,1.04-.84,1.88-1.88,1.88s-1.88-.84-1.88-1.88Z"/><path class="uuid-02a15b2e-b98d-4966-bfd1-afac2285b26c" d="m80.21,102.35c0-1.04.84-1.88,1.88-1.88s1.88.84,1.88,1.88c0,1.04-.84,1.88-1.88,1.88s-1.88-.84-1.88-1.88Z"/><path class="uuid-02a15b2e-b98d-4966-bfd1-afac2285b26c" d="m80.21,98.6c0-1.04.84-1.88,1.88-1.88s1.88.84,1.88,1.88-.84,1.88-1.88,1.88-1.88-.84-1.88-1.88Z"/><path class="uuid-02a15b2e-b98d-4966-bfd1-afac2285b26c" d="m80.21,94.85c0-1.04.84-1.88,1.88-1.88,1.04,0,1.88.84,1.88,1.88s-.84,1.88-1.88,1.88-1.88-.84-1.88-1.88Z"/><path class="uuid-02a15b2e-b98d-4966-bfd1-afac2285b26c" d="m80.21,91.09c0-1.04.84-1.88,1.88-1.88s1.88.84,1.88,1.88-.84,1.88-1.88,1.88-1.88-.84-1.88-1.88Z"/><path class="uuid-02a15b2e-b98d-4966-bfd1-afac2285b26c" d="m80.21,87.34c0-1.04.84-1.88,1.88-1.88s1.88.84,1.88,1.88c0,1.04-.84,1.88-1.88,1.88s-1.88-.84-1.88-1.88Z"/><path class="uuid-02a15b2e-b98d-4966-bfd1-afac2285b26c" d="m80.21,83.59c0-1.04.84-1.88,1.88-1.88s1.88.84,1.88,1.88-.84,1.88-1.88,1.88-1.88-.84-1.88-1.88Z"/><path class="uuid-02a15b2e-b98d-4966-bfd1-afac2285b26c" d="m80.21,79.83c0-1.04.84-1.88,1.88-1.88s1.88.84,1.88,1.88c0,1.04-.84,1.88-1.88,1.88s-1.88-.84-1.88-1.88Z"/><path class="uuid-02a15b2e-b98d-4966-bfd1-afac2285b26c" d="m80.21,76.08c0-1.04.84-1.88,1.88-1.88s1.88.84,1.88,1.88-.84,1.88-1.88,1.88-1.88-.84-1.88-1.88Z"/><circle class="uuid-02a15b2e-b98d-4966-bfd1-afac2285b26c" cx="78.34" cy="147.39" r="1.95"/><circle class="uuid-02a15b2e-b98d-4966-bfd1-afac2285b26c" cx="78.34" cy="143.64" r="1.95"/><circle class="uuid-02a15b2e-b98d-4966-bfd1-afac2285b26c" cx="78.34" cy="139.88" r="1.95"/><circle class="uuid-02a15b2e-b98d-4966-bfd1-afac2285b26c" cx="78.34" cy="136.13" r="1.95"/><circle class="uuid-02a15b2e-b98d-4966-bfd1-afac2285b26c" cx="78.34" cy="132.38" r="1.95"/><circle class="uuid-02a15b2e-b98d-4966-bfd1-afac2285b26c" cx="78.34" cy="128.63" r="1.95"/><circle class="uuid-02a15b2e-b98d-4966-bfd1-afac2285b26c" cx="78.34" cy="124.87" r="1.95"/><circle class="uuid-02a15b2e-b98d-4966-bfd1-afac2285b26c" cx="78.34" cy="121.12" r="1.95"/><circle class="uuid-02a15b2e-b98d-4966-bfd1-afac2285b26c" cx="78.34" cy="117.37" r="1.95"/><circle class="uuid-02a15b2e-b98d-4966-bfd1-afac2285b26c" cx="78.34" cy="113.61" r="1.95"/><circle class="uuid-02a15b2e-b98d-4966-bfd1-afac2285b26c" cx="78.34" cy="109.86" r="1.95"/><circle class="uuid-02a15b2e-b98d-4966-bfd1-afac2285b26c" cx="78.34" cy="106.11" r="1.95"/><circle class="uuid-02a15b2e-b98d-4966-bfd1-afac2285b26c" cx="78.34" cy="102.35" r="1.95"/><circle class="uuid-02a15b2e-b98d-4966-bfd1-afac2285b26c" cx="78.34" cy="98.6" r="1.95"/><circle class="uuid-02a15b2e-b98d-4966-bfd1-afac2285b26c" cx="78.34" cy="94.85" r="1.95"/><circle class="uuid-02a15b2e-b98d-4966-bfd1-afac2285b26c" cx="78.34" cy="91.09" r="1.95"/><circle class="uuid-02a15b2e-b98d-4966-bfd1-afac2285b26c" cx="78.34" cy="87.34" r="1.95"/><circle class="uuid-02a15b2e-b98d-4966-bfd1-afac2285b26c" cx="78.34" cy="83.59" r="1.95"/><circle class="uuid-02a15b2e-b98d-4966-bfd1-afac2285b26c" cx="78.34" cy="79.83" r="1.95"/><circle class="uuid-02a15b2e-b98d-4966-bfd1-afac2285b26c" cx="78.34" cy="76.08" r="1.95"/><circle class="uuid-02a15b2e-b98d-4966-bfd1-afac2285b26c" cx="74.59" cy="147.39" r="2.03"/><circle class="uuid-02a15b2e-b98d-4966-bfd1-afac2285b26c" cx="74.59" cy="143.64" r="2.03"/><circle class="uuid-02a15b2e-b98d-4966-bfd1-afac2285b26c" cx="74.59" cy="139.88" r="2.03"/><circle class="uuid-02a15b2e-b98d-4966-bfd1-afac2285b26c" cx="74.59" cy="136.13" r="2.03"/><circle class="uuid-02a15b2e-b98d-4966-bfd1-afac2285b26c" cx="74.59" cy="132.38" r="2.03"/><circle class="uuid-02a15b2e-b98d-4966-bfd1-afac2285b26c" cx="74.59" cy="128.63" r="2.03"/><circle class="uuid-02a15b2e-b98d-4966-bfd1-afac2285b26c" cx="74.59" cy="124.87" r="2.03"/><circle class="uuid-02a15b2e-b98d-4966-bfd1-afac2285b26c" cx="74.59" cy="121.12" r="2.03"/><circle class="uuid-02a15b2e-b98d-4966-bfd1-afac2285b26c" cx="74.59" cy="117.37" r="2.03"/><circle class="uuid-02a15b2e-b98d-4966-bfd1-afac2285b26c" cx="74.59" cy="113.61" r="2.03"/><circle class="uuid-02a15b2e-b98d-4966-bfd1-afac2285b26c" cx="74.59" cy="109.86" r="2.03"/><circle class="uuid-02a15b2e-b98d-4966-bfd1-afac2285b26c" cx="74.59" cy="106.11" r="2.03"/><circle class="uuid-02a15b2e-b98d-4966-bfd1-afac2285b26c" cx="74.59" cy="102.35" r="2.03"/><circle class="uuid-02a15b2e-b98d-4966-bfd1-afac2285b26c" cx="74.59" cy="98.6" r="2.03"/><circle class="uuid-02a15b2e-b98d-4966-bfd1-afac2285b26c" cx="74.59" cy="94.85" r="2.03"/><circle class="uuid-02a15b2e-b98d-4966-bfd1-afac2285b26c" cx="74.59" cy="91.09" r="2.03"/><circle class="uuid-02a15b2e-b98d-4966-bfd1-afac2285b26c" cx="74.59" cy="87.34" r="2.03"/><circle class="uuid-02a15b2e-b98d-4966-bfd1-afac2285b26c" cx="74.59" cy="83.59" r="2.03"/><circle class="uuid-02a15b2e-b98d-4966-bfd1-afac2285b26c" cx="74.59" cy="79.83" r="2.03"/><circle class="uuid-02a15b2e-b98d-4966-bfd1-afac2285b26c" cx="74.59" cy="76.08" r="2.03"/></g><path class="uuid-02a15b2e-b98d-4966-bfd1-afac2285b26c" d="m0,74.31c0,.3,0,.59.01.89h74.28v-15.94H1.53c-1,4.86-1.53,9.9-1.53,15.06Z"/><path class="uuid-0888ddf9-b39f-47ff-9b0f-6c9dc86ba729" d="m2.18,56.4h72.11v-14.35H7.35c-2.19,4.54-3.94,9.35-5.17,14.35Z"/><path class="uuid-3f6d6d4e-6460-495f-80e4-2944e4ae22d2" d="m8.81,39.2h65.48v-12.76H17.48c-3.31,3.93-6.22,8.2-8.67,12.76Z"/><path class="uuid-b42e70b5-a54f-42c4-928f-3b123875770d" d="m20.02,23.59h54.27v-11.16h-41.11c-4.81,3.2-9.23,6.95-13.16,11.16Z"/><path class="uuid-8fb0b296-0982-4876-ad91-8635dc6c96af" d="m74.29.02C61.04.02,48.6,3.5,37.83,9.58h36.46V.02Z"/><path class="uuid-02a15b2e-b98d-4966-bfd1-afac2285b26c" d="m81.37,13.93v47.42c0,3.39,2.75,6.15,6.15,6.15h46.73s0,0,0,0c.37-29.52-23.45-53.56-52.88-53.56Z"/><path class="uuid-02a15b2e-b98d-4966-bfd1-afac2285b26c" d="m44.43,70.68v37.63c0,2.95,2.41,5.35,5.35,5.35s5.35-2.41,5.35-5.35v-37.63h-10.71Z"/><path class="uuid-02a15b2e-b98d-4966-bfd1-afac2285b26c" d="m25.28,70.68v49.54c0,2.95,2.41,5.35,5.35,5.35h0c2.95,0,5.35-2.41,5.35-5.35v-49.54h-10.71Z"/><path class="uuid-02a15b2e-b98d-4966-bfd1-afac2285b26c" d="m6.13,70.68v23.2c0,2.95,2.41,5.35,5.35,5.35s5.35-2.41,5.35-5.35v-23.2H6.13Z"/><path class="uuid-02a15b2e-b98d-4966-bfd1-afac2285b26c" d="m63.58,68.01v80.33c3.5.5,7.07.77,10.71.77v-81.1s-10.71,0-10.71,0Z"/></svg>