<?xml version="1.0" encoding="UTF-8"?><svg xmlns="http://www.w3.org/2000/svg" xmlns:xlink="http://www.w3.org/1999/xlink" viewBox="0 0 1280.94 731.05"><defs><style>.uuid-3ca4fcc2-b909-48af-92fd-671a83bf772e{fill:none;}.uuid-a6868c39-bcd6-42d5-974f-804368bc1365{fill:url(#uuid-f4b00b5b-b253-471c-94fa-7e9c6b87925e);}.uuid-189dbabf-1f48-4a49-b10c-0bf157374481{fill:url(#uuid-47436f7e-feaf-40a2-ba18-6e25ff109ee9);}.uuid-8fc59ec6-a47b-430e-b844-5a7ab0d528ac{fill:url(#uuid-4430b663-e1d2-4f1f-b277-fa6c176e28c0);}.uuid-f9f8d267-9a78-45d5-a736-777716f07176{fill:#fff;}.uuid-b560f12a-57e1-48be-a2bd-001347ac5bbc{fill:url(#uuid-6c1f5d62-edf9-49ce-9fb9-ec49680a9a19);}.uuid-e9c2c68f-38b6-462a-b44b-97bb16f83373{fill:#646464;}.uuid-e9c2c68f-38b6-462a-b44b-97bb16f83373,.uuid-8a72cb0d-5ea1-41a0-bda2-31e54357df77{mix-blend-mode:overlay;}.uuid-1ae30bc1-f4cd-44c3-ab02-15dfee1e2980{fill:url(#uuid-2638035a-fbc1-4a9f-9f3b-6bdfb200952b);}.uuid-1ae30bc1-f4cd-44c3-ab02-15dfee1e2980,.uuid-b3d4af7b-4e66-45f3-8276-fa85d62ea938,.uuid-dc1122cb-f22e-4bbc-9626-5a58d7c1e1ff{mix-blend-mode:color-burn;}.uuid-e0715719-205b-40c3-a007-35c5b73639a5{fill:url(#uuid-fd68348e-48e1-4578-91c0-b51f0cfd8307);}.uuid-b7626318-7711-4ed1-93f7-54c96caa2623{fill:url(#uuid-7c7d8fb6-0086-4019-9464-bbf0f732535e);}.uuid-ea93e4c2-57bd-4f04-bdc3-dd226cfff64c{fill:url(#uuid-fa358bd7-b878-41c6-9f61-b58456daf8c6);}.uuid-b3d4af7b-4e66-45f3-8276-fa85d62ea938{fill:url(#uuid-06357c2d-1180-41c4-97b9-ea5af7f2137d);}.uuid-3692ab55-fa5e-45aa-8f1a-81a6202e57fb{fill:url(#uuid-81f1c8fc-bcc9-461c-aad6-73998fdab042);}.uuid-e0685b21-d9cc-4f28-a6f5-9c3f40fa1861{fill:url(#uuid-119345f4-3050-4f6e-af9e-db349227599c);}.uuid-c28182f1-30c2-427a-92aa-f10d8ef606fb{fill:url(#uuid-efdf0aa2-1a22-4ce1-9530-4e9b4c51fce6);}.uuid-e0ee16d4-bda4-4827-a0d2-53f6014806cb{fill:url(#uuid-10ea705f-f025-43e6-adaf-9f0002b9b00a);}.uuid-27f11fef-2c87-49e3-8f67-616710d743b7{fill:url(#uuid-cb599955-3d45-45e0-ad78-4aee13f848a8);}.uuid-dc1122cb-f22e-4bbc-9626-5a58d7c1e1ff{fill:url(#uuid-eaddc694-c0de-452b-bb1f-9d779db4d7fe);}.uuid-4398b0c5-f1cb-49bf-9644-2d7c569270f3{clip-path:url(#uuid-0b91e8bb-fb4f-455c-bbb4-f5bf12f21f6a);}.uuid-3dd2fa3c-6208-40dc-a19d-db3ead1ec986{fill:url(#uuid-93d32241-72e6-496d-b4ad-0d9e7380107a);}.uuid-d8bfd8ce-dc6b-46f7-9004-758a6fc1db90{isolation:isolate;}.uuid-4786e5b4-addb-411a-a3d8-ff28607e1c10{fill:url(#uuid-398f6803-967e-4bc1-a239-b465b9ea0a02);}.uuid-30f0ec38-0daa-4499-af3d-7c420f929150{fill:url(#uuid-71399be6-cfc3-4a36-adbf-45f3fb65a291);}.uuid-dd60bc02-bb97-48fc-8aef-7636e7b38d9b{fill:url(#uuid-adc8e16c-b844-4722-8008-e4c6f33747df);}</style><clipPath id="uuid-0b91e8bb-fb4f-455c-bbb4-f5bf12f21f6a"><rect class="uuid-3ca4fcc2-b909-48af-92fd-671a83bf772e" width="1281" height="731"/></clipPath><linearGradient id="uuid-fd68348e-48e1-4578-91c0-b51f0cfd8307" x1="130.84" y1="718.29" x2="1252" y2="-57.01" gradientUnits="userSpaceOnUse"><stop offset="0" stop-color="#16223a"/><stop offset="1" stop-color="#263d66"/></linearGradient><linearGradient id="uuid-47436f7e-feaf-40a2-ba18-6e25ff109ee9" x1="17.29" y1="734.1" x2="681.36" y2="734.1" gradientTransform="translate(-20.48 -195.22) rotate(6.68)" gradientUnits="userSpaceOnUse"><stop offset="0" stop-color="#792a10"/><stop offset="1" stop-color="#ed6e4f"/></linearGradient><linearGradient id="uuid-93d32241-72e6-496d-b4ad-0d9e7380107a" x1="698.8" y1="115.52" x2="1381.59" y2="115.52" gradientUnits="userSpaceOnUse"><stop offset="0" stop-color="#1a636e"/><stop offset="1" stop-color="#95c4b3"/></linearGradient><linearGradient id="uuid-adc8e16c-b844-4722-8008-e4c6f33747df" x1="-231.9" y1="683.46" x2="270.86" y2="683.46" xlink:href="#uuid-fd68348e-48e1-4578-91c0-b51f0cfd8307"/><linearGradient id="uuid-fa358bd7-b878-41c6-9f61-b58456daf8c6" x1="-200.56" y1="683.46" x2="239.52" y2="683.46" xlink:href="#uuid-fd68348e-48e1-4578-91c0-b51f0cfd8307"/><linearGradient id="uuid-4430b663-e1d2-4f1f-b277-fa6c176e28c0" x1="-169.21" y1="683.46" x2="208.18" y2="683.46" xlink:href="#uuid-fd68348e-48e1-4578-91c0-b51f0cfd8307"/><linearGradient id="uuid-6c1f5d62-edf9-49ce-9fb9-ec49680a9a19" x1="-137.87" y1="683.46" x2="176.83" y2="683.46" xlink:href="#uuid-fd68348e-48e1-4578-91c0-b51f0cfd8307"/><linearGradient id="uuid-cb599955-3d45-45e0-ad78-4aee13f848a8" x1="-106.53" y1="683.46" x2="145.49" y2="683.46" xlink:href="#uuid-fd68348e-48e1-4578-91c0-b51f0cfd8307"/><linearGradient id="uuid-10ea705f-f025-43e6-adaf-9f0002b9b00a" x1="1075.62" y1="-46.44" x2="1578.39" y2="-46.44" xlink:href="#uuid-fd68348e-48e1-4578-91c0-b51f0cfd8307"/><linearGradient id="uuid-7c7d8fb6-0086-4019-9464-bbf0f732535e" x1="1106.97" y1="-46.44" x2="1547.04" y2="-46.44" xlink:href="#uuid-fd68348e-48e1-4578-91c0-b51f0cfd8307"/><linearGradient id="uuid-efdf0aa2-1a22-4ce1-9530-4e9b4c51fce6" x1="1138.31" y1="-46.44" x2="1515.7" y2="-46.44" xlink:href="#uuid-fd68348e-48e1-4578-91c0-b51f0cfd8307"/><linearGradient id="uuid-f4b00b5b-b253-471c-94fa-7e9c6b87925e" x1="1169.65" y1="-46.44" x2="1484.36" y2="-46.44" xlink:href="#uuid-fd68348e-48e1-4578-91c0-b51f0cfd8307"/><linearGradient id="uuid-398f6803-967e-4bc1-a239-b465b9ea0a02" x1="1200.99" y1="-46.44" x2="1453.01" y2="-46.44" xlink:href="#uuid-fd68348e-48e1-4578-91c0-b51f0cfd8307"/><radialGradient id="uuid-2638035a-fbc1-4a9f-9f3b-6bdfb200952b" cx="1193.74" cy="642.91" fx="1193.74" fy="642.91" r="66.74" gradientUnits="userSpaceOnUse"><stop offset=".2" stop-color="#4e4d4d"/><stop offset=".58" stop-color="#a9a9a9"/><stop offset=".87" stop-color="#e7e6e6"/><stop offset="1" stop-color="#fff"/></radialGradient><linearGradient id="uuid-81f1c8fc-bcc9-461c-aad6-73998fdab042" x1="4265.46" y1="-667.13" x2="4265.46" y2="-748.5" gradientTransform="translate(5459.45 -81.2) rotate(-180)" gradientUnits="userSpaceOnUse"><stop offset="0" stop-color="#feebd1"/><stop offset="1" stop-color="#f6a01c"/></linearGradient><radialGradient id="uuid-eaddc694-c0de-452b-bb1f-9d779db4d7fe" cx="370.81" cy="694.41" fx="370.81" fy="694.41" r="28.1" xlink:href="#uuid-2638035a-fbc1-4a9f-9f3b-6bdfb200952b"/><linearGradient id="uuid-119345f4-3050-4f6e-af9e-db349227599c" x1="3457.43" y1="342.11" x2="3457.43" y2="307.85" gradientTransform="translate(3810.82 209.45) rotate(166.72)" xlink:href="#uuid-81f1c8fc-bcc9-461c-aad6-73998fdab042"/><radialGradient id="uuid-06357c2d-1180-41c4-97b9-ea5af7f2137d" cx="202.26" cy="95.37" fx="202.26" fy="95.37" r="58.36" gradientTransform="translate(126.68 -115.09) rotate(45)" xlink:href="#uuid-2638035a-fbc1-4a9f-9f3b-6bdfb200952b"/><linearGradient id="uuid-71399be6-cfc3-4a36-adbf-45f3fb65a291" x1="3139.85" y1="-1527.03" x2="3139.85" y2="-1598.18" gradientTransform="translate(3342.33 -1481.49) rotate(-180)" xlink:href="#uuid-81f1c8fc-bcc9-461c-aad6-73998fdab042"/></defs><g class="uuid-d8bfd8ce-dc6b-46f7-9004-758a6fc1db90"><g id="uuid-36c0f412-6294-4957-97ec-d3bc01aacae9"><g class="uuid-4398b0c5-f1cb-49bf-9644-2d7c569270f3"><rect class="uuid-e0715719-205b-40c3-a007-35c5b73639a5" x="-.22" y="-.06" width="1281.11" height="732.06"/><path class="uuid-189dbabf-1f48-4a49-b10c-0bf157374481" d="m344.23,240.03c-24.06-31.47-64.5-41.23-107.88-14.96-37.38,22.65-60.06,51.43-114.94,45.43-209.68-22.93-211.7,116.59-171.05,203.72,58.34,125.06,27.76,161.96,16.4,240.7-7.95,55.05-9.33,100.44,25.28,150.26,51.83,74.6,140.7,78.41,204.82,36.51,31.48-20.57,62.8-47.95,82.94-63.26,54.09-41.1,79.55-47.2,160.96-77.18,157.56-61.05,167.67-201.28,49.45-266.31-101.21-55.66-108.71-58.39-117.37-146.38-3.64-36.96-1.07-72.53-28.6-108.54Z"/><path class="uuid-3dd2fa3c-6208-40dc-a19d-db3ead1ec986" d="m1089.1,402c70.78,144.09,237.5,55.67,224.57-112.53-5.37-69.83-24.43-121.26,21.96-181.48,11.5-14.93,21.49-31.04,32.19-46.59,19.78-28.76,19.95-81.26-10.64-119.31-44.29-55.09-100.03-100.51-157.86-141.19-75.63-53.21-164.58-68.81-214.92,12.12-29.36,47.2-34,95.02-88.6,110.1-31.92,8.81-53.86,15.54-76.05,43.9-39.71,50.78-36.75,32-70.96,51.33-82.2,46.45-55.97,159.61,27.23,207.16,55.43,31.68,114.22,18.91,147.47,17.84,120.09-3.9,108.17,41.73,165.61,158.66Z"/><path class="uuid-e9c2c68f-38b6-462a-b44b-97bb16f83373" d="m369.84-327.16c-13.27,70.09,29.04,137.79,87.54,172.91,66.16,39.73,123.18,55.82,136.97,133.48,4.46,25.11,11.81,60.55,23.34,83.48,42.41,84.3,140.88,59.25,214.8,57.47,69.4-1.66,114.62,37.72,184.55,94.47.44.36,146.65,186.43,213.8,1.9,12.45-34.2,15.43-62.25,20.76-81,20.96-73.76,88.27-71.26,190.22-114.67,129.02-54.95,170.66-205.32,32.28-255.62-53.18-19.34-99.19-22.08-150.2-47.1-104.23-51.12-93.61-156.08-184.07-201.33-32.39-20.15-81.1-24.76-114.23-19.46-127.57,20.42-177.18,70.85-269.43,43.21-31.35-9.39-70.4-27.33-117.08-34.58-120.25-18.68-248.36,56.58-269.24,166.83Z"/><path class="uuid-e9c2c68f-38b6-462a-b44b-97bb16f83373" d="m-255.06,432.78c-13.27,70.09,29.04,137.79,87.54,172.91,66.16,39.73,123.18,55.82,136.97,133.48,4.46,25.11,11.81,60.55,23.34,83.48,42.41,84.3,140.88,59.25,214.8,57.47,69.4-1.66,114.62,37.72,184.55,94.47.44.36,146.65,186.43,213.8,1.9,12.45-34.2,15.43-62.25,20.76-81,20.96-73.76,88.27-71.26,190.22-114.67,129.02-54.95,170.66-205.31,32.28-255.62-53.18-19.34-99.19-22.08-150.2-47.1-104.23-51.12-93.61-156.08-184.07-201.33-32.39-20.15-81.1-24.76-114.23-19.46-127.57,20.42-177.18,70.85-269.43,43.21-31.35-9.39-70.4-27.33-117.08-34.58-120.25-18.68-248.36,56.58-269.24,166.83Z"/><g class="uuid-8a72cb0d-5ea1-41a0-bda2-31e54357df77"><path class="uuid-f9f8d267-9a78-45d5-a736-777716f07176" d="m1375.01,582.45c-.39,0-.77,0-1.16,0-31.31-.26-63.52-10.79-90.69-29.67-27.17-18.88-48.28-45.38-59.44-74.64-4.19-10.98-7.29-22.69-10.3-34.02-6.01-22.68-12.23-46.14-27.42-64.08-11.18-13.21-26.43-22.36-41.17-31.22-13.06-7.84-26.56-15.95-37.36-26.89-21.94-22.22-30.77-53.59-39.32-83.93-8.87-31.5-18.05-64.08-41.97-85.83-36.67-33.35-93.63-28.91-139.16-21.32l-5.31.89c-47.83,8.02-97.29,16.32-138.43-6.96-30.77-17.42-51.2-52.87-50.82-88.23.38-35.36,21.55-70.37,52.68-87.13l.6,1.12c-30.74,16.54-51.64,51.11-52.02,86.02-.37,34.91,19.79,69.92,50.17,87.11,40.75,23.06,89.98,14.8,137.6,6.81l5.31-.89c45.81-7.64,103.15-12.09,140.22,21.63,24.19,22,33.41,54.75,42.34,86.43,8.5,30.19,17.29,61.4,39,83.38,10.69,10.83,24.13,18.9,37.11,26.7,14.83,8.91,30.17,18.12,41.49,31.48,15.38,18.16,21.63,41.76,27.68,64.58,2.99,11.3,6.09,22.97,10.25,33.89,23.05,60.4,84.3,102.96,148.96,103.49,31.48.29,58.43-10.11,74.06-28.46l.97.82c-15.68,18.41-42.56,28.91-73.88,28.91Z"/></g><g class="uuid-8a72cb0d-5ea1-41a0-bda2-31e54357df77"><path class="uuid-f9f8d267-9a78-45d5-a736-777716f07176" d="m512.6,777.35c-27.9-10.32-34.07-45.89-35.43-60.7-.57-6.22-.86-12.63-1.14-18.82-.82-18.12-1.67-36.86-9.65-53.15-15.13-30.88-51.57-43.65-71.95-48.51-12.21-2.92-24.87-4.84-37.12-6.7-17.07-2.59-34.72-5.27-51.42-10.68-47.35-15.33-86.91-54.06-103.25-101.07-2.94-8.45-5.26-17.37-7.5-25.99-5.15-19.79-10.48-40.26-23.57-55.99-24.06-28.89-65.21-33.37-105.31-35.48-20.85-1.1-42.41-2.24-63.08,2.73-22.96,5.51-41.09,18.42-49.73,35.41l-1.13-.58c8.82-17.33,27.25-30.47,50.57-36.07,20.85-5,42.51-3.86,63.45-2.76,40.37,2.13,81.83,6.66,106.22,35.94,13.28,15.94,18.64,36.55,23.82,56.48,2.24,8.6,4.55,17.49,7.47,25.89,16.21,46.64,55.46,85.07,102.44,100.28,16.61,5.38,34.2,8.05,51.22,10.63,12.27,1.86,24.96,3.79,37.22,6.72,35.56,8.49,61.41,25.96,72.8,49.19,8.1,16.53,8.95,35.41,9.78,53.66.28,6.18.57,12.58,1.14,18.77,1.34,14.57,7.39,49.55,34.61,59.62l-.44,1.19Z"/></g><path class="uuid-dd60bc02-bb97-48fc-8aef-7636e7b38d9b" d="m19.48,934.85c-67.2,0-130.34-26.13-177.8-73.59-47.45-47.45-73.59-110.6-73.59-177.8s26.13-130.34,73.59-177.8c47.45-47.45,110.6-73.59,177.8-73.59s130.34,26.13,177.8,73.59c47.45,47.45,73.59,110.59,73.59,177.8s-26.13,130.34-73.59,177.8c-47.45,47.45-110.6,73.59-177.8,73.59Zm0-501.49c-137.91,0-250.11,112.2-250.11,250.11s112.2,250.11,250.11,250.11,250.11-112.2,250.11-250.11-112.2-250.11-250.11-250.11Z"/><path class="uuid-ea93e4c2-57bd-4f04-bdc3-dd226cfff64c" d="m19.48,903.5c-121.33,0-220.04-98.71-220.04-220.04S-101.85,463.43,19.48,463.43s220.04,98.71,220.04,220.04-98.71,220.04-220.04,220.04Zm0-438.81c-120.63,0-218.77,98.14-218.77,218.77s98.14,218.77,218.77,218.77,218.77-98.14,218.77-218.77-98.14-218.77-218.77-218.77Z"/><path class="uuid-8fc59ec6-a47b-430e-b844-5a7ab0d528ac" d="m19.48,872.16c-104.05,0-188.7-84.65-188.7-188.7S-84.57,494.77,19.48,494.77s188.7,84.65,188.7,188.69-84.65,188.7-188.7,188.7Zm0-376.12c-103.35,0-187.42,84.08-187.42,187.42s84.08,187.42,187.42,187.42,187.42-84.08,187.42-187.42S122.83,496.04,19.48,496.04Z"/><path class="uuid-b560f12a-57e1-48be-a2bd-001347ac5bbc" d="m19.48,840.82c-86.76,0-157.35-70.59-157.35-157.35s70.59-157.35,157.35-157.35,157.35,70.59,157.35,157.35-70.59,157.35-157.35,157.35Zm0-313.43c-86.06,0-156.08,70.02-156.08,156.08s70.02,156.08,156.08,156.08,156.08-70.02,156.08-156.08-70.02-156.08-156.08-156.08Z"/><path class="uuid-27f11fef-2c87-49e3-8f67-616710d743b7" d="m19.48,809.47c-69.48,0-126.01-56.53-126.01-126.01s56.53-126.01,126.01-126.01,126.01,56.53,126.01,126.01-56.53,126.01-126.01,126.01Zm0-250.75c-68.78,0-124.74,55.96-124.74,124.74s55.96,124.74,124.74,124.74,124.74-55.96,124.74-124.74-55.96-124.74-124.74-124.74Z"/><path class="uuid-e0ee16d4-bda4-4827-a0d2-53f6014806cb" d="m1327,204.94c-67.2,0-130.34-26.13-177.8-73.59-47.45-47.45-73.59-110.6-73.59-177.8s26.13-130.34,73.59-177.8c47.45-47.45,110.6-73.59,177.8-73.59s130.34,26.13,177.8,73.59c47.45,47.45,73.59,110.6,73.59,177.8s-26.13,130.34-73.59,177.8c-47.45,47.45-110.6,73.59-177.8,73.59Zm0-501.49c-137.91,0-250.11,112.2-250.11,250.11s112.2,250.11,250.11,250.11,250.11-112.2,250.11-250.11-112.2-250.11-250.11-250.11Z"/><path class="uuid-b7626318-7711-4ed1-93f7-54c96caa2623" d="m1327,173.6c-121.33,0-220.04-98.71-220.04-220.04s98.71-220.04,220.04-220.04,220.04,98.71,220.04,220.04-98.71,220.04-220.04,220.04Zm0-438.81c-120.63,0-218.77,98.14-218.77,218.77s98.14,218.77,218.77,218.77,218.77-98.14,218.77-218.77-98.14-218.77-218.77-218.77Z"/><path class="uuid-c28182f1-30c2-427a-92aa-f10d8ef606fb" d="m1327,142.26c-104.05,0-188.7-84.65-188.7-188.7s84.65-188.69,188.7-188.69,188.69,84.65,188.69,188.69-84.65,188.7-188.69,188.7Zm0-376.12c-103.35,0-187.42,84.08-187.42,187.42s84.08,187.42,187.42,187.42,187.42-84.08,187.42-187.42-84.08-187.42-187.42-187.42Z"/><path class="uuid-a6868c39-bcd6-42d5-974f-804368bc1365" d="m1327,110.91c-86.76,0-157.35-70.59-157.35-157.35s70.59-157.35,157.35-157.35,157.35,70.59,157.35,157.35-70.59,157.35-157.35,157.35Zm0-313.43c-86.06,0-156.08,70.02-156.08,156.08s70.02,156.08,156.08,156.08,156.08-70.02,156.08-156.08-70.02-156.08-156.08-156.08Z"/><path class="uuid-4786e5b4-addb-411a-a3d8-ff28607e1c10" d="m1327,79.57c-69.48,0-126.01-56.53-126.01-126.01s56.53-126.01,126.01-126.01,126.01,56.53,126.01,126.01-56.53,126.01-126.01,126.01Zm0-250.75c-68.78,0-124.74,55.96-124.74,124.74s55.96,124.74,124.74,124.74,124.74-55.96,124.74-124.74-55.96-124.74-124.74-124.74Z"/><circle class="uuid-1ae30bc1-f4cd-44c3-ab02-15dfee1e2980" cx="1193.74" cy="642.91" r="66.74"/><circle class="uuid-3692ab55-fa5e-45aa-8f1a-81a6202e57fb" cx="1194" cy="623.66" r="48.77" transform="translate(-100.55 251.2) rotate(-11.53)"/><circle class="uuid-dc1122cb-f22e-4bbc-9626-5a58d7c1e1ff" cx="370.81" cy="694.41" r="28.1"/><circle class="uuid-e0685b21-d9cc-4f28-a6f5-9c3f40fa1861" cx="370.92" cy="686.31" r="20.54" transform="translate(-305.42 297.51) rotate(-31.72)"/><circle class="uuid-b3d4af7b-4e66-45f3-8276-fa85d62ea938" cx="202.26" cy="95.37" r="58.36" transform="translate(-8.19 170.96) rotate(-45)"/><circle class="uuid-30f0ec38-0daa-4499-af3d-7c420f929150" cx="202.49" cy="78.53" r="42.65"/><g class="uuid-8a72cb0d-5ea1-41a0-bda2-31e54357df77"><circle class="uuid-f9f8d267-9a78-45d5-a736-777716f07176" cx="56.82" cy="56.72" r="2.24"/><circle class="uuid-f9f8d267-9a78-45d5-a736-777716f07176" cx="72.07" cy="56.72" r="2.24"/><circle class="uuid-f9f8d267-9a78-45d5-a736-777716f07176" cx="87.32" cy="56.72" r="2.24"/><circle class="uuid-f9f8d267-9a78-45d5-a736-777716f07176" cx="102.57" cy="56.72" r="2.24"/><circle class="uuid-f9f8d267-9a78-45d5-a736-777716f07176" cx="117.82" cy="56.72" r="2.24"/><circle class="uuid-f9f8d267-9a78-45d5-a736-777716f07176" cx="56.82" cy="71.97" r="2.24"/><circle class="uuid-f9f8d267-9a78-45d5-a736-777716f07176" cx="72.07" cy="71.97" r="2.24"/><circle class="uuid-f9f8d267-9a78-45d5-a736-777716f07176" cx="87.32" cy="71.97" r="2.24"/><circle class="uuid-f9f8d267-9a78-45d5-a736-777716f07176" cx="102.57" cy="71.97" r="2.24"/><circle class="uuid-f9f8d267-9a78-45d5-a736-777716f07176" cx="117.82" cy="71.97" r="2.24"/><circle class="uuid-f9f8d267-9a78-45d5-a736-777716f07176" cx="56.82" cy="87.22" r="2.24"/><circle class="uuid-f9f8d267-9a78-45d5-a736-777716f07176" cx="72.07" cy="87.22" r="2.24"/><circle class="uuid-f9f8d267-9a78-45d5-a736-777716f07176" cx="87.32" cy="87.22" r="2.24"/><circle class="uuid-f9f8d267-9a78-45d5-a736-777716f07176" cx="102.57" cy="87.22" r="2.24"/><circle class="uuid-f9f8d267-9a78-45d5-a736-777716f07176" cx="117.82" cy="87.22" r="2.24"/><circle class="uuid-f9f8d267-9a78-45d5-a736-777716f07176" cx="56.82" cy="102.47" r="2.24"/><circle class="uuid-f9f8d267-9a78-45d5-a736-777716f07176" cx="72.07" cy="102.47" r="2.24"/><circle class="uuid-f9f8d267-9a78-45d5-a736-777716f07176" cx="87.32" cy="102.47" r="2.24"/><circle class="uuid-f9f8d267-9a78-45d5-a736-777716f07176" cx="102.57" cy="102.47" r="2.24"/><circle class="uuid-f9f8d267-9a78-45d5-a736-777716f07176" cx="117.82" cy="102.47" r="2.24"/><circle class="uuid-f9f8d267-9a78-45d5-a736-777716f07176" cx="56.82" cy="117.72" r="2.24"/><circle class="uuid-f9f8d267-9a78-45d5-a736-777716f07176" cx="72.07" cy="117.72" r="2.24"/><circle class="uuid-f9f8d267-9a78-45d5-a736-777716f07176" cx="87.32" cy="117.72" r="2.24"/><circle class="uuid-f9f8d267-9a78-45d5-a736-777716f07176" cx="102.57" cy="117.72" r="2.24"/><circle class="uuid-f9f8d267-9a78-45d5-a736-777716f07176" cx="117.82" cy="117.72" r="2.24"/><circle class="uuid-f9f8d267-9a78-45d5-a736-777716f07176" cx="56.82" cy="132.97" r="2.24"/><circle class="uuid-f9f8d267-9a78-45d5-a736-777716f07176" cx="72.07" cy="132.97" r="2.24"/><circle class="uuid-f9f8d267-9a78-45d5-a736-777716f07176" cx="87.32" cy="132.97" r="2.24"/><circle class="uuid-f9f8d267-9a78-45d5-a736-777716f07176" cx="102.57" cy="132.97" r="2.24"/><circle class="uuid-f9f8d267-9a78-45d5-a736-777716f07176" cx="117.82" cy="132.97" r="2.24"/><circle class="uuid-f9f8d267-9a78-45d5-a736-777716f07176" cx="56.82" cy="148.23" r="2.24"/><circle class="uuid-f9f8d267-9a78-45d5-a736-777716f07176" cx="72.07" cy="148.23" r="2.24"/><circle class="uuid-f9f8d267-9a78-45d5-a736-777716f07176" cx="87.32" cy="148.23" r="2.24"/><circle class="uuid-f9f8d267-9a78-45d5-a736-777716f07176" cx="102.57" cy="148.23" r="2.24"/><circle class="uuid-f9f8d267-9a78-45d5-a736-777716f07176" cx="117.82" cy="148.23" r="2.24"/><circle class="uuid-f9f8d267-9a78-45d5-a736-777716f07176" cx="56.82" cy="163.48" r="2.24"/><circle class="uuid-f9f8d267-9a78-45d5-a736-777716f07176" cx="72.07" cy="163.48" r="2.24"/><circle class="uuid-f9f8d267-9a78-45d5-a736-777716f07176" cx="87.32" cy="163.48" r="2.24"/><circle class="uuid-f9f8d267-9a78-45d5-a736-777716f07176" cx="102.57" cy="163.48" r="2.24"/><circle class="uuid-f9f8d267-9a78-45d5-a736-777716f07176" cx="117.82" cy="163.48" r="2.24"/><circle class="uuid-f9f8d267-9a78-45d5-a736-777716f07176" cx="56.82" cy="178.73" r="2.24"/><circle class="uuid-f9f8d267-9a78-45d5-a736-777716f07176" cx="72.07" cy="178.73" r="2.24"/><circle class="uuid-f9f8d267-9a78-45d5-a736-777716f07176" cx="87.32" cy="178.73" r="2.24"/><circle class="uuid-f9f8d267-9a78-45d5-a736-777716f07176" cx="102.57" cy="178.73" r="2.24"/><circle class="uuid-f9f8d267-9a78-45d5-a736-777716f07176" cx="117.82" cy="178.73" r="2.24"/><circle class="uuid-f9f8d267-9a78-45d5-a736-777716f07176" cx="56.82" cy="193.98" r="2.24"/><circle class="uuid-f9f8d267-9a78-45d5-a736-777716f07176" cx="72.07" cy="193.98" r="2.24"/><circle class="uuid-f9f8d267-9a78-45d5-a736-777716f07176" cx="87.32" cy="193.98" r="2.24"/><circle class="uuid-f9f8d267-9a78-45d5-a736-777716f07176" cx="102.57" cy="193.98" r="2.24"/><circle class="uuid-f9f8d267-9a78-45d5-a736-777716f07176" cx="117.82" cy="193.98" r="2.24"/><circle class="uuid-f9f8d267-9a78-45d5-a736-777716f07176" cx="56.82" cy="209.23" r="2.24"/><circle class="uuid-f9f8d267-9a78-45d5-a736-777716f07176" cx="72.07" cy="209.23" r="2.24"/><circle class="uuid-f9f8d267-9a78-45d5-a736-777716f07176" cx="87.32" cy="209.23" r="2.24"/><circle class="uuid-f9f8d267-9a78-45d5-a736-777716f07176" cx="102.57" cy="209.23" r="2.24"/><circle class="uuid-f9f8d267-9a78-45d5-a736-777716f07176" cx="117.82" cy="209.23" r="2.24"/><circle class="uuid-f9f8d267-9a78-45d5-a736-777716f07176" cx="56.82" cy="224.48" r="2.24"/><circle class="uuid-f9f8d267-9a78-45d5-a736-777716f07176" cx="72.07" cy="224.48" r="2.24"/><circle class="uuid-f9f8d267-9a78-45d5-a736-777716f07176" cx="87.32" cy="224.48" r="2.24"/><circle class="uuid-f9f8d267-9a78-45d5-a736-777716f07176" cx="102.57" cy="224.48" r="2.24"/><circle class="uuid-f9f8d267-9a78-45d5-a736-777716f07176" cx="117.82" cy="224.48" r="2.24"/><circle class="uuid-f9f8d267-9a78-45d5-a736-777716f07176" cx="56.82" cy="239.73" r="2.24"/><circle class="uuid-f9f8d267-9a78-45d5-a736-777716f07176" cx="72.07" cy="239.73" r="2.24"/><circle class="uuid-f9f8d267-9a78-45d5-a736-777716f07176" cx="87.32" cy="239.73" r="2.24"/><circle class="uuid-f9f8d267-9a78-45d5-a736-777716f07176" cx="102.57" cy="239.73" r="2.24"/><circle class="uuid-f9f8d267-9a78-45d5-a736-777716f07176" cx="117.82" cy="239.73" r="2.24"/><circle class="uuid-f9f8d267-9a78-45d5-a736-777716f07176" cx="56.82" cy="254.99" r="2.24"/><circle class="uuid-f9f8d267-9a78-45d5-a736-777716f07176" cx="72.07" cy="254.99" r="2.24"/><circle class="uuid-f9f8d267-9a78-45d5-a736-777716f07176" cx="87.32" cy="254.99" r="2.24"/><circle class="uuid-f9f8d267-9a78-45d5-a736-777716f07176" cx="102.57" cy="254.99" r="2.24"/><circle class="uuid-f9f8d267-9a78-45d5-a736-777716f07176" cx="117.82" cy="254.99" r="2.24"/><circle class="uuid-f9f8d267-9a78-45d5-a736-777716f07176" cx="56.82" cy="270.24" r="2.24"/><circle class="uuid-f9f8d267-9a78-45d5-a736-777716f07176" cx="72.07" cy="270.24" r="2.24"/><circle class="uuid-f9f8d267-9a78-45d5-a736-777716f07176" cx="87.32" cy="270.24" r="2.24"/><circle class="uuid-f9f8d267-9a78-45d5-a736-777716f07176" cx="102.57" cy="270.24" r="2.24"/><circle class="uuid-f9f8d267-9a78-45d5-a736-777716f07176" cx="117.82" cy="270.24" r="2.24"/><circle class="uuid-f9f8d267-9a78-45d5-a736-777716f07176" cx="56.82" cy="285.49" r="2.24"/><circle class="uuid-f9f8d267-9a78-45d5-a736-777716f07176" cx="72.07" cy="285.49" r="2.24"/><circle class="uuid-f9f8d267-9a78-45d5-a736-777716f07176" cx="87.32" cy="285.49" r="2.24"/><circle class="uuid-f9f8d267-9a78-45d5-a736-777716f07176" cx="102.57" cy="285.49" r="2.24"/><circle class="uuid-f9f8d267-9a78-45d5-a736-777716f07176" cx="117.82" cy="285.49" r="2.24"/><circle class="uuid-f9f8d267-9a78-45d5-a736-777716f07176" cx="56.82" cy="300.74" r="2.24"/><circle class="uuid-f9f8d267-9a78-45d5-a736-777716f07176" cx="72.07" cy="300.74" r="2.24"/><circle class="uuid-f9f8d267-9a78-45d5-a736-777716f07176" cx="87.32" cy="300.74" r="2.24"/><circle class="uuid-f9f8d267-9a78-45d5-a736-777716f07176" cx="102.57" cy="300.74" r="2.24"/><circle class="uuid-f9f8d267-9a78-45d5-a736-777716f07176" cx="117.82" cy="300.74" r="2.24"/><circle class="uuid-f9f8d267-9a78-45d5-a736-777716f07176" cx="56.82" cy="315.99" r="2.24"/><circle class="uuid-f9f8d267-9a78-45d5-a736-777716f07176" cx="72.07" cy="315.99" r="2.24"/><circle class="uuid-f9f8d267-9a78-45d5-a736-777716f07176" cx="87.32" cy="315.99" r="2.24"/><circle class="uuid-f9f8d267-9a78-45d5-a736-777716f07176" cx="102.57" cy="315.99" r="2.24"/><circle class="uuid-f9f8d267-9a78-45d5-a736-777716f07176" cx="117.82" cy="315.99" r="2.24"/><circle class="uuid-f9f8d267-9a78-45d5-a736-777716f07176" cx="56.82" cy="331.24" r="2.24"/><circle class="uuid-f9f8d267-9a78-45d5-a736-777716f07176" cx="72.07" cy="331.24" r="2.24"/><circle class="uuid-f9f8d267-9a78-45d5-a736-777716f07176" cx="87.32" cy="331.24" r="2.24"/><circle class="uuid-f9f8d267-9a78-45d5-a736-777716f07176" cx="102.57" cy="331.24" r="2.24"/><circle class="uuid-f9f8d267-9a78-45d5-a736-777716f07176" cx="117.82" cy="331.24" r="2.24"/><circle class="uuid-f9f8d267-9a78-45d5-a736-777716f07176" cx="56.82" cy="346.49" r="2.24"/><circle class="uuid-f9f8d267-9a78-45d5-a736-777716f07176" cx="72.07" cy="346.49" r="2.24"/><circle class="uuid-f9f8d267-9a78-45d5-a736-777716f07176" cx="87.32" cy="346.49" r="2.24"/><circle class="uuid-f9f8d267-9a78-45d5-a736-777716f07176" cx="102.57" cy="346.49" r="2.24"/><circle class="uuid-f9f8d267-9a78-45d5-a736-777716f07176" cx="117.82" cy="346.49" r="2.24"/><circle class="uuid-f9f8d267-9a78-45d5-a736-777716f07176" cx="56.82" cy="361.74" r="2.24"/><circle class="uuid-f9f8d267-9a78-45d5-a736-777716f07176" cx="72.07" cy="361.74" r="2.24"/><circle class="uuid-f9f8d267-9a78-45d5-a736-777716f07176" cx="87.32" cy="361.74" r="2.24"/><circle class="uuid-f9f8d267-9a78-45d5-a736-777716f07176" cx="102.57" cy="361.74" r="2.24"/><circle class="uuid-f9f8d267-9a78-45d5-a736-777716f07176" cx="117.82" cy="361.74" r="2.24"/><circle class="uuid-f9f8d267-9a78-45d5-a736-777716f07176" cx="56.82" cy="377" r="2.24"/><circle class="uuid-f9f8d267-9a78-45d5-a736-777716f07176" cx="72.07" cy="377" r="2.24"/><circle class="uuid-f9f8d267-9a78-45d5-a736-777716f07176" cx="87.32" cy="377" r="2.24"/><circle class="uuid-f9f8d267-9a78-45d5-a736-777716f07176" cx="102.57" cy="377" r="2.24"/><circle class="uuid-f9f8d267-9a78-45d5-a736-777716f07176" cx="117.82" cy="377" r="2.24"/><circle class="uuid-f9f8d267-9a78-45d5-a736-777716f07176" cx="56.82" cy="392.25" r="2.24"/><circle class="uuid-f9f8d267-9a78-45d5-a736-777716f07176" cx="72.07" cy="392.25" r="2.24"/><circle class="uuid-f9f8d267-9a78-45d5-a736-777716f07176" cx="87.32" cy="392.25" r="2.24"/><circle class="uuid-f9f8d267-9a78-45d5-a736-777716f07176" cx="102.57" cy="392.25" r="2.24"/><circle class="uuid-f9f8d267-9a78-45d5-a736-777716f07176" cx="117.82" cy="392.25" r="2.24"/><circle class="uuid-f9f8d267-9a78-45d5-a736-777716f07176" cx="56.82" cy="407.5" r="2.24"/><circle class="uuid-f9f8d267-9a78-45d5-a736-777716f07176" cx="72.07" cy="407.5" r="2.24"/><circle class="uuid-f9f8d267-9a78-45d5-a736-777716f07176" cx="87.32" cy="407.5" r="2.24"/><circle class="uuid-f9f8d267-9a78-45d5-a736-777716f07176" cx="102.57" cy="407.5" r="2.24"/><circle class="uuid-f9f8d267-9a78-45d5-a736-777716f07176" cx="117.82" cy="407.5" r="2.24"/><circle class="uuid-f9f8d267-9a78-45d5-a736-777716f07176" cx="56.82" cy="422.75" r="2.24"/><circle class="uuid-f9f8d267-9a78-45d5-a736-777716f07176" cx="72.07" cy="422.75" r="2.24"/><circle class="uuid-f9f8d267-9a78-45d5-a736-777716f07176" cx="87.32" cy="422.75" r="2.24"/><circle class="uuid-f9f8d267-9a78-45d5-a736-777716f07176" cx="102.57" cy="422.75" r="2.24"/><circle class="uuid-f9f8d267-9a78-45d5-a736-777716f07176" cx="117.82" cy="422.75" r="2.24"/><circle class="uuid-f9f8d267-9a78-45d5-a736-777716f07176" cx="56.82" cy="438" r="2.24"/><circle class="uuid-f9f8d267-9a78-45d5-a736-777716f07176" cx="72.07" cy="438" r="2.24"/><circle class="uuid-f9f8d267-9a78-45d5-a736-777716f07176" cx="87.32" cy="438" r="2.24"/><circle class="uuid-f9f8d267-9a78-45d5-a736-777716f07176" cx="102.57" cy="438" r="2.24"/><circle class="uuid-f9f8d267-9a78-45d5-a736-777716f07176" cx="117.82" cy="438" r="2.24"/><circle class="uuid-f9f8d267-9a78-45d5-a736-777716f07176" cx="56.82" cy="453.25" r="2.24"/><circle class="uuid-f9f8d267-9a78-45d5-a736-777716f07176" cx="72.07" cy="453.25" r="2.24"/><circle class="uuid-f9f8d267-9a78-45d5-a736-777716f07176" cx="87.32" cy="453.25" r="2.24"/><circle class="uuid-f9f8d267-9a78-45d5-a736-777716f07176" cx="102.57" cy="453.25" r="2.24"/><circle class="uuid-f9f8d267-9a78-45d5-a736-777716f07176" cx="117.82" cy="453.25" r="2.24"/><circle class="uuid-f9f8d267-9a78-45d5-a736-777716f07176" cx="56.82" cy="468.5" r="2.24"/><circle class="uuid-f9f8d267-9a78-45d5-a736-777716f07176" cx="72.07" cy="468.5" r="2.24"/><circle class="uuid-f9f8d267-9a78-45d5-a736-777716f07176" cx="87.32" cy="468.5" r="2.24"/><circle class="uuid-f9f8d267-9a78-45d5-a736-777716f07176" cx="102.57" cy="468.5" r="2.24"/><circle class="uuid-f9f8d267-9a78-45d5-a736-777716f07176" cx="117.82" cy="468.5" r="2.24"/><circle class="uuid-f9f8d267-9a78-45d5-a736-777716f07176" cx="56.82" cy="483.76" r="2.24"/><circle class="uuid-f9f8d267-9a78-45d5-a736-777716f07176" cx="72.07" cy="483.76" r="2.24"/><circle class="uuid-f9f8d267-9a78-45d5-a736-777716f07176" cx="87.32" cy="483.76" r="2.24"/><circle class="uuid-f9f8d267-9a78-45d5-a736-777716f07176" cx="102.57" cy="483.76" r="2.24"/><circle class="uuid-f9f8d267-9a78-45d5-a736-777716f07176" cx="117.82" cy="483.76" r="2.24"/><circle class="uuid-f9f8d267-9a78-45d5-a736-777716f07176" cx="56.82" cy="499.01" r="2.24"/><circle class="uuid-f9f8d267-9a78-45d5-a736-777716f07176" cx="72.07" cy="499.01" r="2.24"/><circle class="uuid-f9f8d267-9a78-45d5-a736-777716f07176" cx="87.32" cy="499.01" r="2.24"/><circle class="uuid-f9f8d267-9a78-45d5-a736-777716f07176" cx="102.57" cy="499.01" r="2.24"/><circle class="uuid-f9f8d267-9a78-45d5-a736-777716f07176" cx="117.82" cy="499.01" r="2.24"/><circle class="uuid-f9f8d267-9a78-45d5-a736-777716f07176" cx="56.82" cy="514.26" r="2.24"/><circle class="uuid-f9f8d267-9a78-45d5-a736-777716f07176" cx="72.07" cy="514.26" r="2.24"/><circle class="uuid-f9f8d267-9a78-45d5-a736-777716f07176" cx="87.32" cy="514.26" r="2.24"/><circle class="uuid-f9f8d267-9a78-45d5-a736-777716f07176" cx="102.57" cy="514.26" r="2.24"/><circle class="uuid-f9f8d267-9a78-45d5-a736-777716f07176" cx="117.82" cy="514.26" r="2.24"/><circle class="uuid-f9f8d267-9a78-45d5-a736-777716f07176" cx="56.82" cy="529.51" r="2.24"/><circle class="uuid-f9f8d267-9a78-45d5-a736-777716f07176" cx="72.07" cy="529.51" r="2.24"/><circle class="uuid-f9f8d267-9a78-45d5-a736-777716f07176" cx="87.32" cy="529.51" r="2.24"/><circle class="uuid-f9f8d267-9a78-45d5-a736-777716f07176" cx="102.57" cy="529.51" r="2.24"/><circle class="uuid-f9f8d267-9a78-45d5-a736-777716f07176" cx="117.82" cy="529.51" r="2.24"/><circle class="uuid-f9f8d267-9a78-45d5-a736-777716f07176" cx="56.82" cy="544.76" r="2.24"/><circle class="uuid-f9f8d267-9a78-45d5-a736-777716f07176" cx="72.07" cy="544.76" r="2.24"/><circle class="uuid-f9f8d267-9a78-45d5-a736-777716f07176" cx="87.32" cy="544.76" r="2.24"/><circle class="uuid-f9f8d267-9a78-45d5-a736-777716f07176" cx="102.57" cy="544.76" r="2.24"/><circle class="uuid-f9f8d267-9a78-45d5-a736-777716f07176" cx="117.82" cy="544.76" r="2.24"/><circle class="uuid-f9f8d267-9a78-45d5-a736-777716f07176" cx="56.82" cy="560.01" r="2.24"/><circle class="uuid-f9f8d267-9a78-45d5-a736-777716f07176" cx="72.07" cy="560.01" r="2.24"/><circle class="uuid-f9f8d267-9a78-45d5-a736-777716f07176" cx="87.32" cy="560.01" r="2.24"/><circle class="uuid-f9f8d267-9a78-45d5-a736-777716f07176" cx="102.57" cy="560.01" r="2.24"/><circle class="uuid-f9f8d267-9a78-45d5-a736-777716f07176" cx="117.82" cy="560.01" r="2.24"/><circle class="uuid-f9f8d267-9a78-45d5-a736-777716f07176" cx="56.82" cy="575.26" r="2.24"/><circle class="uuid-f9f8d267-9a78-45d5-a736-777716f07176" cx="72.07" cy="575.26" r="2.24"/><circle class="uuid-f9f8d267-9a78-45d5-a736-777716f07176" cx="87.32" cy="575.26" r="2.24"/><circle class="uuid-f9f8d267-9a78-45d5-a736-777716f07176" cx="102.57" cy="575.26" r="2.24"/><circle class="uuid-f9f8d267-9a78-45d5-a736-777716f07176" cx="117.82" cy="575.26" r="2.24"/></g></g><g class="uuid-8a72cb0d-5ea1-41a0-bda2-31e54357df77"><circle class="uuid-f9f8d267-9a78-45d5-a736-777716f07176" cx="1139.66" cy="25.61" r="2.24"/><circle class="uuid-f9f8d267-9a78-45d5-a736-777716f07176" cx="1154.92" cy="25.61" r="2.24"/><circle class="uuid-f9f8d267-9a78-45d5-a736-777716f07176" cx="1170.17" cy="25.61" r="2.24"/><circle class="uuid-f9f8d267-9a78-45d5-a736-777716f07176" cx="1185.42" cy="25.61" r="2.24"/><circle class="uuid-f9f8d267-9a78-45d5-a736-777716f07176" cx="1200.67" cy="25.61" r="2.24"/><circle class="uuid-f9f8d267-9a78-45d5-a736-777716f07176" cx="1215.92" cy="25.61" r="2.24"/><circle class="uuid-f9f8d267-9a78-45d5-a736-777716f07176" cx="1139.66" cy="40.87" r="2.24"/><circle class="uuid-f9f8d267-9a78-45d5-a736-777716f07176" cx="1154.92" cy="40.87" r="2.24"/><circle class="uuid-f9f8d267-9a78-45d5-a736-777716f07176" cx="1170.17" cy="40.87" r="2.24"/><circle class="uuid-f9f8d267-9a78-45d5-a736-777716f07176" cx="1185.42" cy="40.87" r="2.24"/><circle class="uuid-f9f8d267-9a78-45d5-a736-777716f07176" cx="1200.67" cy="40.87" r="2.24"/><circle class="uuid-f9f8d267-9a78-45d5-a736-777716f07176" cx="1215.92" cy="40.87" r="2.24"/><circle class="uuid-f9f8d267-9a78-45d5-a736-777716f07176" cx="1139.66" cy="56.12" r="2.24"/><circle class="uuid-f9f8d267-9a78-45d5-a736-777716f07176" cx="1154.92" cy="56.12" r="2.24"/><circle class="uuid-f9f8d267-9a78-45d5-a736-777716f07176" cx="1170.17" cy="56.12" r="2.24"/><circle class="uuid-f9f8d267-9a78-45d5-a736-777716f07176" cx="1185.42" cy="56.12" r="2.24"/><circle class="uuid-f9f8d267-9a78-45d5-a736-777716f07176" cx="1200.67" cy="56.12" r="2.24"/><circle class="uuid-f9f8d267-9a78-45d5-a736-777716f07176" cx="1215.92" cy="56.12" r="2.24"/><circle class="uuid-f9f8d267-9a78-45d5-a736-777716f07176" cx="1139.66" cy="71.37" r="2.24"/><circle class="uuid-f9f8d267-9a78-45d5-a736-777716f07176" cx="1154.92" cy="71.37" r="2.24"/><circle class="uuid-f9f8d267-9a78-45d5-a736-777716f07176" cx="1170.17" cy="71.37" r="2.24"/><circle class="uuid-f9f8d267-9a78-45d5-a736-777716f07176" cx="1185.42" cy="71.37" r="2.24"/><circle class="uuid-f9f8d267-9a78-45d5-a736-777716f07176" cx="1200.67" cy="71.37" r="2.24"/><circle class="uuid-f9f8d267-9a78-45d5-a736-777716f07176" cx="1215.92" cy="71.37" r="2.24"/><circle class="uuid-f9f8d267-9a78-45d5-a736-777716f07176" cx="1139.66" cy="86.62" r="2.24"/><circle class="uuid-f9f8d267-9a78-45d5-a736-777716f07176" cx="1154.92" cy="86.62" r="2.24"/><circle class="uuid-f9f8d267-9a78-45d5-a736-777716f07176" cx="1170.17" cy="86.62" r="2.24"/><circle class="uuid-f9f8d267-9a78-45d5-a736-777716f07176" cx="1185.42" cy="86.62" r="2.24"/><circle class="uuid-f9f8d267-9a78-45d5-a736-777716f07176" cx="1200.67" cy="86.62" r="2.24"/><circle class="uuid-f9f8d267-9a78-45d5-a736-777716f07176" cx="1215.92" cy="86.62" r="2.24"/><circle class="uuid-f9f8d267-9a78-45d5-a736-777716f07176" cx="1139.66" cy="101.87" r="2.24"/><circle class="uuid-f9f8d267-9a78-45d5-a736-777716f07176" cx="1154.92" cy="101.87" r="2.24"/><circle class="uuid-f9f8d267-9a78-45d5-a736-777716f07176" cx="1170.17" cy="101.87" r="2.24"/><circle class="uuid-f9f8d267-9a78-45d5-a736-777716f07176" cx="1185.42" cy="101.87" r="2.24"/><circle class="uuid-f9f8d267-9a78-45d5-a736-777716f07176" cx="1200.67" cy="101.87" r="2.24"/><circle class="uuid-f9f8d267-9a78-45d5-a736-777716f07176" cx="1215.92" cy="101.87" r="2.24"/><circle class="uuid-f9f8d267-9a78-45d5-a736-777716f07176" cx="1139.66" cy="117.12" r="2.24"/><circle class="uuid-f9f8d267-9a78-45d5-a736-777716f07176" cx="1154.92" cy="117.12" r="2.24"/><circle class="uuid-f9f8d267-9a78-45d5-a736-777716f07176" cx="1170.17" cy="117.12" r="2.24"/><circle class="uuid-f9f8d267-9a78-45d5-a736-777716f07176" cx="1185.42" cy="117.12" r="2.24"/><circle class="uuid-f9f8d267-9a78-45d5-a736-777716f07176" cx="1200.67" cy="117.12" r="2.24"/><circle class="uuid-f9f8d267-9a78-45d5-a736-777716f07176" cx="1215.92" cy="117.12" r="2.24"/><circle class="uuid-f9f8d267-9a78-45d5-a736-777716f07176" cx="1139.66" cy="132.37" r="2.24"/><circle class="uuid-f9f8d267-9a78-45d5-a736-777716f07176" cx="1154.92" cy="132.37" r="2.24"/><circle class="uuid-f9f8d267-9a78-45d5-a736-777716f07176" cx="1170.17" cy="132.37" r="2.24"/><circle class="uuid-f9f8d267-9a78-45d5-a736-777716f07176" cx="1185.42" cy="132.37" r="2.24"/><circle class="uuid-f9f8d267-9a78-45d5-a736-777716f07176" cx="1200.67" cy="132.37" r="2.24"/><circle class="uuid-f9f8d267-9a78-45d5-a736-777716f07176" cx="1215.92" cy="132.37" r="2.24"/><circle class="uuid-f9f8d267-9a78-45d5-a736-777716f07176" cx="1139.66" cy="147.63" r="2.24"/><circle class="uuid-f9f8d267-9a78-45d5-a736-777716f07176" cx="1154.92" cy="147.63" r="2.24"/><circle class="uuid-f9f8d267-9a78-45d5-a736-777716f07176" cx="1170.17" cy="147.63" r="2.24"/><circle class="uuid-f9f8d267-9a78-45d5-a736-777716f07176" cx="1185.42" cy="147.63" r="2.24"/><circle class="uuid-f9f8d267-9a78-45d5-a736-777716f07176" cx="1200.67" cy="147.63" r="2.24"/><circle class="uuid-f9f8d267-9a78-45d5-a736-777716f07176" cx="1215.92" cy="147.63" r="2.24"/><circle class="uuid-f9f8d267-9a78-45d5-a736-777716f07176" cx="1139.66" cy="162.88" r="2.24"/><circle class="uuid-f9f8d267-9a78-45d5-a736-777716f07176" cx="1154.92" cy="162.88" r="2.24"/><circle class="uuid-f9f8d267-9a78-45d5-a736-777716f07176" cx="1170.17" cy="162.88" r="2.24"/><circle class="uuid-f9f8d267-9a78-45d5-a736-777716f07176" cx="1185.42" cy="162.88" r="2.24"/><circle class="uuid-f9f8d267-9a78-45d5-a736-777716f07176" cx="1200.67" cy="162.88" r="2.24"/><circle class="uuid-f9f8d267-9a78-45d5-a736-777716f07176" cx="1215.92" cy="162.88" r="2.24"/><circle class="uuid-f9f8d267-9a78-45d5-a736-777716f07176" cx="1139.66" cy="178.13" r="2.24"/><circle class="uuid-f9f8d267-9a78-45d5-a736-777716f07176" cx="1154.92" cy="178.13" r="2.24"/><circle class="uuid-f9f8d267-9a78-45d5-a736-777716f07176" cx="1170.17" cy="178.13" r="2.24"/><circle class="uuid-f9f8d267-9a78-45d5-a736-777716f07176" cx="1185.42" cy="178.13" r="2.24"/><circle class="uuid-f9f8d267-9a78-45d5-a736-777716f07176" cx="1200.67" cy="178.13" r="2.24"/><circle class="uuid-f9f8d267-9a78-45d5-a736-777716f07176" cx="1215.92" cy="178.13" r="2.24"/><circle class="uuid-f9f8d267-9a78-45d5-a736-777716f07176" cx="1139.66" cy="193.38" r="2.24"/><circle class="uuid-f9f8d267-9a78-45d5-a736-777716f07176" cx="1154.92" cy="193.38" r="2.24"/><circle class="uuid-f9f8d267-9a78-45d5-a736-777716f07176" cx="1170.17" cy="193.38" r="2.24"/><circle class="uuid-f9f8d267-9a78-45d5-a736-777716f07176" cx="1185.42" cy="193.38" r="2.24"/><circle class="uuid-f9f8d267-9a78-45d5-a736-777716f07176" cx="1200.67" cy="193.38" r="2.24"/><circle class="uuid-f9f8d267-9a78-45d5-a736-777716f07176" cx="1215.92" cy="193.38" r="2.24"/></g></g></g></svg>